G04 #@! TF.GenerationSoftware,KiCad,Pcbnew,10.0.6*
G04 #@! TF.CreationDate,2026-09-11T20:12:55+02:00*
G04 #@! TF.ProjectId,hood-control,686f6f64-2d63-46f6-9e74-726f6c2e6b69,rev?*
G04 #@! TF.SameCoordinates,Original*
G04 #@! TF.FileFunction,Copper,L1,Top*
G04 #@! TF.FilePolarity,Positive*
%FSLAX46Y46*%
G04 Gerber Fmt 4.6, Leading zero omitted, Abs format (unit mm)*
G04 Created by KiCad (PCBNEW 10.0.6) date 2026-09-11 20:12:55*
%MOMM*%
%LPD*%
G01*
G04 APERTURE LIST*
G04 Aperture macros list*
%AMRoundRect*
0 Rectangle with rounded corners*
0 $1 Rounding radius*
0 $2 $3 $4 $5 $6 $7 $8 $9 X,Y pos of 4 corners*
0 Add a 4 corners polygon primitive as box body*
4,1,4,$2,$3,$4,$5,$6,$7,$8,$9,$2,$3,0*
0 Add four circle primitives for the rounded corners*
1,1,$1+$1,$2,$3*
1,1,$1+$1,$4,$5*
1,1,$1+$1,$6,$7*
1,1,$1+$1,$8,$9*
0 Add four rect primitives between the rounded corners*
20,1,$1+$1,$2,$3,$4,$5,0*
20,1,$1+$1,$4,$5,$6,$7,0*
20,1,$1+$1,$6,$7,$8,$9,0*
20,1,$1+$1,$8,$9,$2,$3,0*%
G04 Aperture macros list end*
G04 #@! TA.AperFunction,ComponentPad*
%ADD10C,2.000000*%
G04 #@! TD*
G04 #@! TA.AperFunction,ComponentPad*
%ADD11RoundRect,0.250000X0.550000X-0.550000X0.550000X0.550000X-0.550000X0.550000X-0.550000X-0.550000X0*%
G04 #@! TD*
G04 #@! TA.AperFunction,ComponentPad*
%ADD12C,1.600000*%
G04 #@! TD*
G04 #@! TA.AperFunction,ComponentPad*
%ADD13R,1.500000X1.500000*%
G04 #@! TD*
G04 #@! TA.AperFunction,ComponentPad*
%ADD14R,1.700000X1.700000*%
G04 #@! TD*
G04 #@! TA.AperFunction,ComponentPad*
%ADD15C,1.700000*%
G04 #@! TD*
G04 #@! TA.AperFunction,ComponentPad*
%ADD16RoundRect,0.250000X-0.550000X0.550000X-0.550000X-0.550000X0.550000X-0.550000X0.550000X0.550000X0*%
G04 #@! TD*
G04 #@! TA.AperFunction,SMDPad,CuDef*
%ADD17R,1.000000X2.500000*%
G04 #@! TD*
G04 #@! TA.AperFunction,SMDPad,CuDef*
%ADD18R,1.800000X1.000000*%
G04 #@! TD*
G04 #@! TA.AperFunction,ComponentPad*
%ADD19RoundRect,0.250000X0.750000X0.750000X-0.750000X0.750000X-0.750000X-0.750000X0.750000X-0.750000X0*%
G04 #@! TD*
G04 #@! TA.AperFunction,ViaPad*
%ADD20C,0.800000*%
G04 #@! TD*
G04 #@! TA.AperFunction,ViaPad*
%ADD21C,0.600000*%
G04 #@! TD*
G04 #@! TA.AperFunction,Conductor*
%ADD22C,0.250000*%
G04 #@! TD*
G04 #@! TA.AperFunction,Conductor*
%ADD23C,0.600000*%
G04 #@! TD*
G04 APERTURE END LIST*
D10*
X35950378Y-54159428D03*
X35950378Y-60659428D03*
X31450378Y-54159428D03*
X31450378Y-60659428D03*
D11*
X68890000Y-40680000D03*
D12*
X68890000Y-33060000D03*
X91702657Y-65418335D03*
X91702657Y-60418335D03*
D13*
X37945627Y-65282434D03*
D14*
X38457705Y-22900000D03*
D15*
X38457705Y-25440000D03*
D13*
X41110267Y-65282434D03*
D11*
X44760000Y-24170000D03*
D12*
X47300000Y-24170000D03*
X49840000Y-24170000D03*
X52380000Y-24170000D03*
X54920000Y-24170000D03*
X57460000Y-24170000D03*
X60000000Y-24170000D03*
X62540000Y-24170000D03*
X62540000Y-16550000D03*
X60000000Y-16550000D03*
X57460000Y-16550000D03*
X54920000Y-16550000D03*
X52380000Y-16550000D03*
X49840000Y-16550000D03*
X47300000Y-16550000D03*
X44760000Y-16550000D03*
D14*
X27089465Y-65212397D03*
D15*
X29629465Y-65212397D03*
X32169465Y-65212397D03*
D14*
X68890000Y-48669829D03*
D15*
X68890000Y-46129829D03*
D12*
X63262746Y-65544031D03*
X63262746Y-60544031D03*
X44840000Y-27980000D03*
X49840000Y-27980000D03*
X28207755Y-57493466D03*
X18047755Y-57493466D03*
X26980000Y-29250000D03*
X16820000Y-29250000D03*
X18090000Y-61000000D03*
X28250000Y-61000000D03*
D14*
X59697876Y-42660416D03*
D15*
X57157876Y-42660416D03*
X52077876Y-42660416D03*
X49537876Y-42660416D03*
X52077876Y-65520416D03*
X49537876Y-65520416D03*
X59697876Y-65520416D03*
X57157876Y-65520416D03*
D12*
X23217705Y-21089199D03*
X23217705Y-26089199D03*
D14*
X73963158Y-39410000D03*
D15*
X76503158Y-39410000D03*
X79043158Y-39410000D03*
X81583158Y-39410000D03*
X84123158Y-39410000D03*
X86663158Y-39410000D03*
X89203158Y-39410000D03*
X91743158Y-39410000D03*
D13*
X69128907Y-55788515D03*
D11*
X66350000Y-40680000D03*
D12*
X66350000Y-33060000D03*
D16*
X87892657Y-57798335D03*
D12*
X85352657Y-57798335D03*
X82812657Y-57798335D03*
X80272657Y-57798335D03*
X77732657Y-57798335D03*
X75192657Y-57798335D03*
X72652657Y-57798335D03*
X72652657Y-65418335D03*
X75192657Y-65418335D03*
X77732657Y-65418335D03*
X80272657Y-65418335D03*
X82812657Y-65418335D03*
X85352657Y-65418335D03*
X87892657Y-65418335D03*
X88428543Y-54650000D03*
X78268543Y-54650000D03*
D14*
X23170000Y-16550000D03*
D15*
X25710000Y-16550000D03*
X28250000Y-16550000D03*
X30790000Y-16550000D03*
X33330000Y-16550000D03*
X35870000Y-16550000D03*
D16*
X42653993Y-52442888D03*
D12*
X42653993Y-55942888D03*
D13*
X63810000Y-27470000D03*
D17*
X23280000Y-49010000D03*
X25280000Y-49010000D03*
X27280000Y-49010000D03*
X29280000Y-49010000D03*
X31280000Y-49010000D03*
X33280000Y-49010000D03*
X35280000Y-49010000D03*
X37280000Y-49010000D03*
D18*
X38780000Y-46410000D03*
X38780000Y-44410000D03*
X38780000Y-42410000D03*
X38780000Y-40410000D03*
X38780000Y-38410000D03*
X38780000Y-36410000D03*
D17*
X37280000Y-33810000D03*
X35280000Y-33810000D03*
X33280000Y-33810000D03*
X31280000Y-33810000D03*
X29280000Y-33810000D03*
X27280000Y-33810000D03*
X25280000Y-33810000D03*
X23280000Y-33810000D03*
D13*
X69118736Y-52738515D03*
D19*
X59687075Y-35025390D03*
D10*
X54687075Y-35025390D03*
D13*
X60000000Y-27470000D03*
D14*
X73956390Y-33516479D03*
D15*
X76496390Y-33516479D03*
X79036390Y-33516479D03*
X81576390Y-33516479D03*
X84116390Y-33516479D03*
X86656390Y-33516479D03*
X89196390Y-33516479D03*
X91736390Y-33516479D03*
D12*
X28251095Y-54010000D03*
X18091095Y-54010000D03*
X42036503Y-48224254D03*
X42036503Y-43224254D03*
D10*
X27587705Y-21339199D03*
X34087705Y-21339199D03*
X27587705Y-25839199D03*
X34087705Y-25839199D03*
D20*
X37254640Y-31172733D03*
X37239547Y-36336930D03*
D21*
X46000700Y-26788800D03*
X35280000Y-47218300D03*
X35073600Y-32026900D03*
X26846000Y-32025300D03*
D22*
X30455000Y-50585000D02*
X34029428Y-54159428D01*
X31280000Y-33810000D02*
X30455000Y-34635000D01*
X34182500Y-60659400D02*
X35950400Y-60659400D01*
X34029428Y-54159428D02*
X35950378Y-54159428D01*
X29629500Y-65212400D02*
X34182500Y-60659400D01*
X30455000Y-34635000D02*
X30455000Y-50585000D01*
D23*
X37280000Y-36296477D02*
X37239547Y-36336930D01*
X37254640Y-31172733D02*
X37254640Y-33784640D01*
X37254640Y-33784640D02*
X37280000Y-33810000D01*
X37280000Y-33810000D02*
X37280000Y-36296477D01*
D22*
X73963200Y-39410000D02*
X70160000Y-39410000D01*
X70160000Y-39410000D02*
X68890000Y-40680000D01*
X69346500Y-33516500D02*
X68890000Y-33060000D01*
X73956400Y-33516500D02*
X69346500Y-33516500D01*
D23*
X61049600Y-42660400D02*
X67059000Y-48669800D01*
X59687100Y-41297900D02*
X59697900Y-41308700D01*
X87892700Y-65418300D02*
X91702700Y-65418300D01*
X57157900Y-42660400D02*
X59697900Y-42660400D01*
X75045600Y-62956900D02*
X69128900Y-57040200D01*
X59687100Y-35025400D02*
X59687100Y-41297900D01*
X67059000Y-48669800D02*
X68890000Y-48669800D01*
X59697900Y-42660400D02*
X61049600Y-42660400D01*
X87892700Y-65418300D02*
X85431300Y-62956900D01*
X85431300Y-62956900D02*
X75045600Y-62956900D01*
X69128900Y-55788500D02*
X69128900Y-57040200D01*
X59697900Y-42660400D02*
X59697900Y-41308700D01*
D22*
X23280000Y-52565711D02*
X23280000Y-49010000D01*
X23217705Y-26089199D02*
X24105000Y-26976494D01*
X23217700Y-26089200D02*
X23217700Y-25709200D01*
X35720200Y-21339200D02*
X37281000Y-22900000D01*
X38457700Y-22900000D02*
X37281000Y-22900000D01*
X27587700Y-21339200D02*
X34087700Y-21339200D01*
X23217700Y-25709200D02*
X27587700Y-21339200D01*
X34087700Y-21339200D02*
X35720200Y-21339200D01*
X24105000Y-26976494D02*
X24105000Y-48185000D01*
X28207755Y-57493466D02*
X23280000Y-52565711D01*
X24105000Y-48185000D02*
X23280000Y-49010000D01*
D23*
X42653993Y-52442888D02*
X42653993Y-52813993D01*
X19353500Y-58799200D02*
X36297700Y-58799200D01*
X42653993Y-52813993D02*
X44450000Y-54610000D01*
X55793600Y-66884700D02*
X57157900Y-65520400D01*
X18047800Y-60957800D02*
X18047800Y-57493500D01*
X33772700Y-19532700D02*
X40122700Y-19532700D01*
X18047800Y-57493500D02*
X19353500Y-58799200D01*
X18047800Y-54053300D02*
X18047800Y-57493500D01*
X43964300Y-66884700D02*
X55793600Y-66884700D01*
X57157900Y-65520400D02*
X59697900Y-65520400D01*
X42036503Y-48224254D02*
X44840000Y-45420757D01*
X36297700Y-58799200D02*
X42654000Y-52442900D01*
X41110300Y-65282400D02*
X42362000Y-65282400D01*
X18090000Y-61000000D02*
X18047800Y-60957800D01*
X30790000Y-16550000D02*
X33772700Y-19532700D01*
X63239100Y-65520400D02*
X63262700Y-65544000D01*
X44840000Y-45420757D02*
X44840000Y-27980000D01*
X44450000Y-54610000D02*
X44450000Y-61942701D01*
X59697900Y-65520400D02*
X63239100Y-65520400D01*
X18091100Y-54010000D02*
X18047800Y-54053300D01*
X42036500Y-48224300D02*
X38065700Y-48224300D01*
X44450000Y-61942701D02*
X41110267Y-65282434D01*
X40122700Y-19532700D02*
X44760000Y-24170000D01*
X42362000Y-65282400D02*
X43964300Y-66884700D01*
X38065700Y-48224300D02*
X37280000Y-49010000D01*
D22*
X44374100Y-26788800D02*
X46000700Y-26788800D01*
X31242400Y-30270900D02*
X40892000Y-30270900D01*
X40892000Y-30270900D02*
X44374100Y-26788800D01*
X29280000Y-32233300D02*
X31242400Y-30270900D01*
X29280000Y-33810000D02*
X29280000Y-32233300D01*
X53505000Y-26523215D02*
X66350000Y-39368215D01*
X68215000Y-42545000D02*
X73368158Y-42545000D01*
X50965000Y-23045000D02*
X52845991Y-23045000D01*
X53505000Y-23704009D02*
X53505000Y-26523215D01*
X73368158Y-42545000D02*
X76503158Y-39410000D01*
X66350000Y-40680000D02*
X68215000Y-42545000D01*
X52845991Y-23045000D02*
X53505000Y-23704009D01*
X49840000Y-24170000D02*
X50965000Y-23045000D01*
X66350000Y-39368215D02*
X66350000Y-40680000D01*
X41197500Y-29008500D02*
X31818800Y-29008500D01*
X52380000Y-24170000D02*
X50475100Y-26074900D01*
X44131100Y-26074900D02*
X41197500Y-29008500D01*
X31818800Y-29008500D02*
X27280000Y-33547300D01*
X27280000Y-33547300D02*
X27280000Y-33810000D01*
X50475100Y-26074900D02*
X44131100Y-26074900D01*
X35280000Y-47218300D02*
X35280000Y-49010000D01*
X91736390Y-33516479D02*
X87429911Y-29210000D01*
X91743200Y-33523300D02*
X91743200Y-39410000D01*
X60000000Y-24170000D02*
X60000000Y-27470000D01*
X61740000Y-29210000D02*
X60000000Y-27470000D01*
X91743158Y-39410000D02*
X88428543Y-42724615D01*
X88428543Y-42724615D02*
X88428543Y-54650000D01*
X87429911Y-29210000D02*
X61740000Y-29210000D01*
X28250000Y-61000000D02*
X27089500Y-62160500D01*
X27089500Y-62160500D02*
X27089500Y-65212400D01*
X35280000Y-32233300D02*
X35073600Y-32026900D01*
X35280000Y-33810000D02*
X35280000Y-32233300D01*
X23170000Y-16550000D02*
X23170000Y-17726700D01*
X23170000Y-17726700D02*
X23217700Y-17774400D01*
X23217700Y-17774400D02*
X23217700Y-21089200D01*
X79036390Y-33516479D02*
X79036390Y-39403232D01*
X79036390Y-39403232D02*
X79043158Y-39410000D01*
X81583200Y-33523300D02*
X81583200Y-39410000D01*
X81576400Y-33516500D02*
X81583200Y-33523300D01*
X84123200Y-33523300D02*
X84123200Y-39410000D01*
X84116400Y-33516500D02*
X84123200Y-33523300D01*
X86656400Y-33516500D02*
X86663200Y-33523300D01*
X86663200Y-33523300D02*
X86663200Y-39410000D01*
X89196400Y-33516500D02*
X89203200Y-33523300D01*
X89203200Y-33523300D02*
X89203200Y-39410000D01*
X74729900Y-31750000D02*
X67660000Y-31750000D01*
X67660000Y-31750000D02*
X66350000Y-33060000D01*
X76496400Y-33516500D02*
X74729900Y-31750000D01*
X85352700Y-57798300D02*
X79955900Y-52401500D01*
X79955900Y-52401500D02*
X70998700Y-52401500D01*
X85352700Y-57798300D02*
X87892700Y-57798300D01*
X33280000Y-49010000D02*
X33280000Y-50586700D01*
X69183900Y-50586700D02*
X33280000Y-50586700D01*
X70998700Y-52401500D02*
X69183900Y-50586700D01*
X53095000Y-54263500D02*
X74197900Y-54263500D01*
X77732700Y-57798300D02*
X80272700Y-57798300D01*
X74197900Y-54263500D02*
X77732700Y-57798300D01*
X50102900Y-51271400D02*
X53095000Y-54263500D01*
X31964700Y-51271400D02*
X50102900Y-51271400D01*
X31280000Y-49010000D02*
X31280000Y-50586700D01*
X31280000Y-50586700D02*
X31964700Y-51271400D01*
X22092705Y-25623208D02*
X22092705Y-30858905D01*
X25710000Y-22005913D02*
X22092705Y-25623208D01*
X25710000Y-16550000D02*
X25710000Y-22005913D01*
X23280000Y-32046200D02*
X23280000Y-33810000D01*
X22092705Y-30858905D02*
X23280000Y-32046200D01*
X26846000Y-32025300D02*
X26638000Y-32233300D01*
X26638000Y-32233300D02*
X25280000Y-32233300D01*
X25280000Y-33810000D02*
X25280000Y-32233300D01*
X28251100Y-54010000D02*
X27280000Y-53038900D01*
X27280000Y-53038900D02*
X27280000Y-49010000D01*
M02*
