G04 #@! TF.GenerationSoftware,KiCad,Pcbnew,10.0.6*
G04 #@! TF.CreationDate,2026-09-26T19:36:41+02:00*
G04 #@! TF.ProjectId,hood-control,686f6f64-2d63-46f6-9e74-726f6c2e6b69,rev?*
G04 #@! TF.SameCoordinates,Original*
G04 #@! TF.FileFunction,Legend,Top*
G04 #@! TF.FilePolarity,Positive*
%FSLAX46Y46*%
G04 Gerber Fmt 4.6, Leading zero omitted, Abs format (unit mm)*
G04 Created by KiCad (PCBNEW 10.0.6) date 2026-09-26 19:36:41*
%MOMM*%
%LPD*%
G01*
G04 APERTURE LIST*
G04 Aperture macros list*
%AMRoundRect*
0 Rectangle with rounded corners*
0 $1 Rounding radius*
0 $2 $3 $4 $5 $6 $7 $8 $9 X,Y pos of 4 corners*
0 Add a 4 corners polygon primitive as box body*
4,1,4,$2,$3,$4,$5,$6,$7,$8,$9,$2,$3,0*
0 Add four circle primitives for the rounded corners*
1,1,$1+$1,$2,$3*
1,1,$1+$1,$4,$5*
1,1,$1+$1,$6,$7*
1,1,$1+$1,$8,$9*
0 Add four rect primitives between the rounded corners*
20,1,$1+$1,$2,$3,$4,$5,0*
20,1,$1+$1,$4,$5,$6,$7,0*
20,1,$1+$1,$6,$7,$8,$9,0*
20,1,$1+$1,$8,$9,$2,$3,0*%
G04 Aperture macros list end*
%ADD10C,0.150000*%
%ADD11C,0.130000*%
%ADD12C,0.120000*%
%ADD13C,0.310000*%
%ADD14C,2.000000*%
%ADD15RoundRect,0.250000X0.550000X-0.550000X0.550000X0.550000X-0.550000X0.550000X-0.550000X-0.550000X0*%
%ADD16C,1.600000*%
%ADD17R,1.500000X1.500000*%
%ADD18R,1.700000X1.700000*%
%ADD19C,1.700000*%
%ADD20RoundRect,0.250000X-0.550000X0.550000X-0.550000X-0.550000X0.550000X-0.550000X0.550000X0.550000X0*%
%ADD21C,2.100000*%
%ADD22R,1.000000X2.500000*%
%ADD23R,1.800000X1.000000*%
%ADD24C,2.200000*%
%ADD25RoundRect,0.250000X0.750000X0.750000X-0.750000X0.750000X-0.750000X-0.750000X0.750000X-0.750000X0*%
G04 APERTURE END LIST*
D10*
X71515140Y-50186030D02*
X71515140Y-49652697D01*
X71819902Y-49919363D02*
X71210378Y-49919363D01*
X71019902Y-48452697D02*
X71019902Y-48786030D01*
X71019902Y-48786030D02*
X71400854Y-48819363D01*
X71400854Y-48819363D02*
X71362759Y-48786030D01*
X71362759Y-48786030D02*
X71324664Y-48719363D01*
X71324664Y-48719363D02*
X71324664Y-48552697D01*
X71324664Y-48552697D02*
X71362759Y-48486030D01*
X71362759Y-48486030D02*
X71400854Y-48452697D01*
X71400854Y-48452697D02*
X71477045Y-48419363D01*
X71477045Y-48419363D02*
X71667521Y-48419363D01*
X71667521Y-48419363D02*
X71743711Y-48452697D01*
X71743711Y-48452697D02*
X71781807Y-48486030D01*
X71781807Y-48486030D02*
X71819902Y-48552697D01*
X71819902Y-48552697D02*
X71819902Y-48719363D01*
X71819902Y-48719363D02*
X71781807Y-48786030D01*
X71781807Y-48786030D02*
X71743711Y-48819363D01*
X71019902Y-48219363D02*
X71819902Y-47986030D01*
X71819902Y-47986030D02*
X71019902Y-47752696D01*
X71819902Y-46986030D02*
X71019902Y-46986030D01*
X71819902Y-46652697D02*
X71019902Y-46652697D01*
X71019902Y-46652697D02*
X71819902Y-46252697D01*
X71819902Y-46252697D02*
X71019902Y-46252697D01*
X71515140Y-45386031D02*
X71515140Y-44852698D01*
X73249998Y-36611521D02*
X73178569Y-36573426D01*
X73178569Y-36573426D02*
X73142855Y-36535330D01*
X73142855Y-36535330D02*
X73107141Y-36459140D01*
X73107141Y-36459140D02*
X73107141Y-36230568D01*
X73107141Y-36230568D02*
X73142855Y-36154378D01*
X73142855Y-36154378D02*
X73178569Y-36116283D01*
X73178569Y-36116283D02*
X73249998Y-36078187D01*
X73249998Y-36078187D02*
X73357141Y-36078187D01*
X73357141Y-36078187D02*
X73428569Y-36116283D01*
X73428569Y-36116283D02*
X73464284Y-36154378D01*
X73464284Y-36154378D02*
X73499998Y-36230568D01*
X73499998Y-36230568D02*
X73499998Y-36459140D01*
X73499998Y-36459140D02*
X73464284Y-36535330D01*
X73464284Y-36535330D02*
X73428569Y-36573426D01*
X73428569Y-36573426D02*
X73357141Y-36611521D01*
X73357141Y-36611521D02*
X73249998Y-36611521D01*
X73821426Y-36611521D02*
X73821426Y-36078187D01*
X73821426Y-36230568D02*
X73857140Y-36154378D01*
X73857140Y-36154378D02*
X73892855Y-36116283D01*
X73892855Y-36116283D02*
X73964283Y-36078187D01*
X73964283Y-36078187D02*
X74035712Y-36078187D01*
X74821426Y-35773426D02*
X74178569Y-36801997D01*
X74999997Y-36078187D02*
X75142855Y-36611521D01*
X75142855Y-36611521D02*
X75285712Y-36230568D01*
X75285712Y-36230568D02*
X75428569Y-36611521D01*
X75428569Y-36611521D02*
X75571426Y-36078187D01*
X76535712Y-36611521D02*
X76464283Y-36573426D01*
X76464283Y-36573426D02*
X76428569Y-36535330D01*
X76428569Y-36535330D02*
X76392855Y-36459140D01*
X76392855Y-36459140D02*
X76392855Y-36230568D01*
X76392855Y-36230568D02*
X76428569Y-36154378D01*
X76428569Y-36154378D02*
X76464283Y-36116283D01*
X76464283Y-36116283D02*
X76535712Y-36078187D01*
X76535712Y-36078187D02*
X76642855Y-36078187D01*
X76642855Y-36078187D02*
X76714283Y-36116283D01*
X76714283Y-36116283D02*
X76749998Y-36154378D01*
X76749998Y-36154378D02*
X76785712Y-36230568D01*
X76785712Y-36230568D02*
X76785712Y-36459140D01*
X76785712Y-36459140D02*
X76749998Y-36535330D01*
X76749998Y-36535330D02*
X76714283Y-36573426D01*
X76714283Y-36573426D02*
X76642855Y-36611521D01*
X76642855Y-36611521D02*
X76535712Y-36611521D01*
X77107140Y-36611521D02*
X77107140Y-36078187D01*
X77107140Y-36230568D02*
X77142854Y-36154378D01*
X77142854Y-36154378D02*
X77178569Y-36116283D01*
X77178569Y-36116283D02*
X77249997Y-36078187D01*
X77249997Y-36078187D02*
X77321426Y-36078187D01*
X78464284Y-36078187D02*
X78464284Y-36725806D01*
X78464284Y-36725806D02*
X78428569Y-36801997D01*
X78428569Y-36801997D02*
X78392855Y-36840092D01*
X78392855Y-36840092D02*
X78321426Y-36878187D01*
X78321426Y-36878187D02*
X78214284Y-36878187D01*
X78214284Y-36878187D02*
X78142855Y-36840092D01*
X78464284Y-36573426D02*
X78392855Y-36611521D01*
X78392855Y-36611521D02*
X78249998Y-36611521D01*
X78249998Y-36611521D02*
X78178569Y-36573426D01*
X78178569Y-36573426D02*
X78142855Y-36535330D01*
X78142855Y-36535330D02*
X78107141Y-36459140D01*
X78107141Y-36459140D02*
X78107141Y-36230568D01*
X78107141Y-36230568D02*
X78142855Y-36154378D01*
X78142855Y-36154378D02*
X78178569Y-36116283D01*
X78178569Y-36116283D02*
X78249998Y-36078187D01*
X78249998Y-36078187D02*
X78392855Y-36078187D01*
X78392855Y-36078187D02*
X78464284Y-36116283D01*
X78821426Y-36078187D02*
X78821426Y-36611521D01*
X78821426Y-36154378D02*
X78857140Y-36116283D01*
X78857140Y-36116283D02*
X78928569Y-36078187D01*
X78928569Y-36078187D02*
X79035712Y-36078187D01*
X79035712Y-36078187D02*
X79107140Y-36116283D01*
X79107140Y-36116283D02*
X79142855Y-36192473D01*
X79142855Y-36192473D02*
X79142855Y-36611521D01*
X80035711Y-35773426D02*
X79392854Y-36801997D01*
X80214282Y-36078187D02*
X80357140Y-36611521D01*
X80357140Y-36611521D02*
X80499997Y-36230568D01*
X80499997Y-36230568D02*
X80642854Y-36611521D01*
X80642854Y-36611521D02*
X80785711Y-36078187D01*
X81642854Y-36611521D02*
X81642854Y-35811521D01*
X81642854Y-36116283D02*
X81714283Y-36078187D01*
X81714283Y-36078187D02*
X81857140Y-36078187D01*
X81857140Y-36078187D02*
X81928568Y-36116283D01*
X81928568Y-36116283D02*
X81964283Y-36154378D01*
X81964283Y-36154378D02*
X81999997Y-36230568D01*
X81999997Y-36230568D02*
X81999997Y-36459140D01*
X81999997Y-36459140D02*
X81964283Y-36535330D01*
X81964283Y-36535330D02*
X81928568Y-36573426D01*
X81928568Y-36573426D02*
X81857140Y-36611521D01*
X81857140Y-36611521D02*
X81714283Y-36611521D01*
X81714283Y-36611521D02*
X81642854Y-36573426D01*
X82428568Y-36611521D02*
X82357139Y-36573426D01*
X82357139Y-36573426D02*
X82321425Y-36497235D01*
X82321425Y-36497235D02*
X82321425Y-35811521D01*
X83285711Y-36611521D02*
X83285711Y-35811521D01*
X83285711Y-36116283D02*
X83357140Y-36078187D01*
X83357140Y-36078187D02*
X83499997Y-36078187D01*
X83499997Y-36078187D02*
X83571425Y-36116283D01*
X83571425Y-36116283D02*
X83607140Y-36154378D01*
X83607140Y-36154378D02*
X83642854Y-36230568D01*
X83642854Y-36230568D02*
X83642854Y-36459140D01*
X83642854Y-36459140D02*
X83607140Y-36535330D01*
X83607140Y-36535330D02*
X83571425Y-36573426D01*
X83571425Y-36573426D02*
X83499997Y-36611521D01*
X83499997Y-36611521D02*
X83357140Y-36611521D01*
X83357140Y-36611521D02*
X83285711Y-36573426D01*
X84071425Y-36611521D02*
X83999996Y-36573426D01*
X83999996Y-36573426D02*
X83964282Y-36497235D01*
X83964282Y-36497235D02*
X83964282Y-35811521D01*
X84892853Y-35773426D02*
X84249996Y-36801997D01*
X85071424Y-36078187D02*
X85214282Y-36611521D01*
X85214282Y-36611521D02*
X85357139Y-36230568D01*
X85357139Y-36230568D02*
X85499996Y-36611521D01*
X85499996Y-36611521D02*
X85642853Y-36078187D01*
X86821425Y-36078187D02*
X86821425Y-36725806D01*
X86821425Y-36725806D02*
X86785710Y-36801997D01*
X86785710Y-36801997D02*
X86749996Y-36840092D01*
X86749996Y-36840092D02*
X86678567Y-36878187D01*
X86678567Y-36878187D02*
X86571425Y-36878187D01*
X86571425Y-36878187D02*
X86499996Y-36840092D01*
X86821425Y-36573426D02*
X86749996Y-36611521D01*
X86749996Y-36611521D02*
X86607139Y-36611521D01*
X86607139Y-36611521D02*
X86535710Y-36573426D01*
X86535710Y-36573426D02*
X86499996Y-36535330D01*
X86499996Y-36535330D02*
X86464282Y-36459140D01*
X86464282Y-36459140D02*
X86464282Y-36230568D01*
X86464282Y-36230568D02*
X86499996Y-36154378D01*
X86499996Y-36154378D02*
X86535710Y-36116283D01*
X86535710Y-36116283D02*
X86607139Y-36078187D01*
X86607139Y-36078187D02*
X86749996Y-36078187D01*
X86749996Y-36078187D02*
X86821425Y-36116283D01*
X87178567Y-36078187D02*
X87178567Y-36611521D01*
X87178567Y-36154378D02*
X87214281Y-36116283D01*
X87214281Y-36116283D02*
X87285710Y-36078187D01*
X87285710Y-36078187D02*
X87392853Y-36078187D01*
X87392853Y-36078187D02*
X87464281Y-36116283D01*
X87464281Y-36116283D02*
X87499996Y-36192473D01*
X87499996Y-36192473D02*
X87499996Y-36611521D01*
X88428567Y-36611521D02*
X88428567Y-35811521D01*
X88428567Y-36116283D02*
X88499996Y-36078187D01*
X88499996Y-36078187D02*
X88642853Y-36078187D01*
X88642853Y-36078187D02*
X88714281Y-36116283D01*
X88714281Y-36116283D02*
X88749996Y-36154378D01*
X88749996Y-36154378D02*
X88785710Y-36230568D01*
X88785710Y-36230568D02*
X88785710Y-36459140D01*
X88785710Y-36459140D02*
X88749996Y-36535330D01*
X88749996Y-36535330D02*
X88714281Y-36573426D01*
X88714281Y-36573426D02*
X88642853Y-36611521D01*
X88642853Y-36611521D02*
X88499996Y-36611521D01*
X88499996Y-36611521D02*
X88428567Y-36573426D01*
X89107138Y-36611521D02*
X89107138Y-36078187D01*
X89107138Y-36230568D02*
X89142852Y-36154378D01*
X89142852Y-36154378D02*
X89178567Y-36116283D01*
X89178567Y-36116283D02*
X89249995Y-36078187D01*
X89249995Y-36078187D02*
X89321424Y-36078187D01*
X90107138Y-35773426D02*
X89464281Y-36801997D01*
X90285709Y-36078187D02*
X90428567Y-36611521D01*
X90428567Y-36611521D02*
X90571424Y-36230568D01*
X90571424Y-36230568D02*
X90714281Y-36611521D01*
X90714281Y-36611521D02*
X90857138Y-36078187D01*
X91714281Y-36611521D02*
X91714281Y-35811521D01*
X91714281Y-36116283D02*
X91785710Y-36078187D01*
X91785710Y-36078187D02*
X91928567Y-36078187D01*
X91928567Y-36078187D02*
X91999995Y-36116283D01*
X91999995Y-36116283D02*
X92035710Y-36154378D01*
X92035710Y-36154378D02*
X92071424Y-36230568D01*
X92071424Y-36230568D02*
X92071424Y-36459140D01*
X92071424Y-36459140D02*
X92035710Y-36535330D01*
X92035710Y-36535330D02*
X91999995Y-36573426D01*
X91999995Y-36573426D02*
X91928567Y-36611521D01*
X91928567Y-36611521D02*
X91785710Y-36611521D01*
X91785710Y-36611521D02*
X91714281Y-36573426D01*
X92392852Y-36611521D02*
X92392852Y-36078187D01*
X92392852Y-36230568D02*
X92428566Y-36154378D01*
X92428566Y-36154378D02*
X92464281Y-36116283D01*
X92464281Y-36116283D02*
X92535709Y-36078187D01*
X92535709Y-36078187D02*
X92607138Y-36078187D01*
X26088989Y-68114692D02*
X25822322Y-67733739D01*
X25631846Y-68114692D02*
X25631846Y-67314692D01*
X25631846Y-67314692D02*
X25936608Y-67314692D01*
X25936608Y-67314692D02*
X26012798Y-67352787D01*
X26012798Y-67352787D02*
X26050893Y-67390882D01*
X26050893Y-67390882D02*
X26088989Y-67467073D01*
X26088989Y-67467073D02*
X26088989Y-67581358D01*
X26088989Y-67581358D02*
X26050893Y-67657549D01*
X26050893Y-67657549D02*
X26012798Y-67695644D01*
X26012798Y-67695644D02*
X25936608Y-67733739D01*
X25936608Y-67733739D02*
X25631846Y-67733739D01*
X26431846Y-67314692D02*
X26431846Y-67962311D01*
X26431846Y-67962311D02*
X26469941Y-68038501D01*
X26469941Y-68038501D02*
X26508036Y-68076597D01*
X26508036Y-68076597D02*
X26584227Y-68114692D01*
X26584227Y-68114692D02*
X26736608Y-68114692D01*
X26736608Y-68114692D02*
X26812798Y-68076597D01*
X26812798Y-68076597D02*
X26850893Y-68038501D01*
X26850893Y-68038501D02*
X26888989Y-67962311D01*
X26888989Y-67962311D02*
X26888989Y-67314692D01*
X27269941Y-68114692D02*
X27269941Y-67314692D01*
X27269941Y-67314692D02*
X27727084Y-68114692D01*
X27727084Y-68114692D02*
X27727084Y-67314692D01*
X30727084Y-67695644D02*
X30460418Y-67695644D01*
X30460418Y-68114692D02*
X30460418Y-67314692D01*
X30460418Y-67314692D02*
X30841370Y-67314692D01*
X31527084Y-68114692D02*
X31146132Y-68114692D01*
X31146132Y-68114692D02*
X31146132Y-67314692D01*
X31755655Y-67886120D02*
X32136608Y-67886120D01*
X31679465Y-68114692D02*
X31946132Y-67314692D01*
X31946132Y-67314692D02*
X32212798Y-68114692D01*
X32441369Y-68076597D02*
X32555655Y-68114692D01*
X32555655Y-68114692D02*
X32746131Y-68114692D01*
X32746131Y-68114692D02*
X32822322Y-68076597D01*
X32822322Y-68076597D02*
X32860417Y-68038501D01*
X32860417Y-68038501D02*
X32898512Y-67962311D01*
X32898512Y-67962311D02*
X32898512Y-67886120D01*
X32898512Y-67886120D02*
X32860417Y-67809930D01*
X32860417Y-67809930D02*
X32822322Y-67771835D01*
X32822322Y-67771835D02*
X32746131Y-67733739D01*
X32746131Y-67733739D02*
X32593750Y-67695644D01*
X32593750Y-67695644D02*
X32517560Y-67657549D01*
X32517560Y-67657549D02*
X32479465Y-67619454D01*
X32479465Y-67619454D02*
X32441369Y-67543263D01*
X32441369Y-67543263D02*
X32441369Y-67467073D01*
X32441369Y-67467073D02*
X32479465Y-67390882D01*
X32479465Y-67390882D02*
X32517560Y-67352787D01*
X32517560Y-67352787D02*
X32593750Y-67314692D01*
X32593750Y-67314692D02*
X32784227Y-67314692D01*
X32784227Y-67314692D02*
X32898512Y-67352787D01*
X33241370Y-68114692D02*
X33241370Y-67314692D01*
X33241370Y-67695644D02*
X33698513Y-67695644D01*
X33698513Y-68114692D02*
X33698513Y-67314692D01*
X72793540Y-30848752D02*
X72526874Y-30848752D01*
X72526874Y-31267800D02*
X72526874Y-30467800D01*
X72526874Y-30467800D02*
X72907826Y-30467800D01*
X73212588Y-31267800D02*
X73212588Y-30734466D01*
X73212588Y-30886847D02*
X73250683Y-30810657D01*
X73250683Y-30810657D02*
X73288778Y-30772562D01*
X73288778Y-30772562D02*
X73364969Y-30734466D01*
X73364969Y-30734466D02*
X73441159Y-30734466D01*
X73822111Y-31267800D02*
X73745921Y-31229705D01*
X73745921Y-31229705D02*
X73707826Y-31191609D01*
X73707826Y-31191609D02*
X73669730Y-31115419D01*
X73669730Y-31115419D02*
X73669730Y-30886847D01*
X73669730Y-30886847D02*
X73707826Y-30810657D01*
X73707826Y-30810657D02*
X73745921Y-30772562D01*
X73745921Y-30772562D02*
X73822111Y-30734466D01*
X73822111Y-30734466D02*
X73936397Y-30734466D01*
X73936397Y-30734466D02*
X74012588Y-30772562D01*
X74012588Y-30772562D02*
X74050683Y-30810657D01*
X74050683Y-30810657D02*
X74088778Y-30886847D01*
X74088778Y-30886847D02*
X74088778Y-31115419D01*
X74088778Y-31115419D02*
X74050683Y-31191609D01*
X74050683Y-31191609D02*
X74012588Y-31229705D01*
X74012588Y-31229705D02*
X73936397Y-31267800D01*
X73936397Y-31267800D02*
X73822111Y-31267800D01*
X74431636Y-30734466D02*
X74431636Y-31267800D01*
X74431636Y-30810657D02*
X74469731Y-30772562D01*
X74469731Y-30772562D02*
X74545921Y-30734466D01*
X74545921Y-30734466D02*
X74660207Y-30734466D01*
X74660207Y-30734466D02*
X74736398Y-30772562D01*
X74736398Y-30772562D02*
X74774493Y-30848752D01*
X74774493Y-30848752D02*
X74774493Y-31267800D01*
X75041160Y-30734466D02*
X75345922Y-30734466D01*
X75155446Y-30467800D02*
X75155446Y-31153514D01*
X75155446Y-31153514D02*
X75193541Y-31229705D01*
X75193541Y-31229705D02*
X75269731Y-31267800D01*
X75269731Y-31267800D02*
X75345922Y-31267800D01*
X75612589Y-30734466D02*
X75612589Y-31534466D01*
X75612589Y-30772562D02*
X75688779Y-30734466D01*
X75688779Y-30734466D02*
X75841160Y-30734466D01*
X75841160Y-30734466D02*
X75917351Y-30772562D01*
X75917351Y-30772562D02*
X75955446Y-30810657D01*
X75955446Y-30810657D02*
X75993541Y-30886847D01*
X75993541Y-30886847D02*
X75993541Y-31115419D01*
X75993541Y-31115419D02*
X75955446Y-31191609D01*
X75955446Y-31191609D02*
X75917351Y-31229705D01*
X75917351Y-31229705D02*
X75841160Y-31267800D01*
X75841160Y-31267800D02*
X75688779Y-31267800D01*
X75688779Y-31267800D02*
X75612589Y-31229705D01*
X76679256Y-31267800D02*
X76679256Y-30848752D01*
X76679256Y-30848752D02*
X76641161Y-30772562D01*
X76641161Y-30772562D02*
X76564970Y-30734466D01*
X76564970Y-30734466D02*
X76412589Y-30734466D01*
X76412589Y-30734466D02*
X76336399Y-30772562D01*
X76679256Y-31229705D02*
X76603065Y-31267800D01*
X76603065Y-31267800D02*
X76412589Y-31267800D01*
X76412589Y-31267800D02*
X76336399Y-31229705D01*
X76336399Y-31229705D02*
X76298303Y-31153514D01*
X76298303Y-31153514D02*
X76298303Y-31077324D01*
X76298303Y-31077324D02*
X76336399Y-31001133D01*
X76336399Y-31001133D02*
X76412589Y-30963038D01*
X76412589Y-30963038D02*
X76603065Y-30963038D01*
X76603065Y-30963038D02*
X76679256Y-30924943D01*
X77060209Y-30734466D02*
X77060209Y-31267800D01*
X77060209Y-30810657D02*
X77098304Y-30772562D01*
X77098304Y-30772562D02*
X77174494Y-30734466D01*
X77174494Y-30734466D02*
X77288780Y-30734466D01*
X77288780Y-30734466D02*
X77364971Y-30772562D01*
X77364971Y-30772562D02*
X77403066Y-30848752D01*
X77403066Y-30848752D02*
X77403066Y-31267800D01*
X78088781Y-31229705D02*
X78012590Y-31267800D01*
X78012590Y-31267800D02*
X77860209Y-31267800D01*
X77860209Y-31267800D02*
X77784019Y-31229705D01*
X77784019Y-31229705D02*
X77745923Y-31153514D01*
X77745923Y-31153514D02*
X77745923Y-30848752D01*
X77745923Y-30848752D02*
X77784019Y-30772562D01*
X77784019Y-30772562D02*
X77860209Y-30734466D01*
X77860209Y-30734466D02*
X78012590Y-30734466D01*
X78012590Y-30734466D02*
X78088781Y-30772562D01*
X78088781Y-30772562D02*
X78126876Y-30848752D01*
X78126876Y-30848752D02*
X78126876Y-30924943D01*
X78126876Y-30924943D02*
X77745923Y-31001133D01*
X78584018Y-31267800D02*
X78507828Y-31229705D01*
X78507828Y-31229705D02*
X78469733Y-31153514D01*
X78469733Y-31153514D02*
X78469733Y-30467800D01*
X72542045Y-42352241D02*
X72542045Y-41552241D01*
X72542045Y-41933193D02*
X72999188Y-41933193D01*
X72999188Y-42352241D02*
X72999188Y-41552241D01*
X73494425Y-42352241D02*
X73418235Y-42314146D01*
X73418235Y-42314146D02*
X73380140Y-42276050D01*
X73380140Y-42276050D02*
X73342044Y-42199860D01*
X73342044Y-42199860D02*
X73342044Y-41971288D01*
X73342044Y-41971288D02*
X73380140Y-41895098D01*
X73380140Y-41895098D02*
X73418235Y-41857003D01*
X73418235Y-41857003D02*
X73494425Y-41818907D01*
X73494425Y-41818907D02*
X73608711Y-41818907D01*
X73608711Y-41818907D02*
X73684902Y-41857003D01*
X73684902Y-41857003D02*
X73722997Y-41895098D01*
X73722997Y-41895098D02*
X73761092Y-41971288D01*
X73761092Y-41971288D02*
X73761092Y-42199860D01*
X73761092Y-42199860D02*
X73722997Y-42276050D01*
X73722997Y-42276050D02*
X73684902Y-42314146D01*
X73684902Y-42314146D02*
X73608711Y-42352241D01*
X73608711Y-42352241D02*
X73494425Y-42352241D01*
X74218235Y-42352241D02*
X74142045Y-42314146D01*
X74142045Y-42314146D02*
X74103950Y-42276050D01*
X74103950Y-42276050D02*
X74065854Y-42199860D01*
X74065854Y-42199860D02*
X74065854Y-41971288D01*
X74065854Y-41971288D02*
X74103950Y-41895098D01*
X74103950Y-41895098D02*
X74142045Y-41857003D01*
X74142045Y-41857003D02*
X74218235Y-41818907D01*
X74218235Y-41818907D02*
X74332521Y-41818907D01*
X74332521Y-41818907D02*
X74408712Y-41857003D01*
X74408712Y-41857003D02*
X74446807Y-41895098D01*
X74446807Y-41895098D02*
X74484902Y-41971288D01*
X74484902Y-41971288D02*
X74484902Y-42199860D01*
X74484902Y-42199860D02*
X74446807Y-42276050D01*
X74446807Y-42276050D02*
X74408712Y-42314146D01*
X74408712Y-42314146D02*
X74332521Y-42352241D01*
X74332521Y-42352241D02*
X74218235Y-42352241D01*
X75170617Y-42352241D02*
X75170617Y-41552241D01*
X75170617Y-42314146D02*
X75094426Y-42352241D01*
X75094426Y-42352241D02*
X74942045Y-42352241D01*
X74942045Y-42352241D02*
X74865855Y-42314146D01*
X74865855Y-42314146D02*
X74827760Y-42276050D01*
X74827760Y-42276050D02*
X74789664Y-42199860D01*
X74789664Y-42199860D02*
X74789664Y-41971288D01*
X74789664Y-41971288D02*
X74827760Y-41895098D01*
X74827760Y-41895098D02*
X74865855Y-41857003D01*
X74865855Y-41857003D02*
X74942045Y-41818907D01*
X74942045Y-41818907D02*
X75094426Y-41818907D01*
X75094426Y-41818907D02*
X75170617Y-41857003D01*
X75894427Y-42314146D02*
X75818236Y-42352241D01*
X75818236Y-42352241D02*
X75665855Y-42352241D01*
X75665855Y-42352241D02*
X75589665Y-42314146D01*
X75589665Y-42314146D02*
X75551570Y-42276050D01*
X75551570Y-42276050D02*
X75513474Y-42199860D01*
X75513474Y-42199860D02*
X75513474Y-41971288D01*
X75513474Y-41971288D02*
X75551570Y-41895098D01*
X75551570Y-41895098D02*
X75589665Y-41857003D01*
X75589665Y-41857003D02*
X75665855Y-41818907D01*
X75665855Y-41818907D02*
X75818236Y-41818907D01*
X75818236Y-41818907D02*
X75894427Y-41857003D01*
X76351569Y-42352241D02*
X76275379Y-42314146D01*
X76275379Y-42314146D02*
X76237284Y-42276050D01*
X76237284Y-42276050D02*
X76199188Y-42199860D01*
X76199188Y-42199860D02*
X76199188Y-41971288D01*
X76199188Y-41971288D02*
X76237284Y-41895098D01*
X76237284Y-41895098D02*
X76275379Y-41857003D01*
X76275379Y-41857003D02*
X76351569Y-41818907D01*
X76351569Y-41818907D02*
X76465855Y-41818907D01*
X76465855Y-41818907D02*
X76542046Y-41857003D01*
X76542046Y-41857003D02*
X76580141Y-41895098D01*
X76580141Y-41895098D02*
X76618236Y-41971288D01*
X76618236Y-41971288D02*
X76618236Y-42199860D01*
X76618236Y-42199860D02*
X76580141Y-42276050D01*
X76580141Y-42276050D02*
X76542046Y-42314146D01*
X76542046Y-42314146D02*
X76465855Y-42352241D01*
X76465855Y-42352241D02*
X76351569Y-42352241D01*
X76961094Y-41818907D02*
X76961094Y-42352241D01*
X76961094Y-41895098D02*
X76999189Y-41857003D01*
X76999189Y-41857003D02*
X77075379Y-41818907D01*
X77075379Y-41818907D02*
X77189665Y-41818907D01*
X77189665Y-41818907D02*
X77265856Y-41857003D01*
X77265856Y-41857003D02*
X77303951Y-41933193D01*
X77303951Y-41933193D02*
X77303951Y-42352241D01*
X77570618Y-41818907D02*
X77875380Y-41818907D01*
X77684904Y-41552241D02*
X77684904Y-42237955D01*
X77684904Y-42237955D02*
X77722999Y-42314146D01*
X77722999Y-42314146D02*
X77799189Y-42352241D01*
X77799189Y-42352241D02*
X77875380Y-42352241D01*
X78142047Y-42352241D02*
X78142047Y-41818907D01*
X78142047Y-41971288D02*
X78180142Y-41895098D01*
X78180142Y-41895098D02*
X78218237Y-41857003D01*
X78218237Y-41857003D02*
X78294428Y-41818907D01*
X78294428Y-41818907D02*
X78370618Y-41818907D01*
X78751570Y-42352241D02*
X78675380Y-42314146D01*
X78675380Y-42314146D02*
X78637285Y-42276050D01*
X78637285Y-42276050D02*
X78599189Y-42199860D01*
X78599189Y-42199860D02*
X78599189Y-41971288D01*
X78599189Y-41971288D02*
X78637285Y-41895098D01*
X78637285Y-41895098D02*
X78675380Y-41857003D01*
X78675380Y-41857003D02*
X78751570Y-41818907D01*
X78751570Y-41818907D02*
X78865856Y-41818907D01*
X78865856Y-41818907D02*
X78942047Y-41857003D01*
X78942047Y-41857003D02*
X78980142Y-41895098D01*
X78980142Y-41895098D02*
X79018237Y-41971288D01*
X79018237Y-41971288D02*
X79018237Y-42199860D01*
X79018237Y-42199860D02*
X78980142Y-42276050D01*
X78980142Y-42276050D02*
X78942047Y-42314146D01*
X78942047Y-42314146D02*
X78865856Y-42352241D01*
X78865856Y-42352241D02*
X78751570Y-42352241D01*
X79475380Y-42352241D02*
X79399190Y-42314146D01*
X79399190Y-42314146D02*
X79361095Y-42237955D01*
X79361095Y-42237955D02*
X79361095Y-41552241D01*
X26927741Y-41472295D02*
X27118217Y-42272295D01*
X27118217Y-42272295D02*
X27270598Y-41700866D01*
X27270598Y-41700866D02*
X27422979Y-42272295D01*
X27422979Y-42272295D02*
X27613456Y-41472295D01*
X28261075Y-42272295D02*
X28261075Y-41853247D01*
X28261075Y-41853247D02*
X28222980Y-41777057D01*
X28222980Y-41777057D02*
X28146789Y-41738961D01*
X28146789Y-41738961D02*
X27994408Y-41738961D01*
X27994408Y-41738961D02*
X27918218Y-41777057D01*
X28261075Y-42234200D02*
X28184884Y-42272295D01*
X28184884Y-42272295D02*
X27994408Y-42272295D01*
X27994408Y-42272295D02*
X27918218Y-42234200D01*
X27918218Y-42234200D02*
X27880122Y-42158009D01*
X27880122Y-42158009D02*
X27880122Y-42081819D01*
X27880122Y-42081819D02*
X27918218Y-42005628D01*
X27918218Y-42005628D02*
X27994408Y-41967533D01*
X27994408Y-41967533D02*
X28184884Y-41967533D01*
X28184884Y-41967533D02*
X28261075Y-41929438D01*
X28565837Y-41738961D02*
X28756313Y-42272295D01*
X28946790Y-41738961D02*
X28756313Y-42272295D01*
X28756313Y-42272295D02*
X28680123Y-42462771D01*
X28680123Y-42462771D02*
X28642028Y-42500866D01*
X28642028Y-42500866D02*
X28565837Y-42538961D01*
X29175361Y-41472295D02*
X29365837Y-42272295D01*
X29365837Y-42272295D02*
X29518218Y-41700866D01*
X29518218Y-41700866D02*
X29670599Y-42272295D01*
X29670599Y-42272295D02*
X29861076Y-41472295D01*
X30508695Y-42272295D02*
X30508695Y-41853247D01*
X30508695Y-41853247D02*
X30470600Y-41777057D01*
X30470600Y-41777057D02*
X30394409Y-41738961D01*
X30394409Y-41738961D02*
X30242028Y-41738961D01*
X30242028Y-41738961D02*
X30165838Y-41777057D01*
X30508695Y-42234200D02*
X30432504Y-42272295D01*
X30432504Y-42272295D02*
X30242028Y-42272295D01*
X30242028Y-42272295D02*
X30165838Y-42234200D01*
X30165838Y-42234200D02*
X30127742Y-42158009D01*
X30127742Y-42158009D02*
X30127742Y-42081819D01*
X30127742Y-42081819D02*
X30165838Y-42005628D01*
X30165838Y-42005628D02*
X30242028Y-41967533D01*
X30242028Y-41967533D02*
X30432504Y-41967533D01*
X30432504Y-41967533D02*
X30508695Y-41929438D01*
X30813457Y-41738961D02*
X31003933Y-42272295D01*
X31194410Y-41738961D02*
X31003933Y-42272295D01*
X31003933Y-42272295D02*
X30927743Y-42462771D01*
X30927743Y-42462771D02*
X30889648Y-42500866D01*
X30889648Y-42500866D02*
X30813457Y-42538961D01*
X31422981Y-41472295D02*
X31613457Y-42272295D01*
X31613457Y-42272295D02*
X31765838Y-41700866D01*
X31765838Y-41700866D02*
X31918219Y-42272295D01*
X31918219Y-42272295D02*
X32108696Y-41472295D01*
X32756315Y-42272295D02*
X32756315Y-41853247D01*
X32756315Y-41853247D02*
X32718220Y-41777057D01*
X32718220Y-41777057D02*
X32642029Y-41738961D01*
X32642029Y-41738961D02*
X32489648Y-41738961D01*
X32489648Y-41738961D02*
X32413458Y-41777057D01*
X32756315Y-42234200D02*
X32680124Y-42272295D01*
X32680124Y-42272295D02*
X32489648Y-42272295D01*
X32489648Y-42272295D02*
X32413458Y-42234200D01*
X32413458Y-42234200D02*
X32375362Y-42158009D01*
X32375362Y-42158009D02*
X32375362Y-42081819D01*
X32375362Y-42081819D02*
X32413458Y-42005628D01*
X32413458Y-42005628D02*
X32489648Y-41967533D01*
X32489648Y-41967533D02*
X32680124Y-41967533D01*
X32680124Y-41967533D02*
X32756315Y-41929438D01*
X33061077Y-41738961D02*
X33251553Y-42272295D01*
X33442030Y-41738961D02*
X33251553Y-42272295D01*
X33251553Y-42272295D02*
X33175363Y-42462771D01*
X33175363Y-42462771D02*
X33137268Y-42500866D01*
X33137268Y-42500866D02*
X33061077Y-42538961D01*
X76683218Y-15676037D02*
X77016551Y-15676037D01*
X77159408Y-16199847D02*
X76683218Y-16199847D01*
X76683218Y-16199847D02*
X76683218Y-15199847D01*
X76683218Y-15199847D02*
X77159408Y-15199847D01*
X77540361Y-16152228D02*
X77683218Y-16199847D01*
X77683218Y-16199847D02*
X77921313Y-16199847D01*
X77921313Y-16199847D02*
X78016551Y-16152228D01*
X78016551Y-16152228D02*
X78064170Y-16104608D01*
X78064170Y-16104608D02*
X78111789Y-16009370D01*
X78111789Y-16009370D02*
X78111789Y-15914132D01*
X78111789Y-15914132D02*
X78064170Y-15818894D01*
X78064170Y-15818894D02*
X78016551Y-15771275D01*
X78016551Y-15771275D02*
X77921313Y-15723656D01*
X77921313Y-15723656D02*
X77730837Y-15676037D01*
X77730837Y-15676037D02*
X77635599Y-15628418D01*
X77635599Y-15628418D02*
X77587980Y-15580799D01*
X77587980Y-15580799D02*
X77540361Y-15485561D01*
X77540361Y-15485561D02*
X77540361Y-15390323D01*
X77540361Y-15390323D02*
X77587980Y-15295085D01*
X77587980Y-15295085D02*
X77635599Y-15247466D01*
X77635599Y-15247466D02*
X77730837Y-15199847D01*
X77730837Y-15199847D02*
X77968932Y-15199847D01*
X77968932Y-15199847D02*
X78111789Y-15247466D01*
X78540361Y-16199847D02*
X78540361Y-15199847D01*
X78540361Y-15199847D02*
X78921313Y-15199847D01*
X78921313Y-15199847D02*
X79016551Y-15247466D01*
X79016551Y-15247466D02*
X79064170Y-15295085D01*
X79064170Y-15295085D02*
X79111789Y-15390323D01*
X79111789Y-15390323D02*
X79111789Y-15533180D01*
X79111789Y-15533180D02*
X79064170Y-15628418D01*
X79064170Y-15628418D02*
X79016551Y-15676037D01*
X79016551Y-15676037D02*
X78921313Y-15723656D01*
X78921313Y-15723656D02*
X78540361Y-15723656D01*
X80302266Y-16199847D02*
X80302266Y-15199847D01*
X80302266Y-15676037D02*
X80873694Y-15676037D01*
X80873694Y-16199847D02*
X80873694Y-15199847D01*
X81778456Y-16199847D02*
X81778456Y-15676037D01*
X81778456Y-15676037D02*
X81730837Y-15580799D01*
X81730837Y-15580799D02*
X81635599Y-15533180D01*
X81635599Y-15533180D02*
X81445123Y-15533180D01*
X81445123Y-15533180D02*
X81349885Y-15580799D01*
X81778456Y-16152228D02*
X81683218Y-16199847D01*
X81683218Y-16199847D02*
X81445123Y-16199847D01*
X81445123Y-16199847D02*
X81349885Y-16152228D01*
X81349885Y-16152228D02*
X81302266Y-16056989D01*
X81302266Y-16056989D02*
X81302266Y-15961751D01*
X81302266Y-15961751D02*
X81349885Y-15866513D01*
X81349885Y-15866513D02*
X81445123Y-15818894D01*
X81445123Y-15818894D02*
X81683218Y-15818894D01*
X81683218Y-15818894D02*
X81778456Y-15771275D01*
X82683218Y-15533180D02*
X82683218Y-16199847D01*
X82254647Y-15533180D02*
X82254647Y-16056989D01*
X82254647Y-16056989D02*
X82302266Y-16152228D01*
X82302266Y-16152228D02*
X82397504Y-16199847D01*
X82397504Y-16199847D02*
X82540361Y-16199847D01*
X82540361Y-16199847D02*
X82635599Y-16152228D01*
X82635599Y-16152228D02*
X82683218Y-16104608D01*
X83159409Y-16199847D02*
X83159409Y-15199847D01*
X83159409Y-15580799D02*
X83254647Y-15533180D01*
X83254647Y-15533180D02*
X83445123Y-15533180D01*
X83445123Y-15533180D02*
X83540361Y-15580799D01*
X83540361Y-15580799D02*
X83587980Y-15628418D01*
X83587980Y-15628418D02*
X83635599Y-15723656D01*
X83635599Y-15723656D02*
X83635599Y-16009370D01*
X83635599Y-16009370D02*
X83587980Y-16104608D01*
X83587980Y-16104608D02*
X83540361Y-16152228D01*
X83540361Y-16152228D02*
X83445123Y-16199847D01*
X83445123Y-16199847D02*
X83254647Y-16199847D01*
X83254647Y-16199847D02*
X83159409Y-16152228D01*
X84445123Y-16152228D02*
X84349885Y-16199847D01*
X84349885Y-16199847D02*
X84159409Y-16199847D01*
X84159409Y-16199847D02*
X84064171Y-16152228D01*
X84064171Y-16152228D02*
X84016552Y-16056989D01*
X84016552Y-16056989D02*
X84016552Y-15676037D01*
X84016552Y-15676037D02*
X84064171Y-15580799D01*
X84064171Y-15580799D02*
X84159409Y-15533180D01*
X84159409Y-15533180D02*
X84349885Y-15533180D01*
X84349885Y-15533180D02*
X84445123Y-15580799D01*
X84445123Y-15580799D02*
X84492742Y-15676037D01*
X84492742Y-15676037D02*
X84492742Y-15771275D01*
X84492742Y-15771275D02*
X84016552Y-15866513D01*
X84921314Y-15533180D02*
X84921314Y-16199847D01*
X84921314Y-15628418D02*
X84968933Y-15580799D01*
X84968933Y-15580799D02*
X85064171Y-15533180D01*
X85064171Y-15533180D02*
X85207028Y-15533180D01*
X85207028Y-15533180D02*
X85302266Y-15580799D01*
X85302266Y-15580799D02*
X85349885Y-15676037D01*
X85349885Y-15676037D02*
X85349885Y-16199847D01*
X85778457Y-16152228D02*
X85873695Y-16199847D01*
X85873695Y-16199847D02*
X86064171Y-16199847D01*
X86064171Y-16199847D02*
X86159409Y-16152228D01*
X86159409Y-16152228D02*
X86207028Y-16056989D01*
X86207028Y-16056989D02*
X86207028Y-16009370D01*
X86207028Y-16009370D02*
X86159409Y-15914132D01*
X86159409Y-15914132D02*
X86064171Y-15866513D01*
X86064171Y-15866513D02*
X85921314Y-15866513D01*
X85921314Y-15866513D02*
X85826076Y-15818894D01*
X85826076Y-15818894D02*
X85778457Y-15723656D01*
X85778457Y-15723656D02*
X85778457Y-15676037D01*
X85778457Y-15676037D02*
X85826076Y-15580799D01*
X85826076Y-15580799D02*
X85921314Y-15533180D01*
X85921314Y-15533180D02*
X86064171Y-15533180D01*
X86064171Y-15533180D02*
X86159409Y-15580799D01*
X86492743Y-15533180D02*
X86873695Y-15533180D01*
X86635600Y-15199847D02*
X86635600Y-16056989D01*
X86635600Y-16056989D02*
X86683219Y-16152228D01*
X86683219Y-16152228D02*
X86778457Y-16199847D01*
X86778457Y-16199847D02*
X86873695Y-16199847D01*
X87587981Y-16152228D02*
X87492743Y-16199847D01*
X87492743Y-16199847D02*
X87302267Y-16199847D01*
X87302267Y-16199847D02*
X87207029Y-16152228D01*
X87207029Y-16152228D02*
X87159410Y-16056989D01*
X87159410Y-16056989D02*
X87159410Y-15676037D01*
X87159410Y-15676037D02*
X87207029Y-15580799D01*
X87207029Y-15580799D02*
X87302267Y-15533180D01*
X87302267Y-15533180D02*
X87492743Y-15533180D01*
X87492743Y-15533180D02*
X87587981Y-15580799D01*
X87587981Y-15580799D02*
X87635600Y-15676037D01*
X87635600Y-15676037D02*
X87635600Y-15771275D01*
X87635600Y-15771275D02*
X87159410Y-15866513D01*
X88492743Y-15533180D02*
X88492743Y-16199847D01*
X88064172Y-15533180D02*
X88064172Y-16056989D01*
X88064172Y-16056989D02*
X88111791Y-16152228D01*
X88111791Y-16152228D02*
X88207029Y-16199847D01*
X88207029Y-16199847D02*
X88349886Y-16199847D01*
X88349886Y-16199847D02*
X88445124Y-16152228D01*
X88445124Y-16152228D02*
X88492743Y-16104608D01*
X89349886Y-16152228D02*
X89254648Y-16199847D01*
X89254648Y-16199847D02*
X89064172Y-16199847D01*
X89064172Y-16199847D02*
X88968934Y-16152228D01*
X88968934Y-16152228D02*
X88921315Y-16056989D01*
X88921315Y-16056989D02*
X88921315Y-15676037D01*
X88921315Y-15676037D02*
X88968934Y-15580799D01*
X88968934Y-15580799D02*
X89064172Y-15533180D01*
X89064172Y-15533180D02*
X89254648Y-15533180D01*
X89254648Y-15533180D02*
X89349886Y-15580799D01*
X89349886Y-15580799D02*
X89397505Y-15676037D01*
X89397505Y-15676037D02*
X89397505Y-15771275D01*
X89397505Y-15771275D02*
X88921315Y-15866513D01*
X89826077Y-16199847D02*
X89826077Y-15533180D01*
X89826077Y-15723656D02*
X89873696Y-15628418D01*
X89873696Y-15628418D02*
X89921315Y-15580799D01*
X89921315Y-15580799D02*
X90016553Y-15533180D01*
X90016553Y-15533180D02*
X90111791Y-15533180D01*
X90873696Y-15533180D02*
X90873696Y-16199847D01*
X90445125Y-15533180D02*
X90445125Y-16056989D01*
X90445125Y-16056989D02*
X90492744Y-16152228D01*
X90492744Y-16152228D02*
X90587982Y-16199847D01*
X90587982Y-16199847D02*
X90730839Y-16199847D01*
X90730839Y-16199847D02*
X90826077Y-16152228D01*
X90826077Y-16152228D02*
X90873696Y-16104608D01*
X91349887Y-15533180D02*
X91349887Y-16199847D01*
X91349887Y-15628418D02*
X91397506Y-15580799D01*
X91397506Y-15580799D02*
X91492744Y-15533180D01*
X91492744Y-15533180D02*
X91635601Y-15533180D01*
X91635601Y-15533180D02*
X91730839Y-15580799D01*
X91730839Y-15580799D02*
X91778458Y-15676037D01*
X91778458Y-15676037D02*
X91778458Y-16199847D01*
X92683220Y-15533180D02*
X92683220Y-16342704D01*
X92683220Y-16342704D02*
X92635601Y-16437942D01*
X92635601Y-16437942D02*
X92587982Y-16485561D01*
X92587982Y-16485561D02*
X92492744Y-16533180D01*
X92492744Y-16533180D02*
X92349887Y-16533180D01*
X92349887Y-16533180D02*
X92254649Y-16485561D01*
X92683220Y-16152228D02*
X92587982Y-16199847D01*
X92587982Y-16199847D02*
X92397506Y-16199847D01*
X92397506Y-16199847D02*
X92302268Y-16152228D01*
X92302268Y-16152228D02*
X92254649Y-16104608D01*
X92254649Y-16104608D02*
X92207030Y-16009370D01*
X92207030Y-16009370D02*
X92207030Y-15723656D01*
X92207030Y-15723656D02*
X92254649Y-15628418D01*
X92254649Y-15628418D02*
X92302268Y-15580799D01*
X92302268Y-15580799D02*
X92397506Y-15533180D01*
X92397506Y-15533180D02*
X92587982Y-15533180D01*
X92587982Y-15533180D02*
X92683220Y-15580799D01*
X73349885Y-17143124D02*
X73730837Y-17143124D01*
X73492742Y-17809791D02*
X73492742Y-16952648D01*
X73492742Y-16952648D02*
X73540361Y-16857410D01*
X73540361Y-16857410D02*
X73635599Y-16809791D01*
X73635599Y-16809791D02*
X73730837Y-16809791D01*
X74492742Y-17143124D02*
X74492742Y-17809791D01*
X74064171Y-17143124D02*
X74064171Y-17666933D01*
X74064171Y-17666933D02*
X74111790Y-17762172D01*
X74111790Y-17762172D02*
X74207028Y-17809791D01*
X74207028Y-17809791D02*
X74349885Y-17809791D01*
X74349885Y-17809791D02*
X74445123Y-17762172D01*
X74445123Y-17762172D02*
X74492742Y-17714552D01*
X74111790Y-16809791D02*
X74159409Y-16857410D01*
X74159409Y-16857410D02*
X74111790Y-16905029D01*
X74111790Y-16905029D02*
X74064171Y-16857410D01*
X74064171Y-16857410D02*
X74111790Y-16809791D01*
X74111790Y-16809791D02*
X74111790Y-16905029D01*
X74492742Y-16809791D02*
X74540361Y-16857410D01*
X74540361Y-16857410D02*
X74492742Y-16905029D01*
X74492742Y-16905029D02*
X74445123Y-16857410D01*
X74445123Y-16857410D02*
X74492742Y-16809791D01*
X74492742Y-16809791D02*
X74492742Y-16905029D01*
X74968933Y-17809791D02*
X74968933Y-17143124D01*
X74968933Y-17333600D02*
X75016552Y-17238362D01*
X75016552Y-17238362D02*
X75064171Y-17190743D01*
X75064171Y-17190743D02*
X75159409Y-17143124D01*
X75159409Y-17143124D02*
X75254647Y-17143124D01*
X76873695Y-16857410D02*
X76778457Y-16809791D01*
X76778457Y-16809791D02*
X76635600Y-16809791D01*
X76635600Y-16809791D02*
X76492743Y-16857410D01*
X76492743Y-16857410D02*
X76397505Y-16952648D01*
X76397505Y-16952648D02*
X76349886Y-17047886D01*
X76349886Y-17047886D02*
X76302267Y-17238362D01*
X76302267Y-17238362D02*
X76302267Y-17381219D01*
X76302267Y-17381219D02*
X76349886Y-17571695D01*
X76349886Y-17571695D02*
X76397505Y-17666933D01*
X76397505Y-17666933D02*
X76492743Y-17762172D01*
X76492743Y-17762172D02*
X76635600Y-17809791D01*
X76635600Y-17809791D02*
X76730838Y-17809791D01*
X76730838Y-17809791D02*
X76873695Y-17762172D01*
X76873695Y-17762172D02*
X76921314Y-17714552D01*
X76921314Y-17714552D02*
X76921314Y-17381219D01*
X76921314Y-17381219D02*
X76730838Y-17381219D01*
X77778457Y-17143124D02*
X77778457Y-17809791D01*
X77349886Y-17143124D02*
X77349886Y-17666933D01*
X77349886Y-17666933D02*
X77397505Y-17762172D01*
X77397505Y-17762172D02*
X77492743Y-17809791D01*
X77492743Y-17809791D02*
X77635600Y-17809791D01*
X77635600Y-17809791D02*
X77730838Y-17762172D01*
X77730838Y-17762172D02*
X77778457Y-17714552D01*
X78111791Y-17143124D02*
X78492743Y-17143124D01*
X78254648Y-16809791D02*
X78254648Y-17666933D01*
X78254648Y-17666933D02*
X78302267Y-17762172D01*
X78302267Y-17762172D02*
X78397505Y-17809791D01*
X78397505Y-17809791D02*
X78492743Y-17809791D01*
X78826077Y-17809791D02*
X78826077Y-17143124D01*
X78826077Y-17238362D02*
X78873696Y-17190743D01*
X78873696Y-17190743D02*
X78968934Y-17143124D01*
X78968934Y-17143124D02*
X79111791Y-17143124D01*
X79111791Y-17143124D02*
X79207029Y-17190743D01*
X79207029Y-17190743D02*
X79254648Y-17285981D01*
X79254648Y-17285981D02*
X79254648Y-17809791D01*
X79254648Y-17285981D02*
X79302267Y-17190743D01*
X79302267Y-17190743D02*
X79397505Y-17143124D01*
X79397505Y-17143124D02*
X79540362Y-17143124D01*
X79540362Y-17143124D02*
X79635601Y-17190743D01*
X79635601Y-17190743D02*
X79683220Y-17285981D01*
X79683220Y-17285981D02*
X79683220Y-17809791D01*
X80587981Y-17809791D02*
X80587981Y-17285981D01*
X80587981Y-17285981D02*
X80540362Y-17190743D01*
X80540362Y-17190743D02*
X80445124Y-17143124D01*
X80445124Y-17143124D02*
X80254648Y-17143124D01*
X80254648Y-17143124D02*
X80159410Y-17190743D01*
X80587981Y-17762172D02*
X80492743Y-17809791D01*
X80492743Y-17809791D02*
X80254648Y-17809791D01*
X80254648Y-17809791D02*
X80159410Y-17762172D01*
X80159410Y-17762172D02*
X80111791Y-17666933D01*
X80111791Y-17666933D02*
X80111791Y-17571695D01*
X80111791Y-17571695D02*
X80159410Y-17476457D01*
X80159410Y-17476457D02*
X80254648Y-17428838D01*
X80254648Y-17428838D02*
X80492743Y-17428838D01*
X80492743Y-17428838D02*
X80587981Y-17381219D01*
X81064172Y-17143124D02*
X81064172Y-17809791D01*
X81064172Y-17238362D02*
X81111791Y-17190743D01*
X81111791Y-17190743D02*
X81207029Y-17143124D01*
X81207029Y-17143124D02*
X81349886Y-17143124D01*
X81349886Y-17143124D02*
X81445124Y-17190743D01*
X81445124Y-17190743D02*
X81492743Y-17285981D01*
X81492743Y-17285981D02*
X81492743Y-17809791D01*
X81968934Y-17143124D02*
X81968934Y-17809791D01*
X81968934Y-17238362D02*
X82016553Y-17190743D01*
X82016553Y-17190743D02*
X82111791Y-17143124D01*
X82111791Y-17143124D02*
X82254648Y-17143124D01*
X82254648Y-17143124D02*
X82349886Y-17190743D01*
X82349886Y-17190743D02*
X82397505Y-17285981D01*
X82397505Y-17285981D02*
X82397505Y-17809791D01*
X83587982Y-17762172D02*
X83730839Y-17809791D01*
X83730839Y-17809791D02*
X83968934Y-17809791D01*
X83968934Y-17809791D02*
X84064172Y-17762172D01*
X84064172Y-17762172D02*
X84111791Y-17714552D01*
X84111791Y-17714552D02*
X84159410Y-17619314D01*
X84159410Y-17619314D02*
X84159410Y-17524076D01*
X84159410Y-17524076D02*
X84111791Y-17428838D01*
X84111791Y-17428838D02*
X84064172Y-17381219D01*
X84064172Y-17381219D02*
X83968934Y-17333600D01*
X83968934Y-17333600D02*
X83778458Y-17285981D01*
X83778458Y-17285981D02*
X83683220Y-17238362D01*
X83683220Y-17238362D02*
X83635601Y-17190743D01*
X83635601Y-17190743D02*
X83587982Y-17095505D01*
X83587982Y-17095505D02*
X83587982Y-17000267D01*
X83587982Y-17000267D02*
X83635601Y-16905029D01*
X83635601Y-16905029D02*
X83683220Y-16857410D01*
X83683220Y-16857410D02*
X83778458Y-16809791D01*
X83778458Y-16809791D02*
X84016553Y-16809791D01*
X84016553Y-16809791D02*
X84159410Y-16857410D01*
X84730839Y-17809791D02*
X84635601Y-17762172D01*
X84635601Y-17762172D02*
X84587982Y-17714552D01*
X84587982Y-17714552D02*
X84540363Y-17619314D01*
X84540363Y-17619314D02*
X84540363Y-17333600D01*
X84540363Y-17333600D02*
X84587982Y-17238362D01*
X84587982Y-17238362D02*
X84635601Y-17190743D01*
X84635601Y-17190743D02*
X84730839Y-17143124D01*
X84730839Y-17143124D02*
X84873696Y-17143124D01*
X84873696Y-17143124D02*
X84968934Y-17190743D01*
X84968934Y-17190743D02*
X85016553Y-17238362D01*
X85016553Y-17238362D02*
X85064172Y-17333600D01*
X85064172Y-17333600D02*
X85064172Y-17619314D01*
X85064172Y-17619314D02*
X85016553Y-17714552D01*
X85016553Y-17714552D02*
X84968934Y-17762172D01*
X84968934Y-17762172D02*
X84873696Y-17809791D01*
X84873696Y-17809791D02*
X84730839Y-17809791D01*
X85492744Y-17809791D02*
X85492744Y-17143124D01*
X85492744Y-17238362D02*
X85540363Y-17190743D01*
X85540363Y-17190743D02*
X85635601Y-17143124D01*
X85635601Y-17143124D02*
X85778458Y-17143124D01*
X85778458Y-17143124D02*
X85873696Y-17190743D01*
X85873696Y-17190743D02*
X85921315Y-17285981D01*
X85921315Y-17285981D02*
X85921315Y-17809791D01*
X85921315Y-17285981D02*
X85968934Y-17190743D01*
X85968934Y-17190743D02*
X86064172Y-17143124D01*
X86064172Y-17143124D02*
X86207029Y-17143124D01*
X86207029Y-17143124D02*
X86302268Y-17190743D01*
X86302268Y-17190743D02*
X86349887Y-17285981D01*
X86349887Y-17285981D02*
X86349887Y-17809791D01*
X86826077Y-17809791D02*
X86826077Y-16809791D01*
X86826077Y-17190743D02*
X86921315Y-17143124D01*
X86921315Y-17143124D02*
X87111791Y-17143124D01*
X87111791Y-17143124D02*
X87207029Y-17190743D01*
X87207029Y-17190743D02*
X87254648Y-17238362D01*
X87254648Y-17238362D02*
X87302267Y-17333600D01*
X87302267Y-17333600D02*
X87302267Y-17619314D01*
X87302267Y-17619314D02*
X87254648Y-17714552D01*
X87254648Y-17714552D02*
X87207029Y-17762172D01*
X87207029Y-17762172D02*
X87111791Y-17809791D01*
X87111791Y-17809791D02*
X86921315Y-17809791D01*
X86921315Y-17809791D02*
X86826077Y-17762172D01*
X87730839Y-17809791D02*
X87730839Y-17143124D01*
X87730839Y-17333600D02*
X87778458Y-17238362D01*
X87778458Y-17238362D02*
X87826077Y-17190743D01*
X87826077Y-17190743D02*
X87921315Y-17143124D01*
X87921315Y-17143124D02*
X88016553Y-17143124D01*
X88778458Y-17809791D02*
X88778458Y-17285981D01*
X88778458Y-17285981D02*
X88730839Y-17190743D01*
X88730839Y-17190743D02*
X88635601Y-17143124D01*
X88635601Y-17143124D02*
X88445125Y-17143124D01*
X88445125Y-17143124D02*
X88349887Y-17190743D01*
X88778458Y-17762172D02*
X88683220Y-17809791D01*
X88683220Y-17809791D02*
X88445125Y-17809791D01*
X88445125Y-17809791D02*
X88349887Y-17762172D01*
X88349887Y-17762172D02*
X88302268Y-17666933D01*
X88302268Y-17666933D02*
X88302268Y-17571695D01*
X88302268Y-17571695D02*
X88349887Y-17476457D01*
X88349887Y-17476457D02*
X88445125Y-17428838D01*
X88445125Y-17428838D02*
X88683220Y-17428838D01*
X88683220Y-17428838D02*
X88778458Y-17381219D01*
X89921316Y-17143124D02*
X90159411Y-17809791D01*
X90159411Y-17809791D02*
X90397506Y-17143124D01*
X90968935Y-16809791D02*
X91064173Y-16809791D01*
X91064173Y-16809791D02*
X91159411Y-16857410D01*
X91159411Y-16857410D02*
X91207030Y-16905029D01*
X91207030Y-16905029D02*
X91254649Y-17000267D01*
X91254649Y-17000267D02*
X91302268Y-17190743D01*
X91302268Y-17190743D02*
X91302268Y-17428838D01*
X91302268Y-17428838D02*
X91254649Y-17619314D01*
X91254649Y-17619314D02*
X91207030Y-17714552D01*
X91207030Y-17714552D02*
X91159411Y-17762172D01*
X91159411Y-17762172D02*
X91064173Y-17809791D01*
X91064173Y-17809791D02*
X90968935Y-17809791D01*
X90968935Y-17809791D02*
X90873697Y-17762172D01*
X90873697Y-17762172D02*
X90826078Y-17714552D01*
X90826078Y-17714552D02*
X90778459Y-17619314D01*
X90778459Y-17619314D02*
X90730840Y-17428838D01*
X90730840Y-17428838D02*
X90730840Y-17190743D01*
X90730840Y-17190743D02*
X90778459Y-17000267D01*
X90778459Y-17000267D02*
X90826078Y-16905029D01*
X90826078Y-16905029D02*
X90873697Y-16857410D01*
X90873697Y-16857410D02*
X90968935Y-16809791D01*
X91730840Y-17714552D02*
X91778459Y-17762172D01*
X91778459Y-17762172D02*
X91730840Y-17809791D01*
X91730840Y-17809791D02*
X91683221Y-17762172D01*
X91683221Y-17762172D02*
X91730840Y-17714552D01*
X91730840Y-17714552D02*
X91730840Y-17809791D01*
X92111792Y-16809791D02*
X92730839Y-16809791D01*
X92730839Y-16809791D02*
X92397506Y-17190743D01*
X92397506Y-17190743D02*
X92540363Y-17190743D01*
X92540363Y-17190743D02*
X92635601Y-17238362D01*
X92635601Y-17238362D02*
X92683220Y-17285981D01*
X92683220Y-17285981D02*
X92730839Y-17381219D01*
X92730839Y-17381219D02*
X92730839Y-17619314D01*
X92730839Y-17619314D02*
X92683220Y-17714552D01*
X92683220Y-17714552D02*
X92635601Y-17762172D01*
X92635601Y-17762172D02*
X92540363Y-17809791D01*
X92540363Y-17809791D02*
X92254649Y-17809791D01*
X92254649Y-17809791D02*
X92159411Y-17762172D01*
X92159411Y-17762172D02*
X92111792Y-17714552D01*
X38028262Y-60042901D02*
X38171119Y-60090520D01*
X38171119Y-60090520D02*
X38409214Y-60090520D01*
X38409214Y-60090520D02*
X38504452Y-60042901D01*
X38504452Y-60042901D02*
X38552071Y-59995281D01*
X38552071Y-59995281D02*
X38599690Y-59900043D01*
X38599690Y-59900043D02*
X38599690Y-59804805D01*
X38599690Y-59804805D02*
X38552071Y-59709567D01*
X38552071Y-59709567D02*
X38504452Y-59661948D01*
X38504452Y-59661948D02*
X38409214Y-59614329D01*
X38409214Y-59614329D02*
X38218738Y-59566710D01*
X38218738Y-59566710D02*
X38123500Y-59519091D01*
X38123500Y-59519091D02*
X38075881Y-59471472D01*
X38075881Y-59471472D02*
X38028262Y-59376234D01*
X38028262Y-59376234D02*
X38028262Y-59280996D01*
X38028262Y-59280996D02*
X38075881Y-59185758D01*
X38075881Y-59185758D02*
X38123500Y-59138139D01*
X38123500Y-59138139D02*
X38218738Y-59090520D01*
X38218738Y-59090520D02*
X38456833Y-59090520D01*
X38456833Y-59090520D02*
X38599690Y-59138139D01*
X38933024Y-59090520D02*
X39171119Y-60090520D01*
X39171119Y-60090520D02*
X39361595Y-59376234D01*
X39361595Y-59376234D02*
X39552071Y-60090520D01*
X39552071Y-60090520D02*
X39790167Y-59090520D01*
X40123500Y-59185758D02*
X40171119Y-59138139D01*
X40171119Y-59138139D02*
X40266357Y-59090520D01*
X40266357Y-59090520D02*
X40504452Y-59090520D01*
X40504452Y-59090520D02*
X40599690Y-59138139D01*
X40599690Y-59138139D02*
X40647309Y-59185758D01*
X40647309Y-59185758D02*
X40694928Y-59280996D01*
X40694928Y-59280996D02*
X40694928Y-59376234D01*
X40694928Y-59376234D02*
X40647309Y-59519091D01*
X40647309Y-59519091D02*
X40075881Y-60090520D01*
X40075881Y-60090520D02*
X40694928Y-60090520D01*
X38396141Y-61187623D02*
X38062808Y-61187623D01*
X38062808Y-61711433D02*
X38062808Y-60711433D01*
X38062808Y-60711433D02*
X38538998Y-60711433D01*
X39062808Y-61711433D02*
X38967570Y-61663814D01*
X38967570Y-61663814D02*
X38919951Y-61568575D01*
X38919951Y-61568575D02*
X38919951Y-60711433D01*
X39872332Y-61711433D02*
X39872332Y-61187623D01*
X39872332Y-61187623D02*
X39824713Y-61092385D01*
X39824713Y-61092385D02*
X39729475Y-61044766D01*
X39729475Y-61044766D02*
X39538999Y-61044766D01*
X39538999Y-61044766D02*
X39443761Y-61092385D01*
X39872332Y-61663814D02*
X39777094Y-61711433D01*
X39777094Y-61711433D02*
X39538999Y-61711433D01*
X39538999Y-61711433D02*
X39443761Y-61663814D01*
X39443761Y-61663814D02*
X39396142Y-61568575D01*
X39396142Y-61568575D02*
X39396142Y-61473337D01*
X39396142Y-61473337D02*
X39443761Y-61378099D01*
X39443761Y-61378099D02*
X39538999Y-61330480D01*
X39538999Y-61330480D02*
X39777094Y-61330480D01*
X39777094Y-61330480D02*
X39872332Y-61282861D01*
X40300904Y-61663814D02*
X40396142Y-61711433D01*
X40396142Y-61711433D02*
X40586618Y-61711433D01*
X40586618Y-61711433D02*
X40681856Y-61663814D01*
X40681856Y-61663814D02*
X40729475Y-61568575D01*
X40729475Y-61568575D02*
X40729475Y-61520956D01*
X40729475Y-61520956D02*
X40681856Y-61425718D01*
X40681856Y-61425718D02*
X40586618Y-61378099D01*
X40586618Y-61378099D02*
X40443761Y-61378099D01*
X40443761Y-61378099D02*
X40348523Y-61330480D01*
X40348523Y-61330480D02*
X40300904Y-61235242D01*
X40300904Y-61235242D02*
X40300904Y-61187623D01*
X40300904Y-61187623D02*
X40348523Y-61092385D01*
X40348523Y-61092385D02*
X40443761Y-61044766D01*
X40443761Y-61044766D02*
X40586618Y-61044766D01*
X40586618Y-61044766D02*
X40681856Y-61092385D01*
X41158047Y-61711433D02*
X41158047Y-60711433D01*
X41586618Y-61711433D02*
X41586618Y-61187623D01*
X41586618Y-61187623D02*
X41538999Y-61092385D01*
X41538999Y-61092385D02*
X41443761Y-61044766D01*
X41443761Y-61044766D02*
X41300904Y-61044766D01*
X41300904Y-61044766D02*
X41205666Y-61092385D01*
X41205666Y-61092385D02*
X41158047Y-61140004D01*
X69313855Y-31618477D02*
X68313855Y-31618477D01*
X68313855Y-31618477D02*
X68313855Y-31380382D01*
X68313855Y-31380382D02*
X68361474Y-31237525D01*
X68361474Y-31237525D02*
X68456712Y-31142287D01*
X68456712Y-31142287D02*
X68551950Y-31094668D01*
X68551950Y-31094668D02*
X68742426Y-31047049D01*
X68742426Y-31047049D02*
X68885283Y-31047049D01*
X68885283Y-31047049D02*
X69075759Y-31094668D01*
X69075759Y-31094668D02*
X69170997Y-31142287D01*
X69170997Y-31142287D02*
X69266236Y-31237525D01*
X69266236Y-31237525D02*
X69313855Y-31380382D01*
X69313855Y-31380382D02*
X69313855Y-31618477D01*
X69313855Y-30094668D02*
X69313855Y-30666096D01*
X69313855Y-30380382D02*
X68313855Y-30380382D01*
X68313855Y-30380382D02*
X68456712Y-30475620D01*
X68456712Y-30475620D02*
X68551950Y-30570858D01*
X68551950Y-30570858D02*
X68599569Y-30666096D01*
X69504594Y-42699738D02*
X68504594Y-42699738D01*
X69504594Y-42128310D02*
X68933165Y-42556881D01*
X68504594Y-42128310D02*
X69076022Y-42699738D01*
X92109580Y-58626666D02*
X92157200Y-58674285D01*
X92157200Y-58674285D02*
X92204819Y-58817142D01*
X92204819Y-58817142D02*
X92204819Y-58912380D01*
X92204819Y-58912380D02*
X92157200Y-59055237D01*
X92157200Y-59055237D02*
X92061961Y-59150475D01*
X92061961Y-59150475D02*
X91966723Y-59198094D01*
X91966723Y-59198094D02*
X91776247Y-59245713D01*
X91776247Y-59245713D02*
X91633390Y-59245713D01*
X91633390Y-59245713D02*
X91442914Y-59198094D01*
X91442914Y-59198094D02*
X91347676Y-59150475D01*
X91347676Y-59150475D02*
X91252438Y-59055237D01*
X91252438Y-59055237D02*
X91204819Y-58912380D01*
X91204819Y-58912380D02*
X91204819Y-58817142D01*
X91204819Y-58817142D02*
X91252438Y-58674285D01*
X91252438Y-58674285D02*
X91300057Y-58626666D01*
X91204819Y-57721904D02*
X91204819Y-58198094D01*
X91204819Y-58198094D02*
X91681009Y-58245713D01*
X91681009Y-58245713D02*
X91633390Y-58198094D01*
X91633390Y-58198094D02*
X91585771Y-58102856D01*
X91585771Y-58102856D02*
X91585771Y-57864761D01*
X91585771Y-57864761D02*
X91633390Y-57769523D01*
X91633390Y-57769523D02*
X91681009Y-57721904D01*
X91681009Y-57721904D02*
X91776247Y-57674285D01*
X91776247Y-57674285D02*
X92014342Y-57674285D01*
X92014342Y-57674285D02*
X92109580Y-57721904D01*
X92109580Y-57721904D02*
X92157200Y-57769523D01*
X92157200Y-57769523D02*
X92204819Y-57864761D01*
X92204819Y-57864761D02*
X92204819Y-58102856D01*
X92204819Y-58102856D02*
X92157200Y-58198094D01*
X92157200Y-58198094D02*
X92109580Y-58245713D01*
X81593538Y-52871666D02*
X81117347Y-53204999D01*
X81593538Y-53443094D02*
X80593538Y-53443094D01*
X80593538Y-53443094D02*
X80593538Y-53062142D01*
X80593538Y-53062142D02*
X80641157Y-52966904D01*
X80641157Y-52966904D02*
X80688776Y-52919285D01*
X80688776Y-52919285D02*
X80784014Y-52871666D01*
X80784014Y-52871666D02*
X80926871Y-52871666D01*
X80926871Y-52871666D02*
X81022109Y-52919285D01*
X81022109Y-52919285D02*
X81069728Y-52966904D01*
X81069728Y-52966904D02*
X81117347Y-53062142D01*
X81117347Y-53062142D02*
X81117347Y-53443094D01*
X81022109Y-52300237D02*
X80974490Y-52395475D01*
X80974490Y-52395475D02*
X80926871Y-52443094D01*
X80926871Y-52443094D02*
X80831633Y-52490713D01*
X80831633Y-52490713D02*
X80784014Y-52490713D01*
X80784014Y-52490713D02*
X80688776Y-52443094D01*
X80688776Y-52443094D02*
X80641157Y-52395475D01*
X80641157Y-52395475D02*
X80593538Y-52300237D01*
X80593538Y-52300237D02*
X80593538Y-52109761D01*
X80593538Y-52109761D02*
X80641157Y-52014523D01*
X80641157Y-52014523D02*
X80688776Y-51966904D01*
X80688776Y-51966904D02*
X80784014Y-51919285D01*
X80784014Y-51919285D02*
X80831633Y-51919285D01*
X80831633Y-51919285D02*
X80926871Y-51966904D01*
X80926871Y-51966904D02*
X80974490Y-52014523D01*
X80974490Y-52014523D02*
X81022109Y-52109761D01*
X81022109Y-52109761D02*
X81022109Y-52300237D01*
X81022109Y-52300237D02*
X81069728Y-52395475D01*
X81069728Y-52395475D02*
X81117347Y-52443094D01*
X81117347Y-52443094D02*
X81212585Y-52490713D01*
X81212585Y-52490713D02*
X81403061Y-52490713D01*
X81403061Y-52490713D02*
X81498299Y-52443094D01*
X81498299Y-52443094D02*
X81545919Y-52395475D01*
X81545919Y-52395475D02*
X81593538Y-52300237D01*
X81593538Y-52300237D02*
X81593538Y-52109761D01*
X81593538Y-52109761D02*
X81545919Y-52014523D01*
X81545919Y-52014523D02*
X81498299Y-51966904D01*
X81498299Y-51966904D02*
X81403061Y-51919285D01*
X81403061Y-51919285D02*
X81212585Y-51919285D01*
X81212585Y-51919285D02*
X81117347Y-51966904D01*
X81117347Y-51966904D02*
X81069728Y-52014523D01*
X81069728Y-52014523D02*
X81022109Y-52109761D01*
X37194263Y-66859460D02*
X37099025Y-66811841D01*
X37099025Y-66811841D02*
X36956168Y-66811841D01*
X36956168Y-66811841D02*
X36813311Y-66859460D01*
X36813311Y-66859460D02*
X36718073Y-66954698D01*
X36718073Y-66954698D02*
X36670454Y-67049936D01*
X36670454Y-67049936D02*
X36622835Y-67240412D01*
X36622835Y-67240412D02*
X36622835Y-67383269D01*
X36622835Y-67383269D02*
X36670454Y-67573745D01*
X36670454Y-67573745D02*
X36718073Y-67668983D01*
X36718073Y-67668983D02*
X36813311Y-67764222D01*
X36813311Y-67764222D02*
X36956168Y-67811841D01*
X36956168Y-67811841D02*
X37051406Y-67811841D01*
X37051406Y-67811841D02*
X37194263Y-67764222D01*
X37194263Y-67764222D02*
X37241882Y-67716602D01*
X37241882Y-67716602D02*
X37241882Y-67383269D01*
X37241882Y-67383269D02*
X37051406Y-67383269D01*
X37670454Y-67811841D02*
X37670454Y-66811841D01*
X37670454Y-66811841D02*
X38241882Y-67811841D01*
X38241882Y-67811841D02*
X38241882Y-66811841D01*
X38718073Y-67811841D02*
X38718073Y-66811841D01*
X38718073Y-66811841D02*
X38956168Y-66811841D01*
X38956168Y-66811841D02*
X39099025Y-66859460D01*
X39099025Y-66859460D02*
X39194263Y-66954698D01*
X39194263Y-66954698D02*
X39241882Y-67049936D01*
X39241882Y-67049936D02*
X39289501Y-67240412D01*
X39289501Y-67240412D02*
X39289501Y-67383269D01*
X39289501Y-67383269D02*
X39241882Y-67573745D01*
X39241882Y-67573745D02*
X39194263Y-67668983D01*
X39194263Y-67668983D02*
X39099025Y-67764222D01*
X39099025Y-67764222D02*
X38956168Y-67811841D01*
X38956168Y-67811841D02*
X38718073Y-67811841D01*
X38124371Y-19974819D02*
X38124371Y-20689104D01*
X38124371Y-20689104D02*
X38076752Y-20831961D01*
X38076752Y-20831961D02*
X37981514Y-20927200D01*
X37981514Y-20927200D02*
X37838657Y-20974819D01*
X37838657Y-20974819D02*
X37743419Y-20974819D01*
X39029133Y-20308152D02*
X39029133Y-20974819D01*
X38791038Y-19927200D02*
X38552943Y-20641485D01*
X38552943Y-20641485D02*
X39171990Y-20641485D01*
X39644618Y-66811841D02*
X40263665Y-66811841D01*
X40263665Y-66811841D02*
X39930332Y-67192793D01*
X39930332Y-67192793D02*
X40073189Y-67192793D01*
X40073189Y-67192793D02*
X40168427Y-67240412D01*
X40168427Y-67240412D02*
X40216046Y-67288031D01*
X40216046Y-67288031D02*
X40263665Y-67383269D01*
X40263665Y-67383269D02*
X40263665Y-67621364D01*
X40263665Y-67621364D02*
X40216046Y-67716602D01*
X40216046Y-67716602D02*
X40168427Y-67764222D01*
X40168427Y-67764222D02*
X40073189Y-67811841D01*
X40073189Y-67811841D02*
X39787475Y-67811841D01*
X39787475Y-67811841D02*
X39692237Y-67764222D01*
X39692237Y-67764222D02*
X39644618Y-67716602D01*
X40692237Y-67716602D02*
X40739856Y-67764222D01*
X40739856Y-67764222D02*
X40692237Y-67811841D01*
X40692237Y-67811841D02*
X40644618Y-67764222D01*
X40644618Y-67764222D02*
X40692237Y-67716602D01*
X40692237Y-67716602D02*
X40692237Y-67811841D01*
X41073189Y-66811841D02*
X41692236Y-66811841D01*
X41692236Y-66811841D02*
X41358903Y-67192793D01*
X41358903Y-67192793D02*
X41501760Y-67192793D01*
X41501760Y-67192793D02*
X41596998Y-67240412D01*
X41596998Y-67240412D02*
X41644617Y-67288031D01*
X41644617Y-67288031D02*
X41692236Y-67383269D01*
X41692236Y-67383269D02*
X41692236Y-67621364D01*
X41692236Y-67621364D02*
X41644617Y-67716602D01*
X41644617Y-67716602D02*
X41596998Y-67764222D01*
X41596998Y-67764222D02*
X41501760Y-67811841D01*
X41501760Y-67811841D02*
X41216046Y-67811841D01*
X41216046Y-67811841D02*
X41120808Y-67764222D01*
X41120808Y-67764222D02*
X41073189Y-67716602D01*
X41977951Y-66811841D02*
X42311284Y-67811841D01*
X42311284Y-67811841D02*
X42644617Y-66811841D01*
X41866495Y-16459332D02*
X42676018Y-16459332D01*
X42676018Y-16459332D02*
X42771256Y-16411713D01*
X42771256Y-16411713D02*
X42818876Y-16364094D01*
X42818876Y-16364094D02*
X42866495Y-16268856D01*
X42866495Y-16268856D02*
X42866495Y-16078380D01*
X42866495Y-16078380D02*
X42818876Y-15983142D01*
X42818876Y-15983142D02*
X42771256Y-15935523D01*
X42771256Y-15935523D02*
X42676018Y-15887904D01*
X42676018Y-15887904D02*
X41866495Y-15887904D01*
X41961733Y-15459332D02*
X41914114Y-15411713D01*
X41914114Y-15411713D02*
X41866495Y-15316475D01*
X41866495Y-15316475D02*
X41866495Y-15078380D01*
X41866495Y-15078380D02*
X41914114Y-14983142D01*
X41914114Y-14983142D02*
X41961733Y-14935523D01*
X41961733Y-14935523D02*
X42056971Y-14887904D01*
X42056971Y-14887904D02*
X42152209Y-14887904D01*
X42152209Y-14887904D02*
X42295066Y-14935523D01*
X42295066Y-14935523D02*
X42866495Y-15506951D01*
X42866495Y-15506951D02*
X42866495Y-14887904D01*
X52411904Y-20148152D02*
X52411904Y-20814819D01*
X52173809Y-19767200D02*
X51935714Y-20481485D01*
X51935714Y-20481485D02*
X52554761Y-20481485D01*
X53126190Y-19814819D02*
X53221428Y-19814819D01*
X53221428Y-19814819D02*
X53316666Y-19862438D01*
X53316666Y-19862438D02*
X53364285Y-19910057D01*
X53364285Y-19910057D02*
X53411904Y-20005295D01*
X53411904Y-20005295D02*
X53459523Y-20195771D01*
X53459523Y-20195771D02*
X53459523Y-20433866D01*
X53459523Y-20433866D02*
X53411904Y-20624342D01*
X53411904Y-20624342D02*
X53364285Y-20719580D01*
X53364285Y-20719580D02*
X53316666Y-20767200D01*
X53316666Y-20767200D02*
X53221428Y-20814819D01*
X53221428Y-20814819D02*
X53126190Y-20814819D01*
X53126190Y-20814819D02*
X53030952Y-20767200D01*
X53030952Y-20767200D02*
X52983333Y-20719580D01*
X52983333Y-20719580D02*
X52935714Y-20624342D01*
X52935714Y-20624342D02*
X52888095Y-20433866D01*
X52888095Y-20433866D02*
X52888095Y-20195771D01*
X52888095Y-20195771D02*
X52935714Y-20005295D01*
X52935714Y-20005295D02*
X52983333Y-19910057D01*
X52983333Y-19910057D02*
X53030952Y-19862438D01*
X53030952Y-19862438D02*
X53126190Y-19814819D01*
X54364285Y-19814819D02*
X53888095Y-19814819D01*
X53888095Y-19814819D02*
X53840476Y-20291009D01*
X53840476Y-20291009D02*
X53888095Y-20243390D01*
X53888095Y-20243390D02*
X53983333Y-20195771D01*
X53983333Y-20195771D02*
X54221428Y-20195771D01*
X54221428Y-20195771D02*
X54316666Y-20243390D01*
X54316666Y-20243390D02*
X54364285Y-20291009D01*
X54364285Y-20291009D02*
X54411904Y-20386247D01*
X54411904Y-20386247D02*
X54411904Y-20624342D01*
X54411904Y-20624342D02*
X54364285Y-20719580D01*
X54364285Y-20719580D02*
X54316666Y-20767200D01*
X54316666Y-20767200D02*
X54221428Y-20814819D01*
X54221428Y-20814819D02*
X53983333Y-20814819D01*
X53983333Y-20814819D02*
X53888095Y-20767200D01*
X53888095Y-20767200D02*
X53840476Y-20719580D01*
X55030952Y-19814819D02*
X55126190Y-19814819D01*
X55126190Y-19814819D02*
X55221428Y-19862438D01*
X55221428Y-19862438D02*
X55269047Y-19910057D01*
X55269047Y-19910057D02*
X55316666Y-20005295D01*
X55316666Y-20005295D02*
X55364285Y-20195771D01*
X55364285Y-20195771D02*
X55364285Y-20433866D01*
X55364285Y-20433866D02*
X55316666Y-20624342D01*
X55316666Y-20624342D02*
X55269047Y-20719580D01*
X55269047Y-20719580D02*
X55221428Y-20767200D01*
X55221428Y-20767200D02*
X55126190Y-20814819D01*
X55126190Y-20814819D02*
X55030952Y-20814819D01*
X55030952Y-20814819D02*
X54935714Y-20767200D01*
X54935714Y-20767200D02*
X54888095Y-20719580D01*
X54888095Y-20719580D02*
X54840476Y-20624342D01*
X54840476Y-20624342D02*
X54792857Y-20433866D01*
X54792857Y-20433866D02*
X54792857Y-20195771D01*
X54792857Y-20195771D02*
X54840476Y-20005295D01*
X54840476Y-20005295D02*
X54888095Y-19910057D01*
X54888095Y-19910057D02*
X54935714Y-19862438D01*
X54935714Y-19862438D02*
X55030952Y-19814819D01*
X24164284Y-65545730D02*
X24878569Y-65545730D01*
X24878569Y-65545730D02*
X25021426Y-65593349D01*
X25021426Y-65593349D02*
X25116665Y-65688587D01*
X25116665Y-65688587D02*
X25164284Y-65831444D01*
X25164284Y-65831444D02*
X25164284Y-65926682D01*
X24164284Y-64593349D02*
X24164284Y-65069539D01*
X24164284Y-65069539D02*
X24640474Y-65117158D01*
X24640474Y-65117158D02*
X24592855Y-65069539D01*
X24592855Y-65069539D02*
X24545236Y-64974301D01*
X24545236Y-64974301D02*
X24545236Y-64736206D01*
X24545236Y-64736206D02*
X24592855Y-64640968D01*
X24592855Y-64640968D02*
X24640474Y-64593349D01*
X24640474Y-64593349D02*
X24735712Y-64545730D01*
X24735712Y-64545730D02*
X24973807Y-64545730D01*
X24973807Y-64545730D02*
X25069045Y-64593349D01*
X25069045Y-64593349D02*
X25116665Y-64640968D01*
X25116665Y-64640968D02*
X25164284Y-64736206D01*
X25164284Y-64736206D02*
X25164284Y-64974301D01*
X25164284Y-64974301D02*
X25116665Y-65069539D01*
X25116665Y-65069539D02*
X25069045Y-65117158D01*
X65804115Y-47897311D02*
X66518400Y-47897311D01*
X66518400Y-47897311D02*
X66661257Y-47944930D01*
X66661257Y-47944930D02*
X66756496Y-48040168D01*
X66756496Y-48040168D02*
X66804115Y-48183025D01*
X66804115Y-48183025D02*
X66804115Y-48278263D01*
X65804115Y-46992549D02*
X65804115Y-47183025D01*
X65804115Y-47183025D02*
X65851734Y-47278263D01*
X65851734Y-47278263D02*
X65899353Y-47325882D01*
X65899353Y-47325882D02*
X66042210Y-47421120D01*
X66042210Y-47421120D02*
X66232686Y-47468739D01*
X66232686Y-47468739D02*
X66613638Y-47468739D01*
X66613638Y-47468739D02*
X66708876Y-47421120D01*
X66708876Y-47421120D02*
X66756496Y-47373501D01*
X66756496Y-47373501D02*
X66804115Y-47278263D01*
X66804115Y-47278263D02*
X66804115Y-47087787D01*
X66804115Y-47087787D02*
X66756496Y-46992549D01*
X66756496Y-46992549D02*
X66708876Y-46944930D01*
X66708876Y-46944930D02*
X66613638Y-46897311D01*
X66613638Y-46897311D02*
X66375543Y-46897311D01*
X66375543Y-46897311D02*
X66280305Y-46944930D01*
X66280305Y-46944930D02*
X66232686Y-46992549D01*
X66232686Y-46992549D02*
X66185067Y-47087787D01*
X66185067Y-47087787D02*
X66185067Y-47278263D01*
X66185067Y-47278263D02*
X66232686Y-47373501D01*
X66232686Y-47373501D02*
X66280305Y-47421120D01*
X66280305Y-47421120D02*
X66375543Y-47468739D01*
X86132550Y-53443094D02*
X85132550Y-53443094D01*
X85132550Y-53443094D02*
X85132550Y-53204999D01*
X85132550Y-53204999D02*
X85180169Y-53062142D01*
X85180169Y-53062142D02*
X85275407Y-52966904D01*
X85275407Y-52966904D02*
X85370645Y-52919285D01*
X85370645Y-52919285D02*
X85561121Y-52871666D01*
X85561121Y-52871666D02*
X85703978Y-52871666D01*
X85703978Y-52871666D02*
X85894454Y-52919285D01*
X85894454Y-52919285D02*
X85989692Y-52966904D01*
X85989692Y-52966904D02*
X86084931Y-53062142D01*
X86084931Y-53062142D02*
X86132550Y-53204999D01*
X86132550Y-53204999D02*
X86132550Y-53443094D01*
X85132550Y-52538332D02*
X85132550Y-51919285D01*
X85132550Y-51919285D02*
X85513502Y-52252618D01*
X85513502Y-52252618D02*
X85513502Y-52109761D01*
X85513502Y-52109761D02*
X85561121Y-52014523D01*
X85561121Y-52014523D02*
X85608740Y-51966904D01*
X85608740Y-51966904D02*
X85703978Y-51919285D01*
X85703978Y-51919285D02*
X85942073Y-51919285D01*
X85942073Y-51919285D02*
X86037311Y-51966904D01*
X86037311Y-51966904D02*
X86084931Y-52014523D01*
X86084931Y-52014523D02*
X86132550Y-52109761D01*
X86132550Y-52109761D02*
X86132550Y-52395475D01*
X86132550Y-52395475D02*
X86084931Y-52490713D01*
X86084931Y-52490713D02*
X86037311Y-52538332D01*
X81777307Y-55621365D02*
X81777307Y-55145175D01*
X82063022Y-55716603D02*
X81063022Y-55383270D01*
X81063022Y-55383270D02*
X82063022Y-55049937D01*
X66055331Y-63782042D02*
X66102951Y-63829661D01*
X66102951Y-63829661D02*
X66150570Y-63972518D01*
X66150570Y-63972518D02*
X66150570Y-64067756D01*
X66150570Y-64067756D02*
X66102951Y-64210613D01*
X66102951Y-64210613D02*
X66007712Y-64305851D01*
X66007712Y-64305851D02*
X65912474Y-64353470D01*
X65912474Y-64353470D02*
X65721998Y-64401089D01*
X65721998Y-64401089D02*
X65579141Y-64401089D01*
X65579141Y-64401089D02*
X65388665Y-64353470D01*
X65388665Y-64353470D02*
X65293427Y-64305851D01*
X65293427Y-64305851D02*
X65198189Y-64210613D01*
X65198189Y-64210613D02*
X65150570Y-64067756D01*
X65150570Y-64067756D02*
X65150570Y-63972518D01*
X65150570Y-63972518D02*
X65198189Y-63829661D01*
X65198189Y-63829661D02*
X65245808Y-63782042D01*
X65150570Y-62924899D02*
X65150570Y-63115375D01*
X65150570Y-63115375D02*
X65198189Y-63210613D01*
X65198189Y-63210613D02*
X65245808Y-63258232D01*
X65245808Y-63258232D02*
X65388665Y-63353470D01*
X65388665Y-63353470D02*
X65579141Y-63401089D01*
X65579141Y-63401089D02*
X65960093Y-63401089D01*
X65960093Y-63401089D02*
X66055331Y-63353470D01*
X66055331Y-63353470D02*
X66102951Y-63305851D01*
X66102951Y-63305851D02*
X66150570Y-63210613D01*
X66150570Y-63210613D02*
X66150570Y-63020137D01*
X66150570Y-63020137D02*
X66102951Y-62924899D01*
X66102951Y-62924899D02*
X66055331Y-62877280D01*
X66055331Y-62877280D02*
X65960093Y-62829661D01*
X65960093Y-62829661D02*
X65721998Y-62829661D01*
X65721998Y-62829661D02*
X65626760Y-62877280D01*
X65626760Y-62877280D02*
X65579141Y-62924899D01*
X65579141Y-62924899D02*
X65531522Y-63020137D01*
X65531522Y-63020137D02*
X65531522Y-63210613D01*
X65531522Y-63210613D02*
X65579141Y-63305851D01*
X65579141Y-63305851D02*
X65626760Y-63353470D01*
X65626760Y-63353470D02*
X65721998Y-63401089D01*
X51767232Y-28339580D02*
X51719613Y-28387200D01*
X51719613Y-28387200D02*
X51576756Y-28434819D01*
X51576756Y-28434819D02*
X51481518Y-28434819D01*
X51481518Y-28434819D02*
X51338661Y-28387200D01*
X51338661Y-28387200D02*
X51243423Y-28291961D01*
X51243423Y-28291961D02*
X51195804Y-28196723D01*
X51195804Y-28196723D02*
X51148185Y-28006247D01*
X51148185Y-28006247D02*
X51148185Y-27863390D01*
X51148185Y-27863390D02*
X51195804Y-27672914D01*
X51195804Y-27672914D02*
X51243423Y-27577676D01*
X51243423Y-27577676D02*
X51338661Y-27482438D01*
X51338661Y-27482438D02*
X51481518Y-27434819D01*
X51481518Y-27434819D02*
X51576756Y-27434819D01*
X51576756Y-27434819D02*
X51719613Y-27482438D01*
X51719613Y-27482438D02*
X51767232Y-27530057D01*
X52624375Y-27768152D02*
X52624375Y-28434819D01*
X52386280Y-27387200D02*
X52148185Y-28101485D01*
X52148185Y-28101485D02*
X52767232Y-28101485D01*
X15672323Y-57872120D02*
X15338990Y-57395929D01*
X15100895Y-57872120D02*
X15100895Y-56872120D01*
X15100895Y-56872120D02*
X15481847Y-56872120D01*
X15481847Y-56872120D02*
X15577085Y-56919739D01*
X15577085Y-56919739D02*
X15624704Y-56967358D01*
X15624704Y-56967358D02*
X15672323Y-57062596D01*
X15672323Y-57062596D02*
X15672323Y-57205453D01*
X15672323Y-57205453D02*
X15624704Y-57300691D01*
X15624704Y-57300691D02*
X15577085Y-57348310D01*
X15577085Y-57348310D02*
X15481847Y-57395929D01*
X15481847Y-57395929D02*
X15100895Y-57395929D01*
X16529466Y-56872120D02*
X16338990Y-56872120D01*
X16338990Y-56872120D02*
X16243752Y-56919739D01*
X16243752Y-56919739D02*
X16196133Y-56967358D01*
X16196133Y-56967358D02*
X16100895Y-57110215D01*
X16100895Y-57110215D02*
X16053276Y-57300691D01*
X16053276Y-57300691D02*
X16053276Y-57681643D01*
X16053276Y-57681643D02*
X16100895Y-57776881D01*
X16100895Y-57776881D02*
X16148514Y-57824501D01*
X16148514Y-57824501D02*
X16243752Y-57872120D01*
X16243752Y-57872120D02*
X16434228Y-57872120D01*
X16434228Y-57872120D02*
X16529466Y-57824501D01*
X16529466Y-57824501D02*
X16577085Y-57776881D01*
X16577085Y-57776881D02*
X16624704Y-57681643D01*
X16624704Y-57681643D02*
X16624704Y-57443548D01*
X16624704Y-57443548D02*
X16577085Y-57348310D01*
X16577085Y-57348310D02*
X16529466Y-57300691D01*
X16529466Y-57300691D02*
X16434228Y-57253072D01*
X16434228Y-57253072D02*
X16243752Y-57253072D01*
X16243752Y-57253072D02*
X16148514Y-57300691D01*
X16148514Y-57300691D02*
X16100895Y-57348310D01*
X16100895Y-57348310D02*
X16053276Y-57443548D01*
X20649245Y-31988822D02*
X20315912Y-31512631D01*
X20077817Y-31988822D02*
X20077817Y-30988822D01*
X20077817Y-30988822D02*
X20458769Y-30988822D01*
X20458769Y-30988822D02*
X20554007Y-31036441D01*
X20554007Y-31036441D02*
X20601626Y-31084060D01*
X20601626Y-31084060D02*
X20649245Y-31179298D01*
X20649245Y-31179298D02*
X20649245Y-31322155D01*
X20649245Y-31322155D02*
X20601626Y-31417393D01*
X20601626Y-31417393D02*
X20554007Y-31465012D01*
X20554007Y-31465012D02*
X20458769Y-31512631D01*
X20458769Y-31512631D02*
X20077817Y-31512631D01*
X20982579Y-30988822D02*
X21601626Y-30988822D01*
X21601626Y-30988822D02*
X21268293Y-31369774D01*
X21268293Y-31369774D02*
X21411150Y-31369774D01*
X21411150Y-31369774D02*
X21506388Y-31417393D01*
X21506388Y-31417393D02*
X21554007Y-31465012D01*
X21554007Y-31465012D02*
X21601626Y-31560250D01*
X21601626Y-31560250D02*
X21601626Y-31798345D01*
X21601626Y-31798345D02*
X21554007Y-31893583D01*
X21554007Y-31893583D02*
X21506388Y-31941203D01*
X21506388Y-31941203D02*
X21411150Y-31988822D01*
X21411150Y-31988822D02*
X21125436Y-31988822D01*
X21125436Y-31988822D02*
X21030198Y-31941203D01*
X21030198Y-31941203D02*
X20982579Y-31893583D01*
X15708545Y-61546682D02*
X15375212Y-61070491D01*
X15137117Y-61546682D02*
X15137117Y-60546682D01*
X15137117Y-60546682D02*
X15518069Y-60546682D01*
X15518069Y-60546682D02*
X15613307Y-60594301D01*
X15613307Y-60594301D02*
X15660926Y-60641920D01*
X15660926Y-60641920D02*
X15708545Y-60737158D01*
X15708545Y-60737158D02*
X15708545Y-60880015D01*
X15708545Y-60880015D02*
X15660926Y-60975253D01*
X15660926Y-60975253D02*
X15613307Y-61022872D01*
X15613307Y-61022872D02*
X15518069Y-61070491D01*
X15518069Y-61070491D02*
X15137117Y-61070491D01*
X16089498Y-60641920D02*
X16137117Y-60594301D01*
X16137117Y-60594301D02*
X16232355Y-60546682D01*
X16232355Y-60546682D02*
X16470450Y-60546682D01*
X16470450Y-60546682D02*
X16565688Y-60594301D01*
X16565688Y-60594301D02*
X16613307Y-60641920D01*
X16613307Y-60641920D02*
X16660926Y-60737158D01*
X16660926Y-60737158D02*
X16660926Y-60832396D01*
X16660926Y-60832396D02*
X16613307Y-60975253D01*
X16613307Y-60975253D02*
X16041879Y-61546682D01*
X16041879Y-61546682D02*
X16660926Y-61546682D01*
X55672695Y-54852320D02*
X56482218Y-54852320D01*
X56482218Y-54852320D02*
X56577456Y-54804701D01*
X56577456Y-54804701D02*
X56625076Y-54757082D01*
X56625076Y-54757082D02*
X56672695Y-54661844D01*
X56672695Y-54661844D02*
X56672695Y-54471368D01*
X56672695Y-54471368D02*
X56625076Y-54376130D01*
X56625076Y-54376130D02*
X56577456Y-54328511D01*
X56577456Y-54328511D02*
X56482218Y-54280892D01*
X56482218Y-54280892D02*
X55672695Y-54280892D01*
X56006028Y-53376130D02*
X56672695Y-53376130D01*
X55625076Y-53614225D02*
X56339361Y-53852320D01*
X56339361Y-53852320D02*
X56339361Y-53233273D01*
D11*
X50360330Y-45976129D02*
X50317473Y-46061844D01*
X50317473Y-46061844D02*
X50317473Y-46190415D01*
X50317473Y-46190415D02*
X50360330Y-46318986D01*
X50360330Y-46318986D02*
X50446044Y-46404701D01*
X50446044Y-46404701D02*
X50531758Y-46447558D01*
X50531758Y-46447558D02*
X50703187Y-46490415D01*
X50703187Y-46490415D02*
X50831758Y-46490415D01*
X50831758Y-46490415D02*
X51003187Y-46447558D01*
X51003187Y-46447558D02*
X51088901Y-46404701D01*
X51088901Y-46404701D02*
X51174616Y-46318986D01*
X51174616Y-46318986D02*
X51217473Y-46190415D01*
X51217473Y-46190415D02*
X51217473Y-46104701D01*
X51217473Y-46104701D02*
X51174616Y-45976129D01*
X51174616Y-45976129D02*
X51131758Y-45933272D01*
X51131758Y-45933272D02*
X50831758Y-45933272D01*
X50831758Y-45933272D02*
X50831758Y-46104701D01*
X51217473Y-45547558D02*
X50317473Y-45547558D01*
X50317473Y-45547558D02*
X51217473Y-45033272D01*
X51217473Y-45033272D02*
X50317473Y-45033272D01*
X51217473Y-44604701D02*
X50317473Y-44604701D01*
X50317473Y-44604701D02*
X50317473Y-44390415D01*
X50317473Y-44390415D02*
X50360330Y-44261844D01*
X50360330Y-44261844D02*
X50446044Y-44176129D01*
X50446044Y-44176129D02*
X50531758Y-44133272D01*
X50531758Y-44133272D02*
X50703187Y-44090415D01*
X50703187Y-44090415D02*
X50831758Y-44090415D01*
X50831758Y-44090415D02*
X51003187Y-44133272D01*
X51003187Y-44133272D02*
X51088901Y-44176129D01*
X51088901Y-44176129D02*
X51174616Y-44261844D01*
X51174616Y-44261844D02*
X51217473Y-44390415D01*
X51217473Y-44390415D02*
X51217473Y-44604701D01*
X50360330Y-63576129D02*
X50317473Y-63661844D01*
X50317473Y-63661844D02*
X50317473Y-63790415D01*
X50317473Y-63790415D02*
X50360330Y-63918986D01*
X50360330Y-63918986D02*
X50446044Y-64004701D01*
X50446044Y-64004701D02*
X50531758Y-64047558D01*
X50531758Y-64047558D02*
X50703187Y-64090415D01*
X50703187Y-64090415D02*
X50831758Y-64090415D01*
X50831758Y-64090415D02*
X51003187Y-64047558D01*
X51003187Y-64047558D02*
X51088901Y-64004701D01*
X51088901Y-64004701D02*
X51174616Y-63918986D01*
X51174616Y-63918986D02*
X51217473Y-63790415D01*
X51217473Y-63790415D02*
X51217473Y-63704701D01*
X51217473Y-63704701D02*
X51174616Y-63576129D01*
X51174616Y-63576129D02*
X51131758Y-63533272D01*
X51131758Y-63533272D02*
X50831758Y-63533272D01*
X50831758Y-63533272D02*
X50831758Y-63704701D01*
X51217473Y-63147558D02*
X50317473Y-63147558D01*
X50317473Y-63147558D02*
X51217473Y-62633272D01*
X51217473Y-62633272D02*
X50317473Y-62633272D01*
X51217473Y-62204701D02*
X50317473Y-62204701D01*
X50317473Y-62204701D02*
X50317473Y-61990415D01*
X50317473Y-61990415D02*
X50360330Y-61861844D01*
X50360330Y-61861844D02*
X50446044Y-61776129D01*
X50446044Y-61776129D02*
X50531758Y-61733272D01*
X50531758Y-61733272D02*
X50703187Y-61690415D01*
X50703187Y-61690415D02*
X50831758Y-61690415D01*
X50831758Y-61690415D02*
X51003187Y-61733272D01*
X51003187Y-61733272D02*
X51088901Y-61776129D01*
X51088901Y-61776129D02*
X51174616Y-61861844D01*
X51174616Y-61861844D02*
X51217473Y-61990415D01*
X51217473Y-61990415D02*
X51217473Y-62204701D01*
D12*
X53581731Y-59957083D02*
X53581731Y-60338035D01*
X53581731Y-60338035D02*
X52781731Y-60338035D01*
X53581731Y-59576131D02*
X53543636Y-59652321D01*
X53543636Y-59652321D02*
X53505540Y-59690416D01*
X53505540Y-59690416D02*
X53429350Y-59728512D01*
X53429350Y-59728512D02*
X53200778Y-59728512D01*
X53200778Y-59728512D02*
X53124588Y-59690416D01*
X53124588Y-59690416D02*
X53086493Y-59652321D01*
X53086493Y-59652321D02*
X53048397Y-59576131D01*
X53048397Y-59576131D02*
X53048397Y-59461845D01*
X53048397Y-59461845D02*
X53086493Y-59385654D01*
X53086493Y-59385654D02*
X53124588Y-59347559D01*
X53124588Y-59347559D02*
X53200778Y-59309464D01*
X53200778Y-59309464D02*
X53429350Y-59309464D01*
X53429350Y-59309464D02*
X53505540Y-59347559D01*
X53505540Y-59347559D02*
X53543636Y-59385654D01*
X53543636Y-59385654D02*
X53581731Y-59461845D01*
X53581731Y-59461845D02*
X53581731Y-59576131D01*
X53543636Y-58661844D02*
X53581731Y-58738035D01*
X53581731Y-58738035D02*
X53581731Y-58890416D01*
X53581731Y-58890416D02*
X53543636Y-58966606D01*
X53543636Y-58966606D02*
X53467445Y-59004702D01*
X53467445Y-59004702D02*
X53162683Y-59004702D01*
X53162683Y-59004702D02*
X53086493Y-58966606D01*
X53086493Y-58966606D02*
X53048397Y-58890416D01*
X53048397Y-58890416D02*
X53048397Y-58738035D01*
X53048397Y-58738035D02*
X53086493Y-58661844D01*
X53086493Y-58661844D02*
X53162683Y-58623749D01*
X53162683Y-58623749D02*
X53238874Y-58623749D01*
X53238874Y-58623749D02*
X53315064Y-59004702D01*
X53048397Y-58395178D02*
X53048397Y-58090416D01*
X52781731Y-58280892D02*
X53467445Y-58280892D01*
X53467445Y-58280892D02*
X53543636Y-58242797D01*
X53543636Y-58242797D02*
X53581731Y-58166607D01*
X53581731Y-58166607D02*
X53581731Y-58090416D01*
X53581731Y-57823749D02*
X52781731Y-57823749D01*
X53086493Y-57823749D02*
X53048397Y-57747559D01*
X53048397Y-57747559D02*
X53048397Y-57595178D01*
X53048397Y-57595178D02*
X53086493Y-57518987D01*
X53086493Y-57518987D02*
X53124588Y-57480892D01*
X53124588Y-57480892D02*
X53200778Y-57442797D01*
X53200778Y-57442797D02*
X53429350Y-57442797D01*
X53429350Y-57442797D02*
X53505540Y-57480892D01*
X53505540Y-57480892D02*
X53543636Y-57518987D01*
X53543636Y-57518987D02*
X53581731Y-57595178D01*
X53581731Y-57595178D02*
X53581731Y-57747559D01*
X53581731Y-57747559D02*
X53543636Y-57823749D01*
X53581731Y-57099939D02*
X53048397Y-57099939D01*
X53200778Y-57099939D02*
X53124588Y-57061844D01*
X53124588Y-57061844D02*
X53086493Y-57023749D01*
X53086493Y-57023749D02*
X53048397Y-56947558D01*
X53048397Y-56947558D02*
X53048397Y-56871368D01*
X53048397Y-56261844D02*
X53581731Y-56261844D01*
X53048397Y-56604701D02*
X53467445Y-56604701D01*
X53467445Y-56604701D02*
X53543636Y-56566606D01*
X53543636Y-56566606D02*
X53581731Y-56490416D01*
X53581731Y-56490416D02*
X53581731Y-56376130D01*
X53581731Y-56376130D02*
X53543636Y-56299939D01*
X53543636Y-56299939D02*
X53505540Y-56261844D01*
X53543636Y-55576129D02*
X53581731Y-55652320D01*
X53581731Y-55652320D02*
X53581731Y-55804701D01*
X53581731Y-55804701D02*
X53543636Y-55880891D01*
X53543636Y-55880891D02*
X53467445Y-55918987D01*
X53467445Y-55918987D02*
X53162683Y-55918987D01*
X53162683Y-55918987D02*
X53086493Y-55880891D01*
X53086493Y-55880891D02*
X53048397Y-55804701D01*
X53048397Y-55804701D02*
X53048397Y-55652320D01*
X53048397Y-55652320D02*
X53086493Y-55576129D01*
X53086493Y-55576129D02*
X53162683Y-55538034D01*
X53162683Y-55538034D02*
X53238874Y-55538034D01*
X53238874Y-55538034D02*
X53315064Y-55918987D01*
X53543636Y-54852320D02*
X53581731Y-54928511D01*
X53581731Y-54928511D02*
X53581731Y-55080892D01*
X53581731Y-55080892D02*
X53543636Y-55157082D01*
X53543636Y-55157082D02*
X53505540Y-55195177D01*
X53505540Y-55195177D02*
X53429350Y-55233273D01*
X53429350Y-55233273D02*
X53200778Y-55233273D01*
X53200778Y-55233273D02*
X53124588Y-55195177D01*
X53124588Y-55195177D02*
X53086493Y-55157082D01*
X53086493Y-55157082D02*
X53048397Y-55080892D01*
X53048397Y-55080892D02*
X53048397Y-54928511D01*
X53048397Y-54928511D02*
X53086493Y-54852320D01*
X53581731Y-54509463D02*
X52781731Y-54509463D01*
X53276969Y-54433273D02*
X53581731Y-54204701D01*
X53048397Y-54204701D02*
X53353159Y-54509463D01*
X53543636Y-53557082D02*
X53581731Y-53633273D01*
X53581731Y-53633273D02*
X53581731Y-53785654D01*
X53581731Y-53785654D02*
X53543636Y-53861844D01*
X53543636Y-53861844D02*
X53467445Y-53899940D01*
X53467445Y-53899940D02*
X53162683Y-53899940D01*
X53162683Y-53899940D02*
X53086493Y-53861844D01*
X53086493Y-53861844D02*
X53048397Y-53785654D01*
X53048397Y-53785654D02*
X53048397Y-53633273D01*
X53048397Y-53633273D02*
X53086493Y-53557082D01*
X53086493Y-53557082D02*
X53162683Y-53518987D01*
X53162683Y-53518987D02*
X53238874Y-53518987D01*
X53238874Y-53518987D02*
X53315064Y-53899940D01*
X53581731Y-52223749D02*
X53162683Y-52223749D01*
X53162683Y-52223749D02*
X53086493Y-52261844D01*
X53086493Y-52261844D02*
X53048397Y-52338035D01*
X53048397Y-52338035D02*
X53048397Y-52490416D01*
X53048397Y-52490416D02*
X53086493Y-52566606D01*
X53543636Y-52223749D02*
X53581731Y-52299940D01*
X53581731Y-52299940D02*
X53581731Y-52490416D01*
X53581731Y-52490416D02*
X53543636Y-52566606D01*
X53543636Y-52566606D02*
X53467445Y-52604702D01*
X53467445Y-52604702D02*
X53391255Y-52604702D01*
X53391255Y-52604702D02*
X53315064Y-52566606D01*
X53315064Y-52566606D02*
X53276969Y-52490416D01*
X53276969Y-52490416D02*
X53276969Y-52299940D01*
X53276969Y-52299940D02*
X53238874Y-52223749D01*
X53048397Y-51499939D02*
X53581731Y-51499939D01*
X53048397Y-51842796D02*
X53467445Y-51842796D01*
X53467445Y-51842796D02*
X53543636Y-51804701D01*
X53543636Y-51804701D02*
X53581731Y-51728511D01*
X53581731Y-51728511D02*
X53581731Y-51614225D01*
X53581731Y-51614225D02*
X53543636Y-51538034D01*
X53543636Y-51538034D02*
X53505540Y-51499939D01*
X53048397Y-51233272D02*
X53048397Y-50928510D01*
X53581731Y-51118986D02*
X52896016Y-51118986D01*
X52896016Y-51118986D02*
X52819826Y-51080891D01*
X52819826Y-51080891D02*
X52781731Y-51004701D01*
X52781731Y-51004701D02*
X52781731Y-50928510D01*
X52781731Y-50128510D02*
X52781731Y-49633272D01*
X52781731Y-49633272D02*
X53086493Y-49899938D01*
X53086493Y-49899938D02*
X53086493Y-49785653D01*
X53086493Y-49785653D02*
X53124588Y-49709462D01*
X53124588Y-49709462D02*
X53162683Y-49671367D01*
X53162683Y-49671367D02*
X53238874Y-49633272D01*
X53238874Y-49633272D02*
X53429350Y-49633272D01*
X53429350Y-49633272D02*
X53505540Y-49671367D01*
X53505540Y-49671367D02*
X53543636Y-49709462D01*
X53543636Y-49709462D02*
X53581731Y-49785653D01*
X53581731Y-49785653D02*
X53581731Y-50014224D01*
X53581731Y-50014224D02*
X53543636Y-50090415D01*
X53543636Y-50090415D02*
X53505540Y-50128510D01*
X52781731Y-49404700D02*
X53581731Y-49138033D01*
X53581731Y-49138033D02*
X52781731Y-48871367D01*
X52781731Y-48680891D02*
X52781731Y-48185653D01*
X52781731Y-48185653D02*
X53086493Y-48452319D01*
X53086493Y-48452319D02*
X53086493Y-48338034D01*
X53086493Y-48338034D02*
X53124588Y-48261843D01*
X53124588Y-48261843D02*
X53162683Y-48223748D01*
X53162683Y-48223748D02*
X53238874Y-48185653D01*
X53238874Y-48185653D02*
X53429350Y-48185653D01*
X53429350Y-48185653D02*
X53505540Y-48223748D01*
X53505540Y-48223748D02*
X53543636Y-48261843D01*
X53543636Y-48261843D02*
X53581731Y-48338034D01*
X53581731Y-48338034D02*
X53581731Y-48566605D01*
X53581731Y-48566605D02*
X53543636Y-48642796D01*
X53543636Y-48642796D02*
X53505540Y-48680891D01*
X53505540Y-47842795D02*
X53543636Y-47804700D01*
X53543636Y-47804700D02*
X53581731Y-47842795D01*
X53581731Y-47842795D02*
X53543636Y-47880891D01*
X53543636Y-47880891D02*
X53505540Y-47842795D01*
X53505540Y-47842795D02*
X53581731Y-47842795D01*
X53276969Y-47842795D02*
X52819826Y-47880891D01*
X52819826Y-47880891D02*
X52781731Y-47842795D01*
X52781731Y-47842795D02*
X52819826Y-47804700D01*
X52819826Y-47804700D02*
X53276969Y-47842795D01*
X53276969Y-47842795D02*
X52781731Y-47842795D01*
D11*
X57937473Y-46276129D02*
X58837473Y-45976129D01*
X58837473Y-45976129D02*
X57937473Y-45676129D01*
X58837473Y-45376129D02*
X57937473Y-45376129D01*
X58837473Y-44947558D02*
X57937473Y-44947558D01*
X57937473Y-44947558D02*
X58837473Y-44433272D01*
X58837473Y-44433272D02*
X57937473Y-44433272D01*
X57937473Y-64476129D02*
X58837473Y-64176129D01*
X58837473Y-64176129D02*
X57937473Y-63876129D01*
X57937473Y-63404700D02*
X57937473Y-63233272D01*
X57937473Y-63233272D02*
X57980330Y-63147557D01*
X57980330Y-63147557D02*
X58066044Y-63061843D01*
X58066044Y-63061843D02*
X58237473Y-63018986D01*
X58237473Y-63018986D02*
X58537473Y-63018986D01*
X58537473Y-63018986D02*
X58708901Y-63061843D01*
X58708901Y-63061843D02*
X58794616Y-63147557D01*
X58794616Y-63147557D02*
X58837473Y-63233272D01*
X58837473Y-63233272D02*
X58837473Y-63404700D01*
X58837473Y-63404700D02*
X58794616Y-63490415D01*
X58794616Y-63490415D02*
X58708901Y-63576129D01*
X58708901Y-63576129D02*
X58537473Y-63618986D01*
X58537473Y-63618986D02*
X58237473Y-63618986D01*
X58237473Y-63618986D02*
X58066044Y-63576129D01*
X58066044Y-63576129D02*
X57980330Y-63490415D01*
X57980330Y-63490415D02*
X57937473Y-63404700D01*
X57937473Y-62633272D02*
X58666044Y-62633272D01*
X58666044Y-62633272D02*
X58751758Y-62590415D01*
X58751758Y-62590415D02*
X58794616Y-62547558D01*
X58794616Y-62547558D02*
X58837473Y-62461843D01*
X58837473Y-62461843D02*
X58837473Y-62290415D01*
X58837473Y-62290415D02*
X58794616Y-62204700D01*
X58794616Y-62204700D02*
X58751758Y-62161843D01*
X58751758Y-62161843D02*
X58666044Y-62118986D01*
X58666044Y-62118986D02*
X57937473Y-62118986D01*
X57937473Y-61818986D02*
X57937473Y-61304701D01*
X58837473Y-61561843D02*
X57937473Y-61561843D01*
D12*
X58662683Y-56671368D02*
X58700778Y-56557082D01*
X58700778Y-56557082D02*
X58738874Y-56518987D01*
X58738874Y-56518987D02*
X58815064Y-56480891D01*
X58815064Y-56480891D02*
X58929350Y-56480891D01*
X58929350Y-56480891D02*
X59005540Y-56518987D01*
X59005540Y-56518987D02*
X59043636Y-56557082D01*
X59043636Y-56557082D02*
X59081731Y-56633272D01*
X59081731Y-56633272D02*
X59081731Y-56938034D01*
X59081731Y-56938034D02*
X58281731Y-56938034D01*
X58281731Y-56938034D02*
X58281731Y-56671368D01*
X58281731Y-56671368D02*
X58319826Y-56595177D01*
X58319826Y-56595177D02*
X58357921Y-56557082D01*
X58357921Y-56557082D02*
X58434112Y-56518987D01*
X58434112Y-56518987D02*
X58510302Y-56518987D01*
X58510302Y-56518987D02*
X58586493Y-56557082D01*
X58586493Y-56557082D02*
X58624588Y-56595177D01*
X58624588Y-56595177D02*
X58662683Y-56671368D01*
X58662683Y-56671368D02*
X58662683Y-56938034D01*
X58281731Y-56138034D02*
X58929350Y-56138034D01*
X58929350Y-56138034D02*
X59005540Y-56099939D01*
X59005540Y-56099939D02*
X59043636Y-56061844D01*
X59043636Y-56061844D02*
X59081731Y-55985653D01*
X59081731Y-55985653D02*
X59081731Y-55833272D01*
X59081731Y-55833272D02*
X59043636Y-55757082D01*
X59043636Y-55757082D02*
X59005540Y-55718987D01*
X59005540Y-55718987D02*
X58929350Y-55680891D01*
X58929350Y-55680891D02*
X58281731Y-55680891D01*
X59005540Y-54842796D02*
X59043636Y-54880892D01*
X59043636Y-54880892D02*
X59081731Y-54995177D01*
X59081731Y-54995177D02*
X59081731Y-55071368D01*
X59081731Y-55071368D02*
X59043636Y-55185654D01*
X59043636Y-55185654D02*
X58967445Y-55261844D01*
X58967445Y-55261844D02*
X58891255Y-55299939D01*
X58891255Y-55299939D02*
X58738874Y-55338035D01*
X58738874Y-55338035D02*
X58624588Y-55338035D01*
X58624588Y-55338035D02*
X58472207Y-55299939D01*
X58472207Y-55299939D02*
X58396016Y-55261844D01*
X58396016Y-55261844D02*
X58319826Y-55185654D01*
X58319826Y-55185654D02*
X58281731Y-55071368D01*
X58281731Y-55071368D02*
X58281731Y-54995177D01*
X58281731Y-54995177D02*
X58319826Y-54880892D01*
X58319826Y-54880892D02*
X58357921Y-54842796D01*
X59081731Y-54499939D02*
X58281731Y-54499939D01*
X59081731Y-54042796D02*
X58624588Y-54385654D01*
X58281731Y-54042796D02*
X58738874Y-54499939D01*
X58776969Y-53699939D02*
X58776969Y-53090416D01*
X58662683Y-52442797D02*
X58700778Y-52328511D01*
X58700778Y-52328511D02*
X58738874Y-52290416D01*
X58738874Y-52290416D02*
X58815064Y-52252320D01*
X58815064Y-52252320D02*
X58929350Y-52252320D01*
X58929350Y-52252320D02*
X59005540Y-52290416D01*
X59005540Y-52290416D02*
X59043636Y-52328511D01*
X59043636Y-52328511D02*
X59081731Y-52404701D01*
X59081731Y-52404701D02*
X59081731Y-52709463D01*
X59081731Y-52709463D02*
X58281731Y-52709463D01*
X58281731Y-52709463D02*
X58281731Y-52442797D01*
X58281731Y-52442797D02*
X58319826Y-52366606D01*
X58319826Y-52366606D02*
X58357921Y-52328511D01*
X58357921Y-52328511D02*
X58434112Y-52290416D01*
X58434112Y-52290416D02*
X58510302Y-52290416D01*
X58510302Y-52290416D02*
X58586493Y-52328511D01*
X58586493Y-52328511D02*
X58624588Y-52366606D01*
X58624588Y-52366606D02*
X58662683Y-52442797D01*
X58662683Y-52442797D02*
X58662683Y-52709463D01*
X58281731Y-51757082D02*
X58281731Y-51604701D01*
X58281731Y-51604701D02*
X58319826Y-51528511D01*
X58319826Y-51528511D02*
X58396016Y-51452320D01*
X58396016Y-51452320D02*
X58548397Y-51414225D01*
X58548397Y-51414225D02*
X58815064Y-51414225D01*
X58815064Y-51414225D02*
X58967445Y-51452320D01*
X58967445Y-51452320D02*
X59043636Y-51528511D01*
X59043636Y-51528511D02*
X59081731Y-51604701D01*
X59081731Y-51604701D02*
X59081731Y-51757082D01*
X59081731Y-51757082D02*
X59043636Y-51833273D01*
X59043636Y-51833273D02*
X58967445Y-51909463D01*
X58967445Y-51909463D02*
X58815064Y-51947559D01*
X58815064Y-51947559D02*
X58548397Y-51947559D01*
X58548397Y-51947559D02*
X58396016Y-51909463D01*
X58396016Y-51909463D02*
X58319826Y-51833273D01*
X58319826Y-51833273D02*
X58281731Y-51757082D01*
X58281731Y-50918987D02*
X58281731Y-50766606D01*
X58281731Y-50766606D02*
X58319826Y-50690416D01*
X58319826Y-50690416D02*
X58396016Y-50614225D01*
X58396016Y-50614225D02*
X58548397Y-50576130D01*
X58548397Y-50576130D02*
X58815064Y-50576130D01*
X58815064Y-50576130D02*
X58967445Y-50614225D01*
X58967445Y-50614225D02*
X59043636Y-50690416D01*
X59043636Y-50690416D02*
X59081731Y-50766606D01*
X59081731Y-50766606D02*
X59081731Y-50918987D01*
X59081731Y-50918987D02*
X59043636Y-50995178D01*
X59043636Y-50995178D02*
X58967445Y-51071368D01*
X58967445Y-51071368D02*
X58815064Y-51109464D01*
X58815064Y-51109464D02*
X58548397Y-51109464D01*
X58548397Y-51109464D02*
X58396016Y-51071368D01*
X58396016Y-51071368D02*
X58319826Y-50995178D01*
X58319826Y-50995178D02*
X58281731Y-50918987D01*
X59043636Y-50271369D02*
X59081731Y-50157083D01*
X59081731Y-50157083D02*
X59081731Y-49966607D01*
X59081731Y-49966607D02*
X59043636Y-49890416D01*
X59043636Y-49890416D02*
X59005540Y-49852321D01*
X59005540Y-49852321D02*
X58929350Y-49814226D01*
X58929350Y-49814226D02*
X58853159Y-49814226D01*
X58853159Y-49814226D02*
X58776969Y-49852321D01*
X58776969Y-49852321D02*
X58738874Y-49890416D01*
X58738874Y-49890416D02*
X58700778Y-49966607D01*
X58700778Y-49966607D02*
X58662683Y-50118988D01*
X58662683Y-50118988D02*
X58624588Y-50195178D01*
X58624588Y-50195178D02*
X58586493Y-50233273D01*
X58586493Y-50233273D02*
X58510302Y-50271369D01*
X58510302Y-50271369D02*
X58434112Y-50271369D01*
X58434112Y-50271369D02*
X58357921Y-50233273D01*
X58357921Y-50233273D02*
X58319826Y-50195178D01*
X58319826Y-50195178D02*
X58281731Y-50118988D01*
X58281731Y-50118988D02*
X58281731Y-49928511D01*
X58281731Y-49928511D02*
X58319826Y-49814226D01*
X58281731Y-49585654D02*
X58281731Y-49128511D01*
X59081731Y-49357083D02*
X58281731Y-49357083D01*
D11*
X59577473Y-56368987D02*
X59577473Y-55854702D01*
X60477473Y-56111844D02*
X59577473Y-56111844D01*
X60477473Y-55554702D02*
X59577473Y-55554702D01*
X59577473Y-55554702D02*
X59577473Y-55211845D01*
X59577473Y-55211845D02*
X59620330Y-55126130D01*
X59620330Y-55126130D02*
X59663187Y-55083273D01*
X59663187Y-55083273D02*
X59748901Y-55040416D01*
X59748901Y-55040416D02*
X59877473Y-55040416D01*
X59877473Y-55040416D02*
X59963187Y-55083273D01*
X59963187Y-55083273D02*
X60006044Y-55126130D01*
X60006044Y-55126130D02*
X60048901Y-55211845D01*
X60048901Y-55211845D02*
X60048901Y-55554702D01*
X60434616Y-54697559D02*
X60477473Y-54568988D01*
X60477473Y-54568988D02*
X60477473Y-54354702D01*
X60477473Y-54354702D02*
X60434616Y-54268988D01*
X60434616Y-54268988D02*
X60391758Y-54226130D01*
X60391758Y-54226130D02*
X60306044Y-54183273D01*
X60306044Y-54183273D02*
X60220330Y-54183273D01*
X60220330Y-54183273D02*
X60134616Y-54226130D01*
X60134616Y-54226130D02*
X60091758Y-54268988D01*
X60091758Y-54268988D02*
X60048901Y-54354702D01*
X60048901Y-54354702D02*
X60006044Y-54526130D01*
X60006044Y-54526130D02*
X59963187Y-54611845D01*
X59963187Y-54611845D02*
X59920330Y-54654702D01*
X59920330Y-54654702D02*
X59834616Y-54697559D01*
X59834616Y-54697559D02*
X59748901Y-54697559D01*
X59748901Y-54697559D02*
X59663187Y-54654702D01*
X59663187Y-54654702D02*
X59620330Y-54611845D01*
X59620330Y-54611845D02*
X59577473Y-54526130D01*
X59577473Y-54526130D02*
X59577473Y-54311845D01*
X59577473Y-54311845D02*
X59620330Y-54183273D01*
X59577473Y-53411845D02*
X59577473Y-53583273D01*
X59577473Y-53583273D02*
X59620330Y-53668987D01*
X59620330Y-53668987D02*
X59663187Y-53711845D01*
X59663187Y-53711845D02*
X59791758Y-53797559D01*
X59791758Y-53797559D02*
X59963187Y-53840416D01*
X59963187Y-53840416D02*
X60306044Y-53840416D01*
X60306044Y-53840416D02*
X60391758Y-53797559D01*
X60391758Y-53797559D02*
X60434616Y-53754702D01*
X60434616Y-53754702D02*
X60477473Y-53668987D01*
X60477473Y-53668987D02*
X60477473Y-53497559D01*
X60477473Y-53497559D02*
X60434616Y-53411845D01*
X60434616Y-53411845D02*
X60391758Y-53368987D01*
X60391758Y-53368987D02*
X60306044Y-53326130D01*
X60306044Y-53326130D02*
X60091758Y-53326130D01*
X60091758Y-53326130D02*
X60006044Y-53368987D01*
X60006044Y-53368987D02*
X59963187Y-53411845D01*
X59963187Y-53411845D02*
X59920330Y-53497559D01*
X59920330Y-53497559D02*
X59920330Y-53668987D01*
X59920330Y-53668987D02*
X59963187Y-53754702D01*
X59963187Y-53754702D02*
X60006044Y-53797559D01*
X60006044Y-53797559D02*
X60091758Y-53840416D01*
X59577473Y-53026130D02*
X59577473Y-52468987D01*
X59577473Y-52468987D02*
X59920330Y-52768987D01*
X59920330Y-52768987D02*
X59920330Y-52640416D01*
X59920330Y-52640416D02*
X59963187Y-52554702D01*
X59963187Y-52554702D02*
X60006044Y-52511844D01*
X60006044Y-52511844D02*
X60091758Y-52468987D01*
X60091758Y-52468987D02*
X60306044Y-52468987D01*
X60306044Y-52468987D02*
X60391758Y-52511844D01*
X60391758Y-52511844D02*
X60434616Y-52554702D01*
X60434616Y-52554702D02*
X60477473Y-52640416D01*
X60477473Y-52640416D02*
X60477473Y-52897559D01*
X60477473Y-52897559D02*
X60434616Y-52983273D01*
X60434616Y-52983273D02*
X60391758Y-53026130D01*
X59963187Y-51954701D02*
X59920330Y-52040416D01*
X59920330Y-52040416D02*
X59877473Y-52083273D01*
X59877473Y-52083273D02*
X59791758Y-52126130D01*
X59791758Y-52126130D02*
X59748901Y-52126130D01*
X59748901Y-52126130D02*
X59663187Y-52083273D01*
X59663187Y-52083273D02*
X59620330Y-52040416D01*
X59620330Y-52040416D02*
X59577473Y-51954701D01*
X59577473Y-51954701D02*
X59577473Y-51783273D01*
X59577473Y-51783273D02*
X59620330Y-51697559D01*
X59620330Y-51697559D02*
X59663187Y-51654701D01*
X59663187Y-51654701D02*
X59748901Y-51611844D01*
X59748901Y-51611844D02*
X59791758Y-51611844D01*
X59791758Y-51611844D02*
X59877473Y-51654701D01*
X59877473Y-51654701D02*
X59920330Y-51697559D01*
X59920330Y-51697559D02*
X59963187Y-51783273D01*
X59963187Y-51783273D02*
X59963187Y-51954701D01*
X59963187Y-51954701D02*
X60006044Y-52040416D01*
X60006044Y-52040416D02*
X60048901Y-52083273D01*
X60048901Y-52083273D02*
X60134616Y-52126130D01*
X60134616Y-52126130D02*
X60306044Y-52126130D01*
X60306044Y-52126130D02*
X60391758Y-52083273D01*
X60391758Y-52083273D02*
X60434616Y-52040416D01*
X60434616Y-52040416D02*
X60477473Y-51954701D01*
X60477473Y-51954701D02*
X60477473Y-51783273D01*
X60477473Y-51783273D02*
X60434616Y-51697559D01*
X60434616Y-51697559D02*
X60391758Y-51654701D01*
X60391758Y-51654701D02*
X60306044Y-51611844D01*
X60306044Y-51611844D02*
X60134616Y-51611844D01*
X60134616Y-51611844D02*
X60048901Y-51654701D01*
X60048901Y-51654701D02*
X60006044Y-51697559D01*
X60006044Y-51697559D02*
X59963187Y-51783273D01*
X59577473Y-51054701D02*
X59577473Y-50968987D01*
X59577473Y-50968987D02*
X59620330Y-50883273D01*
X59620330Y-50883273D02*
X59663187Y-50840416D01*
X59663187Y-50840416D02*
X59748901Y-50797558D01*
X59748901Y-50797558D02*
X59920330Y-50754701D01*
X59920330Y-50754701D02*
X60134616Y-50754701D01*
X60134616Y-50754701D02*
X60306044Y-50797558D01*
X60306044Y-50797558D02*
X60391758Y-50840416D01*
X60391758Y-50840416D02*
X60434616Y-50883273D01*
X60434616Y-50883273D02*
X60477473Y-50968987D01*
X60477473Y-50968987D02*
X60477473Y-51054701D01*
X60477473Y-51054701D02*
X60434616Y-51140416D01*
X60434616Y-51140416D02*
X60391758Y-51183273D01*
X60391758Y-51183273D02*
X60306044Y-51226130D01*
X60306044Y-51226130D02*
X60134616Y-51268987D01*
X60134616Y-51268987D02*
X59920330Y-51268987D01*
X59920330Y-51268987D02*
X59748901Y-51226130D01*
X59748901Y-51226130D02*
X59663187Y-51183273D01*
X59663187Y-51183273D02*
X59620330Y-51140416D01*
X59620330Y-51140416D02*
X59577473Y-51054701D01*
X59663187Y-50411844D02*
X59620330Y-50368987D01*
X59620330Y-50368987D02*
X59577473Y-50283273D01*
X59577473Y-50283273D02*
X59577473Y-50068987D01*
X59577473Y-50068987D02*
X59620330Y-49983273D01*
X59620330Y-49983273D02*
X59663187Y-49940415D01*
X59663187Y-49940415D02*
X59748901Y-49897558D01*
X59748901Y-49897558D02*
X59834616Y-49897558D01*
X59834616Y-49897558D02*
X59963187Y-49940415D01*
X59963187Y-49940415D02*
X60477473Y-50454701D01*
X60477473Y-50454701D02*
X60477473Y-49897558D01*
D10*
X21178356Y-23699436D02*
X21225976Y-23747055D01*
X21225976Y-23747055D02*
X21273595Y-23889912D01*
X21273595Y-23889912D02*
X21273595Y-23985150D01*
X21273595Y-23985150D02*
X21225976Y-24128007D01*
X21225976Y-24128007D02*
X21130737Y-24223245D01*
X21130737Y-24223245D02*
X21035499Y-24270864D01*
X21035499Y-24270864D02*
X20845023Y-24318483D01*
X20845023Y-24318483D02*
X20702166Y-24318483D01*
X20702166Y-24318483D02*
X20511690Y-24270864D01*
X20511690Y-24270864D02*
X20416452Y-24223245D01*
X20416452Y-24223245D02*
X20321214Y-24128007D01*
X20321214Y-24128007D02*
X20273595Y-23985150D01*
X20273595Y-23985150D02*
X20273595Y-23889912D01*
X20273595Y-23889912D02*
X20321214Y-23747055D01*
X20321214Y-23747055D02*
X20368833Y-23699436D01*
X20273595Y-23366102D02*
X20273595Y-22699436D01*
X20273595Y-22699436D02*
X21273595Y-23128007D01*
X71037977Y-39743333D02*
X71752262Y-39743333D01*
X71752262Y-39743333D02*
X71895119Y-39790952D01*
X71895119Y-39790952D02*
X71990358Y-39886190D01*
X71990358Y-39886190D02*
X72037977Y-40029047D01*
X72037977Y-40029047D02*
X72037977Y-40124285D01*
X72037977Y-38743333D02*
X72037977Y-39314761D01*
X72037977Y-39029047D02*
X71037977Y-39029047D01*
X71037977Y-39029047D02*
X71180834Y-39124285D01*
X71180834Y-39124285D02*
X71276072Y-39219523D01*
X71276072Y-39219523D02*
X71323691Y-39314761D01*
X66463726Y-56178991D02*
X66463726Y-56655181D01*
X66463726Y-56655181D02*
X66939916Y-56702800D01*
X66939916Y-56702800D02*
X66892297Y-56655181D01*
X66892297Y-56655181D02*
X66844678Y-56559943D01*
X66844678Y-56559943D02*
X66844678Y-56321848D01*
X66844678Y-56321848D02*
X66892297Y-56226610D01*
X66892297Y-56226610D02*
X66939916Y-56178991D01*
X66939916Y-56178991D02*
X67035154Y-56131372D01*
X67035154Y-56131372D02*
X67273249Y-56131372D01*
X67273249Y-56131372D02*
X67368487Y-56178991D01*
X67368487Y-56178991D02*
X67416107Y-56226610D01*
X67416107Y-56226610D02*
X67463726Y-56321848D01*
X67463726Y-56321848D02*
X67463726Y-56559943D01*
X67463726Y-56559943D02*
X67416107Y-56655181D01*
X67416107Y-56655181D02*
X67368487Y-56702800D01*
X66463726Y-55845657D02*
X67463726Y-55512324D01*
X67463726Y-55512324D02*
X66463726Y-55178991D01*
X66867377Y-31689906D02*
X65867377Y-31689906D01*
X65867377Y-31689906D02*
X65867377Y-31451811D01*
X65867377Y-31451811D02*
X65914996Y-31308954D01*
X65914996Y-31308954D02*
X66010234Y-31213716D01*
X66010234Y-31213716D02*
X66105472Y-31166097D01*
X66105472Y-31166097D02*
X66295948Y-31118478D01*
X66295948Y-31118478D02*
X66438805Y-31118478D01*
X66438805Y-31118478D02*
X66629281Y-31166097D01*
X66629281Y-31166097D02*
X66724519Y-31213716D01*
X66724519Y-31213716D02*
X66819758Y-31308954D01*
X66819758Y-31308954D02*
X66867377Y-31451811D01*
X66867377Y-31451811D02*
X66867377Y-31689906D01*
X65962615Y-30737525D02*
X65914996Y-30689906D01*
X65914996Y-30689906D02*
X65867377Y-30594668D01*
X65867377Y-30594668D02*
X65867377Y-30356573D01*
X65867377Y-30356573D02*
X65914996Y-30261335D01*
X65914996Y-30261335D02*
X65962615Y-30213716D01*
X65962615Y-30213716D02*
X66057853Y-30166097D01*
X66057853Y-30166097D02*
X66153091Y-30166097D01*
X66153091Y-30166097D02*
X66295948Y-30213716D01*
X66295948Y-30213716D02*
X66867377Y-30785144D01*
X66867377Y-30785144D02*
X66867377Y-30166097D01*
X66936729Y-42744788D02*
X65936729Y-42744788D01*
X66936729Y-42173360D02*
X66365300Y-42601931D01*
X65936729Y-42173360D02*
X66508157Y-42744788D01*
X69545024Y-62329623D02*
X70354547Y-62329623D01*
X70354547Y-62329623D02*
X70449785Y-62282004D01*
X70449785Y-62282004D02*
X70497405Y-62234385D01*
X70497405Y-62234385D02*
X70545024Y-62139147D01*
X70545024Y-62139147D02*
X70545024Y-61948671D01*
X70545024Y-61948671D02*
X70497405Y-61853433D01*
X70497405Y-61853433D02*
X70449785Y-61805814D01*
X70449785Y-61805814D02*
X70354547Y-61758195D01*
X70354547Y-61758195D02*
X69545024Y-61758195D01*
X69545024Y-61377242D02*
X69545024Y-60758195D01*
X69545024Y-60758195D02*
X69925976Y-61091528D01*
X69925976Y-61091528D02*
X69925976Y-60948671D01*
X69925976Y-60948671D02*
X69973595Y-60853433D01*
X69973595Y-60853433D02*
X70021214Y-60805814D01*
X70021214Y-60805814D02*
X70116452Y-60758195D01*
X70116452Y-60758195D02*
X70354547Y-60758195D01*
X70354547Y-60758195D02*
X70449785Y-60805814D01*
X70449785Y-60805814D02*
X70497405Y-60853433D01*
X70497405Y-60853433D02*
X70545024Y-60948671D01*
X70545024Y-60948671D02*
X70545024Y-61234385D01*
X70545024Y-61234385D02*
X70497405Y-61329623D01*
X70497405Y-61329623D02*
X70449785Y-61377242D01*
X77110990Y-61063154D02*
X77777656Y-61063154D01*
X77777656Y-61063154D02*
X77349085Y-62063154D01*
X78587180Y-61396487D02*
X78587180Y-62063154D01*
X78349085Y-61015535D02*
X78110990Y-61729820D01*
X78110990Y-61729820D02*
X78730037Y-61729820D01*
X79110990Y-62063154D02*
X79110990Y-61063154D01*
X79110990Y-61539344D02*
X79682418Y-61539344D01*
X79682418Y-62063154D02*
X79682418Y-61063154D01*
X80730037Y-61967915D02*
X80682418Y-62015535D01*
X80682418Y-62015535D02*
X80539561Y-62063154D01*
X80539561Y-62063154D02*
X80444323Y-62063154D01*
X80444323Y-62063154D02*
X80301466Y-62015535D01*
X80301466Y-62015535D02*
X80206228Y-61920296D01*
X80206228Y-61920296D02*
X80158609Y-61825058D01*
X80158609Y-61825058D02*
X80110990Y-61634582D01*
X80110990Y-61634582D02*
X80110990Y-61491725D01*
X80110990Y-61491725D02*
X80158609Y-61301249D01*
X80158609Y-61301249D02*
X80206228Y-61206011D01*
X80206228Y-61206011D02*
X80301466Y-61110773D01*
X80301466Y-61110773D02*
X80444323Y-61063154D01*
X80444323Y-61063154D02*
X80539561Y-61063154D01*
X80539561Y-61063154D02*
X80682418Y-61110773D01*
X80682418Y-61110773D02*
X80730037Y-61158392D01*
X81015752Y-61063154D02*
X81587180Y-61063154D01*
X81301466Y-62063154D02*
X81301466Y-61063154D01*
X82110990Y-61063154D02*
X82206228Y-61063154D01*
X82206228Y-61063154D02*
X82301466Y-61110773D01*
X82301466Y-61110773D02*
X82349085Y-61158392D01*
X82349085Y-61158392D02*
X82396704Y-61253630D01*
X82396704Y-61253630D02*
X82444323Y-61444106D01*
X82444323Y-61444106D02*
X82444323Y-61682201D01*
X82444323Y-61682201D02*
X82396704Y-61872677D01*
X82396704Y-61872677D02*
X82349085Y-61967915D01*
X82349085Y-61967915D02*
X82301466Y-62015535D01*
X82301466Y-62015535D02*
X82206228Y-62063154D01*
X82206228Y-62063154D02*
X82110990Y-62063154D01*
X82110990Y-62063154D02*
X82015752Y-62015535D01*
X82015752Y-62015535D02*
X81968133Y-61967915D01*
X81968133Y-61967915D02*
X81920514Y-61872677D01*
X81920514Y-61872677D02*
X81872895Y-61682201D01*
X81872895Y-61682201D02*
X81872895Y-61444106D01*
X81872895Y-61444106D02*
X81920514Y-61253630D01*
X81920514Y-61253630D02*
X81968133Y-61158392D01*
X81968133Y-61158392D02*
X82015752Y-61110773D01*
X82015752Y-61110773D02*
X82110990Y-61063154D01*
X83015752Y-61491725D02*
X82920514Y-61444106D01*
X82920514Y-61444106D02*
X82872895Y-61396487D01*
X82872895Y-61396487D02*
X82825276Y-61301249D01*
X82825276Y-61301249D02*
X82825276Y-61253630D01*
X82825276Y-61253630D02*
X82872895Y-61158392D01*
X82872895Y-61158392D02*
X82920514Y-61110773D01*
X82920514Y-61110773D02*
X83015752Y-61063154D01*
X83015752Y-61063154D02*
X83206228Y-61063154D01*
X83206228Y-61063154D02*
X83301466Y-61110773D01*
X83301466Y-61110773D02*
X83349085Y-61158392D01*
X83349085Y-61158392D02*
X83396704Y-61253630D01*
X83396704Y-61253630D02*
X83396704Y-61301249D01*
X83396704Y-61301249D02*
X83349085Y-61396487D01*
X83349085Y-61396487D02*
X83301466Y-61444106D01*
X83301466Y-61444106D02*
X83206228Y-61491725D01*
X83206228Y-61491725D02*
X83015752Y-61491725D01*
X83015752Y-61491725D02*
X82920514Y-61539344D01*
X82920514Y-61539344D02*
X82872895Y-61586963D01*
X82872895Y-61586963D02*
X82825276Y-61682201D01*
X82825276Y-61682201D02*
X82825276Y-61872677D01*
X82825276Y-61872677D02*
X82872895Y-61967915D01*
X82872895Y-61967915D02*
X82920514Y-62015535D01*
X82920514Y-62015535D02*
X83015752Y-62063154D01*
X83015752Y-62063154D02*
X83206228Y-62063154D01*
X83206228Y-62063154D02*
X83301466Y-62015535D01*
X83301466Y-62015535D02*
X83349085Y-61967915D01*
X83349085Y-61967915D02*
X83396704Y-61872677D01*
X83396704Y-61872677D02*
X83396704Y-61682201D01*
X83396704Y-61682201D02*
X83349085Y-61586963D01*
X83349085Y-61586963D02*
X83301466Y-61539344D01*
X83301466Y-61539344D02*
X83206228Y-61491725D01*
X69669819Y-23661666D02*
X69193628Y-23994999D01*
X69669819Y-24233094D02*
X68669819Y-24233094D01*
X68669819Y-24233094D02*
X68669819Y-23852142D01*
X68669819Y-23852142D02*
X68717438Y-23756904D01*
X68717438Y-23756904D02*
X68765057Y-23709285D01*
X68765057Y-23709285D02*
X68860295Y-23661666D01*
X68860295Y-23661666D02*
X69003152Y-23661666D01*
X69003152Y-23661666D02*
X69098390Y-23709285D01*
X69098390Y-23709285D02*
X69146009Y-23756904D01*
X69146009Y-23756904D02*
X69193628Y-23852142D01*
X69193628Y-23852142D02*
X69193628Y-24233094D01*
X68669819Y-22756904D02*
X68669819Y-23233094D01*
X68669819Y-23233094D02*
X69146009Y-23280713D01*
X69146009Y-23280713D02*
X69098390Y-23233094D01*
X69098390Y-23233094D02*
X69050771Y-23137856D01*
X69050771Y-23137856D02*
X69050771Y-22899761D01*
X69050771Y-22899761D02*
X69098390Y-22804523D01*
X69098390Y-22804523D02*
X69146009Y-22756904D01*
X69146009Y-22756904D02*
X69241247Y-22709285D01*
X69241247Y-22709285D02*
X69479342Y-22709285D01*
X69479342Y-22709285D02*
X69574580Y-22756904D01*
X69574580Y-22756904D02*
X69622200Y-22804523D01*
X69622200Y-22804523D02*
X69669819Y-22899761D01*
X69669819Y-22899761D02*
X69669819Y-23137856D01*
X69669819Y-23137856D02*
X69622200Y-23233094D01*
X69622200Y-23233094D02*
X69574580Y-23280713D01*
X38231783Y-16936931D02*
X38946068Y-16936931D01*
X38946068Y-16936931D02*
X39088925Y-16984550D01*
X39088925Y-16984550D02*
X39184164Y-17079788D01*
X39184164Y-17079788D02*
X39231783Y-17222645D01*
X39231783Y-17222645D02*
X39231783Y-17317883D01*
X38327021Y-16508359D02*
X38279402Y-16460740D01*
X38279402Y-16460740D02*
X38231783Y-16365502D01*
X38231783Y-16365502D02*
X38231783Y-16127407D01*
X38231783Y-16127407D02*
X38279402Y-16032169D01*
X38279402Y-16032169D02*
X38327021Y-15984550D01*
X38327021Y-15984550D02*
X38422259Y-15936931D01*
X38422259Y-15936931D02*
X38517497Y-15936931D01*
X38517497Y-15936931D02*
X38660354Y-15984550D01*
X38660354Y-15984550D02*
X39231783Y-16555978D01*
X39231783Y-16555978D02*
X39231783Y-15936931D01*
X21902625Y-19315955D02*
X21902625Y-18515955D01*
X21902625Y-18515955D02*
X22093101Y-18515955D01*
X22093101Y-18515955D02*
X22207387Y-18554050D01*
X22207387Y-18554050D02*
X22283577Y-18630240D01*
X22283577Y-18630240D02*
X22321672Y-18706431D01*
X22321672Y-18706431D02*
X22359768Y-18858812D01*
X22359768Y-18858812D02*
X22359768Y-18973098D01*
X22359768Y-18973098D02*
X22321672Y-19125479D01*
X22321672Y-19125479D02*
X22283577Y-19201669D01*
X22283577Y-19201669D02*
X22207387Y-19277860D01*
X22207387Y-19277860D02*
X22093101Y-19315955D01*
X22093101Y-19315955D02*
X21902625Y-19315955D01*
X22588339Y-18515955D02*
X23045482Y-18515955D01*
X22816910Y-19315955D02*
X22816910Y-18515955D01*
X23769292Y-19315955D02*
X23502625Y-18935002D01*
X23312149Y-19315955D02*
X23312149Y-18515955D01*
X23312149Y-18515955D02*
X23616911Y-18515955D01*
X23616911Y-18515955D02*
X23693101Y-18554050D01*
X23693101Y-18554050D02*
X23731196Y-18592145D01*
X23731196Y-18592145D02*
X23769292Y-18668336D01*
X23769292Y-18668336D02*
X23769292Y-18782621D01*
X23769292Y-18782621D02*
X23731196Y-18858812D01*
X23731196Y-18858812D02*
X23693101Y-18896907D01*
X23693101Y-18896907D02*
X23616911Y-18935002D01*
X23616911Y-18935002D02*
X23312149Y-18935002D01*
X25178816Y-19315955D02*
X24912149Y-18935002D01*
X24721673Y-19315955D02*
X24721673Y-18515955D01*
X24721673Y-18515955D02*
X25026435Y-18515955D01*
X25026435Y-18515955D02*
X25102625Y-18554050D01*
X25102625Y-18554050D02*
X25140720Y-18592145D01*
X25140720Y-18592145D02*
X25178816Y-18668336D01*
X25178816Y-18668336D02*
X25178816Y-18782621D01*
X25178816Y-18782621D02*
X25140720Y-18858812D01*
X25140720Y-18858812D02*
X25102625Y-18896907D01*
X25102625Y-18896907D02*
X25026435Y-18935002D01*
X25026435Y-18935002D02*
X24721673Y-18935002D01*
X25445482Y-18515955D02*
X25978816Y-19315955D01*
X25978816Y-18515955D02*
X25445482Y-19315955D01*
X26283578Y-19315955D02*
X26283578Y-18515955D01*
X27159768Y-18515955D02*
X27616911Y-18515955D01*
X27388339Y-19315955D02*
X27388339Y-18515955D01*
X27807387Y-18515955D02*
X28340721Y-19315955D01*
X28340721Y-18515955D02*
X27807387Y-19315955D01*
X28797864Y-18515955D02*
X28950245Y-18515955D01*
X28950245Y-18515955D02*
X29026435Y-18554050D01*
X29026435Y-18554050D02*
X29102626Y-18630240D01*
X29102626Y-18630240D02*
X29140721Y-18782621D01*
X29140721Y-18782621D02*
X29140721Y-19049288D01*
X29140721Y-19049288D02*
X29102626Y-19201669D01*
X29102626Y-19201669D02*
X29026435Y-19277860D01*
X29026435Y-19277860D02*
X28950245Y-19315955D01*
X28950245Y-19315955D02*
X28797864Y-19315955D01*
X28797864Y-19315955D02*
X28721673Y-19277860D01*
X28721673Y-19277860D02*
X28645483Y-19201669D01*
X28645483Y-19201669D02*
X28607387Y-19049288D01*
X28607387Y-19049288D02*
X28607387Y-18782621D01*
X28607387Y-18782621D02*
X28645483Y-18630240D01*
X28645483Y-18630240D02*
X28721673Y-18554050D01*
X28721673Y-18554050D02*
X28797864Y-18515955D01*
X30016911Y-18515955D02*
X30512149Y-18515955D01*
X30512149Y-18515955D02*
X30245483Y-18820717D01*
X30245483Y-18820717D02*
X30359768Y-18820717D01*
X30359768Y-18820717D02*
X30435959Y-18858812D01*
X30435959Y-18858812D02*
X30474054Y-18896907D01*
X30474054Y-18896907D02*
X30512149Y-18973098D01*
X30512149Y-18973098D02*
X30512149Y-19163574D01*
X30512149Y-19163574D02*
X30474054Y-19239764D01*
X30474054Y-19239764D02*
X30435959Y-19277860D01*
X30435959Y-19277860D02*
X30359768Y-19315955D01*
X30359768Y-19315955D02*
X30131197Y-19315955D01*
X30131197Y-19315955D02*
X30055006Y-19277860D01*
X30055006Y-19277860D02*
X30016911Y-19239764D01*
X30740721Y-18515955D02*
X31007388Y-19315955D01*
X31007388Y-19315955D02*
X31274054Y-18515955D01*
X31464530Y-18515955D02*
X31959768Y-18515955D01*
X31959768Y-18515955D02*
X31693102Y-18820717D01*
X31693102Y-18820717D02*
X31807387Y-18820717D01*
X31807387Y-18820717D02*
X31883578Y-18858812D01*
X31883578Y-18858812D02*
X31921673Y-18896907D01*
X31921673Y-18896907D02*
X31959768Y-18973098D01*
X31959768Y-18973098D02*
X31959768Y-19163574D01*
X31959768Y-19163574D02*
X31921673Y-19239764D01*
X31921673Y-19239764D02*
X31883578Y-19277860D01*
X31883578Y-19277860D02*
X31807387Y-19315955D01*
X31807387Y-19315955D02*
X31578816Y-19315955D01*
X31578816Y-19315955D02*
X31502625Y-19277860D01*
X31502625Y-19277860D02*
X31464530Y-19239764D01*
X32912150Y-19315955D02*
X32912150Y-18515955D01*
X32912150Y-18515955D02*
X33369293Y-19315955D01*
X33369293Y-19315955D02*
X33369293Y-18515955D01*
X34207388Y-19239764D02*
X34169292Y-19277860D01*
X34169292Y-19277860D02*
X34055007Y-19315955D01*
X34055007Y-19315955D02*
X33978816Y-19315955D01*
X33978816Y-19315955D02*
X33864530Y-19277860D01*
X33864530Y-19277860D02*
X33788340Y-19201669D01*
X33788340Y-19201669D02*
X33750245Y-19125479D01*
X33750245Y-19125479D02*
X33712149Y-18973098D01*
X33712149Y-18973098D02*
X33712149Y-18858812D01*
X33712149Y-18858812D02*
X33750245Y-18706431D01*
X33750245Y-18706431D02*
X33788340Y-18630240D01*
X33788340Y-18630240D02*
X33864530Y-18554050D01*
X33864530Y-18554050D02*
X33978816Y-18515955D01*
X33978816Y-18515955D02*
X34055007Y-18515955D01*
X34055007Y-18515955D02*
X34169292Y-18554050D01*
X34169292Y-18554050D02*
X34207388Y-18592145D01*
X35578816Y-18554050D02*
X35502626Y-18515955D01*
X35502626Y-18515955D02*
X35388340Y-18515955D01*
X35388340Y-18515955D02*
X35274054Y-18554050D01*
X35274054Y-18554050D02*
X35197864Y-18630240D01*
X35197864Y-18630240D02*
X35159769Y-18706431D01*
X35159769Y-18706431D02*
X35121673Y-18858812D01*
X35121673Y-18858812D02*
X35121673Y-18973098D01*
X35121673Y-18973098D02*
X35159769Y-19125479D01*
X35159769Y-19125479D02*
X35197864Y-19201669D01*
X35197864Y-19201669D02*
X35274054Y-19277860D01*
X35274054Y-19277860D02*
X35388340Y-19315955D01*
X35388340Y-19315955D02*
X35464531Y-19315955D01*
X35464531Y-19315955D02*
X35578816Y-19277860D01*
X35578816Y-19277860D02*
X35616912Y-19239764D01*
X35616912Y-19239764D02*
X35616912Y-18973098D01*
X35616912Y-18973098D02*
X35464531Y-18973098D01*
X35959769Y-19315955D02*
X35959769Y-18515955D01*
X35959769Y-18515955D02*
X36416912Y-19315955D01*
X36416912Y-19315955D02*
X36416912Y-18515955D01*
X36797864Y-19315955D02*
X36797864Y-18515955D01*
X36797864Y-18515955D02*
X36988340Y-18515955D01*
X36988340Y-18515955D02*
X37102626Y-18554050D01*
X37102626Y-18554050D02*
X37178816Y-18630240D01*
X37178816Y-18630240D02*
X37216911Y-18706431D01*
X37216911Y-18706431D02*
X37255007Y-18858812D01*
X37255007Y-18858812D02*
X37255007Y-18973098D01*
X37255007Y-18973098D02*
X37216911Y-19125479D01*
X37216911Y-19125479D02*
X37178816Y-19201669D01*
X37178816Y-19201669D02*
X37102626Y-19277860D01*
X37102626Y-19277860D02*
X36988340Y-19315955D01*
X36988340Y-19315955D02*
X36797864Y-19315955D01*
X46795703Y-58347958D02*
X46843323Y-58395577D01*
X46843323Y-58395577D02*
X46890942Y-58538434D01*
X46890942Y-58538434D02*
X46890942Y-58633672D01*
X46890942Y-58633672D02*
X46843323Y-58776529D01*
X46843323Y-58776529D02*
X46748084Y-58871767D01*
X46748084Y-58871767D02*
X46652846Y-58919386D01*
X46652846Y-58919386D02*
X46462370Y-58967005D01*
X46462370Y-58967005D02*
X46319513Y-58967005D01*
X46319513Y-58967005D02*
X46129037Y-58919386D01*
X46129037Y-58919386D02*
X46033799Y-58871767D01*
X46033799Y-58871767D02*
X45938561Y-58776529D01*
X45938561Y-58776529D02*
X45890942Y-58633672D01*
X45890942Y-58633672D02*
X45890942Y-58538434D01*
X45890942Y-58538434D02*
X45938561Y-58395577D01*
X45938561Y-58395577D02*
X45986180Y-58347958D01*
X46890942Y-57395577D02*
X46890942Y-57967005D01*
X46890942Y-57681291D02*
X45890942Y-57681291D01*
X45890942Y-57681291D02*
X46033799Y-57776529D01*
X46033799Y-57776529D02*
X46129037Y-57871767D01*
X46129037Y-57871767D02*
X46176656Y-57967005D01*
X65993068Y-26941012D02*
X65897830Y-26893393D01*
X65897830Y-26893393D02*
X65754973Y-26893393D01*
X65754973Y-26893393D02*
X65612116Y-26941012D01*
X65612116Y-26941012D02*
X65516878Y-27036250D01*
X65516878Y-27036250D02*
X65469259Y-27131488D01*
X65469259Y-27131488D02*
X65421640Y-27321964D01*
X65421640Y-27321964D02*
X65421640Y-27464821D01*
X65421640Y-27464821D02*
X65469259Y-27655297D01*
X65469259Y-27655297D02*
X65516878Y-27750535D01*
X65516878Y-27750535D02*
X65612116Y-27845774D01*
X65612116Y-27845774D02*
X65754973Y-27893393D01*
X65754973Y-27893393D02*
X65850211Y-27893393D01*
X65850211Y-27893393D02*
X65993068Y-27845774D01*
X65993068Y-27845774D02*
X66040687Y-27798154D01*
X66040687Y-27798154D02*
X66040687Y-27464821D01*
X66040687Y-27464821D02*
X65850211Y-27464821D01*
X66469259Y-27893393D02*
X66469259Y-26893393D01*
X66469259Y-26893393D02*
X67040687Y-27893393D01*
X67040687Y-27893393D02*
X67040687Y-26893393D01*
X67516878Y-27893393D02*
X67516878Y-26893393D01*
X67516878Y-26893393D02*
X67754973Y-26893393D01*
X67754973Y-26893393D02*
X67897830Y-26941012D01*
X67897830Y-26941012D02*
X67993068Y-27036250D01*
X67993068Y-27036250D02*
X68040687Y-27131488D01*
X68040687Y-27131488D02*
X68088306Y-27321964D01*
X68088306Y-27321964D02*
X68088306Y-27464821D01*
X68088306Y-27464821D02*
X68040687Y-27655297D01*
X68040687Y-27655297D02*
X67993068Y-27750535D01*
X67993068Y-27750535D02*
X67897830Y-27845774D01*
X67897830Y-27845774D02*
X67754973Y-27893393D01*
X67754973Y-27893393D02*
X67516878Y-27893393D01*
X40404819Y-40171904D02*
X41214342Y-40171904D01*
X41214342Y-40171904D02*
X41309580Y-40124285D01*
X41309580Y-40124285D02*
X41357200Y-40076666D01*
X41357200Y-40076666D02*
X41404819Y-39981428D01*
X41404819Y-39981428D02*
X41404819Y-39790952D01*
X41404819Y-39790952D02*
X41357200Y-39695714D01*
X41357200Y-39695714D02*
X41309580Y-39648095D01*
X41309580Y-39648095D02*
X41214342Y-39600476D01*
X41214342Y-39600476D02*
X40404819Y-39600476D01*
X41404819Y-38600476D02*
X41404819Y-39171904D01*
X41404819Y-38886190D02*
X40404819Y-38886190D01*
X40404819Y-38886190D02*
X40547676Y-38981428D01*
X40547676Y-38981428D02*
X40642914Y-39076666D01*
X40642914Y-39076666D02*
X40690533Y-39171904D01*
X27265714Y-38666009D02*
X27599047Y-38666009D01*
X27741904Y-39189819D02*
X27265714Y-39189819D01*
X27265714Y-39189819D02*
X27265714Y-38189819D01*
X27265714Y-38189819D02*
X27741904Y-38189819D01*
X28122857Y-39142200D02*
X28265714Y-39189819D01*
X28265714Y-39189819D02*
X28503809Y-39189819D01*
X28503809Y-39189819D02*
X28599047Y-39142200D01*
X28599047Y-39142200D02*
X28646666Y-39094580D01*
X28646666Y-39094580D02*
X28694285Y-38999342D01*
X28694285Y-38999342D02*
X28694285Y-38904104D01*
X28694285Y-38904104D02*
X28646666Y-38808866D01*
X28646666Y-38808866D02*
X28599047Y-38761247D01*
X28599047Y-38761247D02*
X28503809Y-38713628D01*
X28503809Y-38713628D02*
X28313333Y-38666009D01*
X28313333Y-38666009D02*
X28218095Y-38618390D01*
X28218095Y-38618390D02*
X28170476Y-38570771D01*
X28170476Y-38570771D02*
X28122857Y-38475533D01*
X28122857Y-38475533D02*
X28122857Y-38380295D01*
X28122857Y-38380295D02*
X28170476Y-38285057D01*
X28170476Y-38285057D02*
X28218095Y-38237438D01*
X28218095Y-38237438D02*
X28313333Y-38189819D01*
X28313333Y-38189819D02*
X28551428Y-38189819D01*
X28551428Y-38189819D02*
X28694285Y-38237438D01*
X29122857Y-39189819D02*
X29122857Y-38189819D01*
X29122857Y-38189819D02*
X29503809Y-38189819D01*
X29503809Y-38189819D02*
X29599047Y-38237438D01*
X29599047Y-38237438D02*
X29646666Y-38285057D01*
X29646666Y-38285057D02*
X29694285Y-38380295D01*
X29694285Y-38380295D02*
X29694285Y-38523152D01*
X29694285Y-38523152D02*
X29646666Y-38618390D01*
X29646666Y-38618390D02*
X29599047Y-38666009D01*
X29599047Y-38666009D02*
X29503809Y-38713628D01*
X29503809Y-38713628D02*
X29122857Y-38713628D01*
X30122857Y-38808866D02*
X30884762Y-38808866D01*
X31884761Y-39189819D02*
X31313333Y-39189819D01*
X31599047Y-39189819D02*
X31599047Y-38189819D01*
X31599047Y-38189819D02*
X31503809Y-38332676D01*
X31503809Y-38332676D02*
X31408571Y-38427914D01*
X31408571Y-38427914D02*
X31313333Y-38475533D01*
X32265714Y-38285057D02*
X32313333Y-38237438D01*
X32313333Y-38237438D02*
X32408571Y-38189819D01*
X32408571Y-38189819D02*
X32646666Y-38189819D01*
X32646666Y-38189819D02*
X32741904Y-38237438D01*
X32741904Y-38237438D02*
X32789523Y-38285057D01*
X32789523Y-38285057D02*
X32837142Y-38380295D01*
X32837142Y-38380295D02*
X32837142Y-38475533D01*
X32837142Y-38475533D02*
X32789523Y-38618390D01*
X32789523Y-38618390D02*
X32218095Y-39189819D01*
X32218095Y-39189819D02*
X32837142Y-39189819D01*
X33265714Y-38666009D02*
X33599047Y-38666009D01*
X33741904Y-39189819D02*
X33265714Y-39189819D01*
X33265714Y-39189819D02*
X33265714Y-38189819D01*
X33265714Y-38189819D02*
X33741904Y-38189819D01*
X76967269Y-53443094D02*
X75967269Y-53443094D01*
X75967269Y-53443094D02*
X75967269Y-53204999D01*
X75967269Y-53204999D02*
X76014888Y-53062142D01*
X76014888Y-53062142D02*
X76110126Y-52966904D01*
X76110126Y-52966904D02*
X76205364Y-52919285D01*
X76205364Y-52919285D02*
X76395840Y-52871666D01*
X76395840Y-52871666D02*
X76538697Y-52871666D01*
X76538697Y-52871666D02*
X76729173Y-52919285D01*
X76729173Y-52919285D02*
X76824411Y-52966904D01*
X76824411Y-52966904D02*
X76919650Y-53062142D01*
X76919650Y-53062142D02*
X76967269Y-53204999D01*
X76967269Y-53204999D02*
X76967269Y-53443094D01*
X76300602Y-52014523D02*
X76967269Y-52014523D01*
X75919650Y-52252618D02*
X76633935Y-52490713D01*
X76633935Y-52490713D02*
X76633935Y-51871666D01*
X72559104Y-55483094D02*
X72559104Y-55006904D01*
X72844819Y-55578332D02*
X71844819Y-55244999D01*
X71844819Y-55244999D02*
X72844819Y-54911666D01*
X66501174Y-53700419D02*
X66453555Y-53795657D01*
X66453555Y-53795657D02*
X66453555Y-53938514D01*
X66453555Y-53938514D02*
X66501174Y-54081371D01*
X66501174Y-54081371D02*
X66596412Y-54176609D01*
X66596412Y-54176609D02*
X66691650Y-54224228D01*
X66691650Y-54224228D02*
X66882126Y-54271847D01*
X66882126Y-54271847D02*
X67024983Y-54271847D01*
X67024983Y-54271847D02*
X67215459Y-54224228D01*
X67215459Y-54224228D02*
X67310697Y-54176609D01*
X67310697Y-54176609D02*
X67405936Y-54081371D01*
X67405936Y-54081371D02*
X67453555Y-53938514D01*
X67453555Y-53938514D02*
X67453555Y-53843276D01*
X67453555Y-53843276D02*
X67405936Y-53700419D01*
X67405936Y-53700419D02*
X67358316Y-53652800D01*
X67358316Y-53652800D02*
X67024983Y-53652800D01*
X67024983Y-53652800D02*
X67024983Y-53843276D01*
X67453555Y-53224228D02*
X66453555Y-53224228D01*
X66453555Y-53224228D02*
X67453555Y-52652800D01*
X67453555Y-52652800D02*
X66453555Y-52652800D01*
X67453555Y-52176609D02*
X66453555Y-52176609D01*
X66453555Y-52176609D02*
X66453555Y-51938514D01*
X66453555Y-51938514D02*
X66501174Y-51795657D01*
X66501174Y-51795657D02*
X66596412Y-51700419D01*
X66596412Y-51700419D02*
X66691650Y-51652800D01*
X66691650Y-51652800D02*
X66882126Y-51605181D01*
X66882126Y-51605181D02*
X67024983Y-51605181D01*
X67024983Y-51605181D02*
X67215459Y-51652800D01*
X67215459Y-51652800D02*
X67310697Y-51700419D01*
X67310697Y-51700419D02*
X67405936Y-51795657D01*
X67405936Y-51795657D02*
X67453555Y-51938514D01*
X67453555Y-51938514D02*
X67453555Y-52176609D01*
X90758819Y-52871666D02*
X90282628Y-53204999D01*
X90758819Y-53443094D02*
X89758819Y-53443094D01*
X89758819Y-53443094D02*
X89758819Y-53062142D01*
X89758819Y-53062142D02*
X89806438Y-52966904D01*
X89806438Y-52966904D02*
X89854057Y-52919285D01*
X89854057Y-52919285D02*
X89949295Y-52871666D01*
X89949295Y-52871666D02*
X90092152Y-52871666D01*
X90092152Y-52871666D02*
X90187390Y-52919285D01*
X90187390Y-52919285D02*
X90235009Y-52966904D01*
X90235009Y-52966904D02*
X90282628Y-53062142D01*
X90282628Y-53062142D02*
X90282628Y-53443094D01*
X89758819Y-52538332D02*
X89758819Y-51871666D01*
X89758819Y-51871666D02*
X90758819Y-52300237D01*
X53166655Y-30752056D02*
X53214275Y-30799675D01*
X53214275Y-30799675D02*
X53261894Y-30942532D01*
X53261894Y-30942532D02*
X53261894Y-31037770D01*
X53261894Y-31037770D02*
X53214275Y-31180627D01*
X53214275Y-31180627D02*
X53119036Y-31275865D01*
X53119036Y-31275865D02*
X53023798Y-31323484D01*
X53023798Y-31323484D02*
X52833322Y-31371103D01*
X52833322Y-31371103D02*
X52690465Y-31371103D01*
X52690465Y-31371103D02*
X52499989Y-31323484D01*
X52499989Y-31323484D02*
X52404751Y-31275865D01*
X52404751Y-31275865D02*
X52309513Y-31180627D01*
X52309513Y-31180627D02*
X52261894Y-31037770D01*
X52261894Y-31037770D02*
X52261894Y-30942532D01*
X52261894Y-30942532D02*
X52309513Y-30799675D01*
X52309513Y-30799675D02*
X52357132Y-30752056D01*
X52690465Y-30180627D02*
X52642846Y-30275865D01*
X52642846Y-30275865D02*
X52595227Y-30323484D01*
X52595227Y-30323484D02*
X52499989Y-30371103D01*
X52499989Y-30371103D02*
X52452370Y-30371103D01*
X52452370Y-30371103D02*
X52357132Y-30323484D01*
X52357132Y-30323484D02*
X52309513Y-30275865D01*
X52309513Y-30275865D02*
X52261894Y-30180627D01*
X52261894Y-30180627D02*
X52261894Y-29990151D01*
X52261894Y-29990151D02*
X52309513Y-29894913D01*
X52309513Y-29894913D02*
X52357132Y-29847294D01*
X52357132Y-29847294D02*
X52452370Y-29799675D01*
X52452370Y-29799675D02*
X52499989Y-29799675D01*
X52499989Y-29799675D02*
X52595227Y-29847294D01*
X52595227Y-29847294D02*
X52642846Y-29894913D01*
X52642846Y-29894913D02*
X52690465Y-29990151D01*
X52690465Y-29990151D02*
X52690465Y-30180627D01*
X52690465Y-30180627D02*
X52738084Y-30275865D01*
X52738084Y-30275865D02*
X52785703Y-30323484D01*
X52785703Y-30323484D02*
X52880941Y-30371103D01*
X52880941Y-30371103D02*
X53071417Y-30371103D01*
X53071417Y-30371103D02*
X53166655Y-30323484D01*
X53166655Y-30323484D02*
X53214275Y-30275865D01*
X53214275Y-30275865D02*
X53261894Y-30180627D01*
X53261894Y-30180627D02*
X53261894Y-29990151D01*
X53261894Y-29990151D02*
X53214275Y-29894913D01*
X53214275Y-29894913D02*
X53166655Y-29847294D01*
X53166655Y-29847294D02*
X53071417Y-29799675D01*
X53071417Y-29799675D02*
X52880941Y-29799675D01*
X52880941Y-29799675D02*
X52785703Y-29847294D01*
X52785703Y-29847294D02*
X52738084Y-29894913D01*
X52738084Y-29894913D02*
X52690465Y-29990151D01*
X54936728Y-27964016D02*
X55079585Y-28011635D01*
X55079585Y-28011635D02*
X55317680Y-28011635D01*
X55317680Y-28011635D02*
X55412918Y-27964016D01*
X55412918Y-27964016D02*
X55460537Y-27916396D01*
X55460537Y-27916396D02*
X55508156Y-27821158D01*
X55508156Y-27821158D02*
X55508156Y-27725920D01*
X55508156Y-27725920D02*
X55460537Y-27630682D01*
X55460537Y-27630682D02*
X55412918Y-27583063D01*
X55412918Y-27583063D02*
X55317680Y-27535444D01*
X55317680Y-27535444D02*
X55127204Y-27487825D01*
X55127204Y-27487825D02*
X55031966Y-27440206D01*
X55031966Y-27440206D02*
X54984347Y-27392587D01*
X54984347Y-27392587D02*
X54936728Y-27297349D01*
X54936728Y-27297349D02*
X54936728Y-27202111D01*
X54936728Y-27202111D02*
X54984347Y-27106873D01*
X54984347Y-27106873D02*
X55031966Y-27059254D01*
X55031966Y-27059254D02*
X55127204Y-27011635D01*
X55127204Y-27011635D02*
X55365299Y-27011635D01*
X55365299Y-27011635D02*
X55508156Y-27059254D01*
X56508156Y-27916396D02*
X56460537Y-27964016D01*
X56460537Y-27964016D02*
X56317680Y-28011635D01*
X56317680Y-28011635D02*
X56222442Y-28011635D01*
X56222442Y-28011635D02*
X56079585Y-27964016D01*
X56079585Y-27964016D02*
X55984347Y-27868777D01*
X55984347Y-27868777D02*
X55936728Y-27773539D01*
X55936728Y-27773539D02*
X55889109Y-27583063D01*
X55889109Y-27583063D02*
X55889109Y-27440206D01*
X55889109Y-27440206D02*
X55936728Y-27249730D01*
X55936728Y-27249730D02*
X55984347Y-27154492D01*
X55984347Y-27154492D02*
X56079585Y-27059254D01*
X56079585Y-27059254D02*
X56222442Y-27011635D01*
X56222442Y-27011635D02*
X56317680Y-27011635D01*
X56317680Y-27011635D02*
X56460537Y-27059254D01*
X56460537Y-27059254D02*
X56508156Y-27106873D01*
X56889109Y-27725920D02*
X57365299Y-27725920D01*
X56793871Y-28011635D02*
X57127204Y-27011635D01*
X57127204Y-27011635D02*
X57460537Y-28011635D01*
X57793871Y-28011635D02*
X57793871Y-27011635D01*
X57793871Y-27011635D02*
X58365299Y-28011635D01*
X58365299Y-28011635D02*
X58365299Y-27011635D01*
X71031209Y-33849812D02*
X71745494Y-33849812D01*
X71745494Y-33849812D02*
X71888351Y-33897431D01*
X71888351Y-33897431D02*
X71983590Y-33992669D01*
X71983590Y-33992669D02*
X72031209Y-34135526D01*
X72031209Y-34135526D02*
X72031209Y-34230764D01*
X71031209Y-33468859D02*
X71031209Y-32849812D01*
X71031209Y-32849812D02*
X71412161Y-33183145D01*
X71412161Y-33183145D02*
X71412161Y-33040288D01*
X71412161Y-33040288D02*
X71459780Y-32945050D01*
X71459780Y-32945050D02*
X71507399Y-32897431D01*
X71507399Y-32897431D02*
X71602637Y-32849812D01*
X71602637Y-32849812D02*
X71840732Y-32849812D01*
X71840732Y-32849812D02*
X71935970Y-32897431D01*
X71935970Y-32897431D02*
X71983590Y-32945050D01*
X71983590Y-32945050D02*
X72031209Y-33040288D01*
X72031209Y-33040288D02*
X72031209Y-33326002D01*
X72031209Y-33326002D02*
X71983590Y-33421240D01*
X71983590Y-33421240D02*
X71935970Y-33468859D01*
X15733609Y-54546875D02*
X15400276Y-54070684D01*
X15162181Y-54546875D02*
X15162181Y-53546875D01*
X15162181Y-53546875D02*
X15543133Y-53546875D01*
X15543133Y-53546875D02*
X15638371Y-53594494D01*
X15638371Y-53594494D02*
X15685990Y-53642113D01*
X15685990Y-53642113D02*
X15733609Y-53737351D01*
X15733609Y-53737351D02*
X15733609Y-53880208D01*
X15733609Y-53880208D02*
X15685990Y-53975446D01*
X15685990Y-53975446D02*
X15638371Y-54023065D01*
X15638371Y-54023065D02*
X15543133Y-54070684D01*
X15543133Y-54070684D02*
X15162181Y-54070684D01*
X16590752Y-53880208D02*
X16590752Y-54546875D01*
X16352657Y-53499256D02*
X16114562Y-54213541D01*
X16114562Y-54213541D02*
X16733609Y-54213541D01*
X44936083Y-45890920D02*
X44983703Y-45938539D01*
X44983703Y-45938539D02*
X45031322Y-46081396D01*
X45031322Y-46081396D02*
X45031322Y-46176634D01*
X45031322Y-46176634D02*
X44983703Y-46319491D01*
X44983703Y-46319491D02*
X44888464Y-46414729D01*
X44888464Y-46414729D02*
X44793226Y-46462348D01*
X44793226Y-46462348D02*
X44602750Y-46509967D01*
X44602750Y-46509967D02*
X44459893Y-46509967D01*
X44459893Y-46509967D02*
X44269417Y-46462348D01*
X44269417Y-46462348D02*
X44174179Y-46414729D01*
X44174179Y-46414729D02*
X44078941Y-46319491D01*
X44078941Y-46319491D02*
X44031322Y-46176634D01*
X44031322Y-46176634D02*
X44031322Y-46081396D01*
X44031322Y-46081396D02*
X44078941Y-45938539D01*
X44078941Y-45938539D02*
X44126560Y-45890920D01*
X44031322Y-45557586D02*
X44031322Y-44938539D01*
X44031322Y-44938539D02*
X44412274Y-45271872D01*
X44412274Y-45271872D02*
X44412274Y-45129015D01*
X44412274Y-45129015D02*
X44459893Y-45033777D01*
X44459893Y-45033777D02*
X44507512Y-44986158D01*
X44507512Y-44986158D02*
X44602750Y-44938539D01*
X44602750Y-44938539D02*
X44840845Y-44938539D01*
X44840845Y-44938539D02*
X44936083Y-44986158D01*
X44936083Y-44986158D02*
X44983703Y-45033777D01*
X44983703Y-45033777D02*
X45031322Y-45129015D01*
X45031322Y-45129015D02*
X45031322Y-45414729D01*
X45031322Y-45414729D02*
X44983703Y-45509967D01*
X44983703Y-45509967D02*
X44936083Y-45557586D01*
X30023964Y-28621570D02*
X30166821Y-28669189D01*
X30166821Y-28669189D02*
X30404916Y-28669189D01*
X30404916Y-28669189D02*
X30500154Y-28621570D01*
X30500154Y-28621570D02*
X30547773Y-28573950D01*
X30547773Y-28573950D02*
X30595392Y-28478712D01*
X30595392Y-28478712D02*
X30595392Y-28383474D01*
X30595392Y-28383474D02*
X30547773Y-28288236D01*
X30547773Y-28288236D02*
X30500154Y-28240617D01*
X30500154Y-28240617D02*
X30404916Y-28192998D01*
X30404916Y-28192998D02*
X30214440Y-28145379D01*
X30214440Y-28145379D02*
X30119202Y-28097760D01*
X30119202Y-28097760D02*
X30071583Y-28050141D01*
X30071583Y-28050141D02*
X30023964Y-27954903D01*
X30023964Y-27954903D02*
X30023964Y-27859665D01*
X30023964Y-27859665D02*
X30071583Y-27764427D01*
X30071583Y-27764427D02*
X30119202Y-27716808D01*
X30119202Y-27716808D02*
X30214440Y-27669189D01*
X30214440Y-27669189D02*
X30452535Y-27669189D01*
X30452535Y-27669189D02*
X30595392Y-27716808D01*
X30928726Y-27669189D02*
X31166821Y-28669189D01*
X31166821Y-28669189D02*
X31357297Y-27954903D01*
X31357297Y-27954903D02*
X31547773Y-28669189D01*
X31547773Y-28669189D02*
X31785869Y-27669189D01*
X32690630Y-28669189D02*
X32119202Y-28669189D01*
X32404916Y-28669189D02*
X32404916Y-27669189D01*
X32404916Y-27669189D02*
X32309678Y-27812046D01*
X32309678Y-27812046D02*
X32214440Y-27907284D01*
X32214440Y-27907284D02*
X32119202Y-27954903D01*
X34664531Y-28795120D02*
X34331198Y-28318929D01*
X34093103Y-28795120D02*
X34093103Y-27795120D01*
X34093103Y-27795120D02*
X34474055Y-27795120D01*
X34474055Y-27795120D02*
X34569293Y-27842739D01*
X34569293Y-27842739D02*
X34616912Y-27890358D01*
X34616912Y-27890358D02*
X34664531Y-27985596D01*
X34664531Y-27985596D02*
X34664531Y-28128453D01*
X34664531Y-28128453D02*
X34616912Y-28223691D01*
X34616912Y-28223691D02*
X34569293Y-28271310D01*
X34569293Y-28271310D02*
X34474055Y-28318929D01*
X34474055Y-28318929D02*
X34093103Y-28318929D01*
X35474055Y-28747501D02*
X35378817Y-28795120D01*
X35378817Y-28795120D02*
X35188341Y-28795120D01*
X35188341Y-28795120D02*
X35093103Y-28747501D01*
X35093103Y-28747501D02*
X35045484Y-28652262D01*
X35045484Y-28652262D02*
X35045484Y-28271310D01*
X35045484Y-28271310D02*
X35093103Y-28176072D01*
X35093103Y-28176072D02*
X35188341Y-28128453D01*
X35188341Y-28128453D02*
X35378817Y-28128453D01*
X35378817Y-28128453D02*
X35474055Y-28176072D01*
X35474055Y-28176072D02*
X35521674Y-28271310D01*
X35521674Y-28271310D02*
X35521674Y-28366548D01*
X35521674Y-28366548D02*
X35045484Y-28461786D01*
X35902627Y-28747501D02*
X35997865Y-28795120D01*
X35997865Y-28795120D02*
X36188341Y-28795120D01*
X36188341Y-28795120D02*
X36283579Y-28747501D01*
X36283579Y-28747501D02*
X36331198Y-28652262D01*
X36331198Y-28652262D02*
X36331198Y-28604643D01*
X36331198Y-28604643D02*
X36283579Y-28509405D01*
X36283579Y-28509405D02*
X36188341Y-28461786D01*
X36188341Y-28461786D02*
X36045484Y-28461786D01*
X36045484Y-28461786D02*
X35950246Y-28414167D01*
X35950246Y-28414167D02*
X35902627Y-28318929D01*
X35902627Y-28318929D02*
X35902627Y-28271310D01*
X35902627Y-28271310D02*
X35950246Y-28176072D01*
X35950246Y-28176072D02*
X36045484Y-28128453D01*
X36045484Y-28128453D02*
X36188341Y-28128453D01*
X36188341Y-28128453D02*
X36283579Y-28176072D01*
X37140722Y-28747501D02*
X37045484Y-28795120D01*
X37045484Y-28795120D02*
X36855008Y-28795120D01*
X36855008Y-28795120D02*
X36759770Y-28747501D01*
X36759770Y-28747501D02*
X36712151Y-28652262D01*
X36712151Y-28652262D02*
X36712151Y-28271310D01*
X36712151Y-28271310D02*
X36759770Y-28176072D01*
X36759770Y-28176072D02*
X36855008Y-28128453D01*
X36855008Y-28128453D02*
X37045484Y-28128453D01*
X37045484Y-28128453D02*
X37140722Y-28176072D01*
X37140722Y-28176072D02*
X37188341Y-28271310D01*
X37188341Y-28271310D02*
X37188341Y-28366548D01*
X37188341Y-28366548D02*
X36712151Y-28461786D01*
X37474056Y-28128453D02*
X37855008Y-28128453D01*
X37616913Y-27795120D02*
X37616913Y-28652262D01*
X37616913Y-28652262D02*
X37664532Y-28747501D01*
X37664532Y-28747501D02*
X37759770Y-28795120D01*
X37759770Y-28795120D02*
X37855008Y-28795120D01*
D12*
X30450378Y-55159428D02*
X30450378Y-59659428D01*
X32950378Y-60909428D02*
X34450378Y-60909428D01*
X34450378Y-53909428D02*
X32950378Y-53909428D01*
X36950378Y-59659428D02*
X36950378Y-55159428D01*
X67770000Y-38150000D02*
X70010000Y-38150000D01*
X67770000Y-38270000D02*
X70010000Y-38270000D01*
X67770000Y-38390000D02*
X70010000Y-38390000D01*
X68890000Y-34100000D02*
X68890000Y-34750000D01*
X68890000Y-39640000D02*
X68890000Y-38990000D01*
X67770000Y-34750000D02*
X70010000Y-34750000D01*
X70010000Y-38990000D01*
X67770000Y-38990000D01*
X67770000Y-34750000D01*
X90332657Y-60298335D02*
X90669657Y-60298335D01*
X90332657Y-65538335D02*
X90332657Y-60298335D01*
X90669657Y-65538335D02*
X90332657Y-65538335D01*
X92735657Y-60298335D02*
X93072657Y-60298335D01*
X93072657Y-60298335D02*
X93072657Y-65538335D01*
X93072657Y-65538335D02*
X92735657Y-65538335D01*
X78768719Y-54040158D02*
X78768719Y-54110158D01*
X80138719Y-52670158D02*
G75*
G02*
X77398719Y-52670158I-1370000J0D01*
G01*
X77398719Y-52670158D02*
G75*
G02*
X80138719Y-52670158I1370000J0D01*
G01*
X36995627Y-64332434D02*
X38895627Y-64332434D01*
X36995627Y-66232434D02*
X36995627Y-64332434D01*
X38895627Y-64332434D02*
X38895627Y-66232434D01*
X38895627Y-66232434D02*
X36995627Y-66232434D01*
X37077705Y-21520000D02*
X38457705Y-21520000D01*
X37077705Y-22900000D02*
X37077705Y-21520000D01*
X37077705Y-24170000D02*
X37077705Y-26820000D01*
X37077705Y-24170000D02*
X39837705Y-24170000D01*
X37077705Y-26820000D02*
X39837705Y-26820000D01*
X39837705Y-24170000D02*
X39837705Y-26820000D01*
X40160267Y-64332434D02*
X42060267Y-64332434D01*
X40160267Y-66232434D02*
X40160267Y-64332434D01*
X42060267Y-64332434D02*
X42060267Y-66232434D01*
X42060267Y-66232434D02*
X40160267Y-66232434D01*
X43430000Y-17710000D02*
X43430000Y-19360000D01*
X43430000Y-21360000D02*
X43430000Y-23010000D01*
X43430000Y-23010000D02*
X63870000Y-23010000D01*
X63870000Y-17710000D02*
X43430000Y-17710000D01*
X63870000Y-23010000D02*
X63870000Y-17710000D01*
X43370000Y-15220000D02*
X63930000Y-15220000D01*
X63930000Y-25500000D01*
X43370000Y-25500000D01*
X43370000Y-15220000D01*
X43430000Y-19360000D02*
G75*
G02*
X43430000Y-21360000I0J-1000000D01*
G01*
X25709465Y-66592397D02*
X25709465Y-65212397D01*
X27089465Y-66592397D02*
X25709465Y-66592397D01*
X28359465Y-63832397D02*
X33549465Y-63832397D01*
X28359465Y-66592397D02*
X28359465Y-63832397D01*
X28359465Y-66592397D02*
X33549465Y-66592397D01*
X33549465Y-66592397D02*
X33549465Y-63832397D01*
X67510000Y-47399829D02*
X67510000Y-44749829D01*
X70270000Y-44749829D02*
X67510000Y-44749829D01*
X70270000Y-47399829D02*
X67510000Y-47399829D01*
X70270000Y-47399829D02*
X70270000Y-44749829D01*
X70270000Y-48669829D02*
X70270000Y-50049829D01*
X70270000Y-50049829D02*
X68890000Y-50049829D01*
X83351360Y-53996529D02*
X83351360Y-54110158D01*
X84677731Y-52670158D02*
G75*
G02*
X82024989Y-52670158I-1326371J0D01*
G01*
X82024989Y-52670158D02*
G75*
G02*
X84677731Y-52670158I1326371J0D01*
G01*
X61892746Y-60424031D02*
X62229746Y-60424031D01*
X61892746Y-65664031D02*
X61892746Y-60424031D01*
X62229746Y-65664031D02*
X61892746Y-65664031D01*
X64295746Y-60424031D02*
X64632746Y-60424031D01*
X64632746Y-60424031D02*
X64632746Y-65664031D01*
X64632746Y-65664031D02*
X64295746Y-65664031D01*
X44720000Y-26610000D02*
X49960000Y-26610000D01*
X44720000Y-26947000D02*
X44720000Y-26610000D01*
X44720000Y-29350000D02*
X44720000Y-29013000D01*
X49960000Y-26610000D02*
X49960000Y-26947000D01*
X49960000Y-29013000D02*
X49960000Y-29350000D01*
X49960000Y-29350000D02*
X44720000Y-29350000D01*
X19087755Y-57493466D02*
X19857755Y-57493466D01*
X27167755Y-57493466D02*
X26397755Y-57493466D01*
X19857755Y-56123466D02*
X26397755Y-56123466D01*
X26397755Y-58863466D01*
X19857755Y-58863466D01*
X19857755Y-56123466D01*
X17860000Y-29250000D02*
X18630000Y-29250000D01*
X25940000Y-29250000D02*
X25170000Y-29250000D01*
X18630000Y-27880000D02*
X25170000Y-27880000D01*
X25170000Y-30620000D01*
X18630000Y-30620000D01*
X18630000Y-27880000D01*
X19130000Y-61000000D02*
X19900000Y-61000000D01*
X27210000Y-61000000D02*
X26440000Y-61000000D01*
X19900000Y-59630000D02*
X26440000Y-59630000D01*
X26440000Y-62370000D01*
X19900000Y-62370000D01*
X19900000Y-59630000D01*
X48117876Y-41190416D02*
X61117876Y-41190416D01*
X61117876Y-66990416D01*
X48117876Y-66990416D01*
X48117876Y-41190416D01*
D13*
X59852876Y-44190416D02*
G75*
G02*
X59542876Y-44190416I-155000J0D01*
G01*
X59542876Y-44190416D02*
G75*
G02*
X59852876Y-44190416I155000J0D01*
G01*
D12*
X21847705Y-20969199D02*
X22184705Y-20969199D01*
X21847705Y-26209199D02*
X21847705Y-20969199D01*
X22184705Y-26209199D02*
X21847705Y-26209199D01*
X24250705Y-20969199D02*
X24587705Y-20969199D01*
X24587705Y-20969199D02*
X24587705Y-26209199D01*
X24587705Y-26209199D02*
X24250705Y-26209199D01*
X72583158Y-40790000D02*
X72583158Y-39410000D01*
X73963158Y-40790000D02*
X72583158Y-40790000D01*
X75233158Y-38030000D02*
X93123158Y-38030000D01*
X75233158Y-40790000D02*
X75233158Y-38030000D01*
X75233158Y-40790000D02*
X93123158Y-40790000D01*
X93123158Y-40790000D02*
X93123158Y-38030000D01*
X68178907Y-54838515D02*
X70078907Y-54838515D01*
X68178907Y-56738515D02*
X68178907Y-54838515D01*
X70078907Y-54838515D02*
X70078907Y-56738515D01*
X70078907Y-56738515D02*
X68178907Y-56738515D01*
X65230000Y-38150000D02*
X67470000Y-38150000D01*
X65230000Y-38270000D02*
X67470000Y-38270000D01*
X65230000Y-38390000D02*
X67470000Y-38390000D01*
X66350000Y-34100000D02*
X66350000Y-34750000D01*
X66350000Y-39640000D02*
X66350000Y-38990000D01*
X65230000Y-34750000D02*
X67470000Y-34750000D01*
X67470000Y-38990000D01*
X65230000Y-38990000D01*
X65230000Y-34750000D01*
X71322657Y-58958335D02*
X71322657Y-64258335D01*
X71322657Y-64258335D02*
X89222657Y-64258335D01*
X89222657Y-58958335D02*
X71322657Y-58958335D01*
X89222657Y-60608335D02*
X89222657Y-58958335D01*
X89222657Y-64258335D02*
X89222657Y-62608335D01*
X71262657Y-56468335D02*
X89282657Y-56468335D01*
X89282657Y-66748335D01*
X71262657Y-66748335D01*
X71262657Y-56468335D01*
X89222657Y-62608335D02*
G75*
G02*
X89222657Y-60608335I0J1000000D01*
G01*
X71755000Y-20090000D02*
X71755000Y-20860000D01*
X71755000Y-28170000D02*
X71755000Y-27400000D01*
X70385000Y-20860000D02*
X73125000Y-20860000D01*
X73125000Y-27400000D01*
X70385000Y-27400000D01*
X70385000Y-20860000D01*
X21790000Y-17930000D02*
X21790000Y-16550000D01*
X23170000Y-17930000D02*
X21790000Y-17930000D01*
X24440000Y-15170000D02*
X37250000Y-15170000D01*
X24440000Y-17930000D02*
X24440000Y-15170000D01*
X24440000Y-17930000D02*
X37250000Y-17930000D01*
X37250000Y-17930000D02*
X37250000Y-15170000D01*
X41613993Y-54912888D02*
X38636993Y-54912888D01*
X41613993Y-54952888D02*
X38644993Y-54952888D01*
X41613993Y-54992888D02*
X38651993Y-54992888D01*
X41613993Y-55032888D02*
X38660993Y-55032888D01*
X41613993Y-55072888D02*
X38668993Y-55072888D01*
X41613993Y-55112888D02*
X38677993Y-55112888D01*
X41613993Y-55152888D02*
X38686993Y-55152888D01*
X41613993Y-55192888D02*
X38696993Y-55192888D01*
X41613993Y-55232888D02*
X38706993Y-55232888D01*
X41613993Y-55272888D02*
X38717993Y-55272888D01*
X41613993Y-55312888D02*
X38728993Y-55312888D01*
X41613993Y-55352888D02*
X38740993Y-55352888D01*
X41613993Y-55392888D02*
X38752993Y-55392888D01*
X41613993Y-55432888D02*
X38764993Y-55432888D01*
X41613993Y-55472888D02*
X38777993Y-55472888D01*
X41613993Y-55512888D02*
X38790993Y-55512888D01*
X41613993Y-55552888D02*
X38804993Y-55552888D01*
X41613993Y-55592888D02*
X38818993Y-55592888D01*
X41613993Y-55632888D02*
X38833993Y-55632888D01*
X41613993Y-55672888D02*
X38848993Y-55672888D01*
X41613993Y-55712888D02*
X38864993Y-55712888D01*
X41613993Y-55752888D02*
X38880993Y-55752888D01*
X41613993Y-55792888D02*
X38896993Y-55792888D01*
X41613993Y-55832888D02*
X38913993Y-55832888D01*
X41613993Y-55872888D02*
X38931993Y-55872888D01*
X41613993Y-55912888D02*
X38949993Y-55912888D01*
X41613993Y-55952888D02*
X38968993Y-55952888D01*
X41613993Y-55992888D02*
X38987993Y-55992888D01*
X41613993Y-56032888D02*
X39007993Y-56032888D01*
X41613993Y-56072888D02*
X39027993Y-56072888D01*
X41613993Y-56112888D02*
X39048993Y-56112888D01*
X41613993Y-56152888D02*
X39069993Y-56152888D01*
X41613993Y-56192888D02*
X39091993Y-56192888D01*
X41613993Y-56232888D02*
X39114993Y-56232888D01*
X41613993Y-56272888D02*
X39137993Y-56272888D01*
X41613993Y-56312888D02*
X39160993Y-56312888D01*
X41613993Y-56352888D02*
X39185993Y-56352888D01*
X41613993Y-56392888D02*
X39210993Y-56392888D01*
X41613993Y-56432888D02*
X39235993Y-56432888D01*
X41613993Y-56472888D02*
X39261993Y-56472888D01*
X41613993Y-56512888D02*
X39288993Y-56512888D01*
X41613993Y-56552888D02*
X39316993Y-56552888D01*
X41613993Y-56592888D02*
X39344993Y-56592888D01*
X41613993Y-56632888D02*
X39373993Y-56632888D01*
X41613993Y-56672888D02*
X39403993Y-56672888D01*
X41613993Y-56712888D02*
X39434993Y-56712888D01*
X41613993Y-56752888D02*
X39465993Y-56752888D01*
X41613993Y-56792888D02*
X39497993Y-56792888D01*
X41613993Y-56832888D02*
X39530993Y-56832888D01*
X41613993Y-56872888D02*
X39564993Y-56872888D01*
X41613993Y-56912888D02*
X39598993Y-56912888D01*
X41613993Y-56952888D02*
X39634993Y-56952888D01*
X43186993Y-58272888D02*
X42120993Y-58272888D01*
X43421993Y-58232888D02*
X41885993Y-58232888D01*
X43600993Y-58192888D02*
X41706993Y-58192888D01*
X43750993Y-58152888D02*
X41556993Y-58152888D01*
X43881993Y-58112888D02*
X41425993Y-58112888D01*
X43999993Y-58072888D02*
X41307993Y-58072888D01*
X44106993Y-58032888D02*
X41200993Y-58032888D01*
X44205993Y-57992888D02*
X41101993Y-57992888D01*
X44297993Y-57952888D02*
X41009993Y-57952888D01*
X44384993Y-57912888D02*
X40922993Y-57912888D01*
X44466993Y-57872888D02*
X40840993Y-57872888D01*
X44543993Y-57832888D02*
X40763993Y-57832888D01*
X44617993Y-57792888D02*
X40689993Y-57792888D01*
X44687993Y-57752888D02*
X40619993Y-57752888D01*
X44754993Y-57712888D02*
X40552993Y-57712888D01*
X44818993Y-57672888D02*
X40488993Y-57672888D01*
X44880993Y-57632888D02*
X40426993Y-57632888D01*
X44940993Y-57592888D02*
X40366993Y-57592888D01*
X44968993Y-49783190D02*
X44968993Y-50583190D01*
X44997993Y-57552888D02*
X40309993Y-57552888D01*
X45053993Y-57512888D02*
X40253993Y-57512888D01*
X45106993Y-57472888D02*
X40200993Y-57472888D01*
X45158993Y-57432888D02*
X40148993Y-57432888D01*
X45208993Y-57392888D02*
X40098993Y-57392888D01*
X45257993Y-57352888D02*
X40049993Y-57352888D01*
X45304993Y-57312888D02*
X40002993Y-57312888D01*
X45349993Y-57272888D02*
X39957993Y-57272888D01*
X45368993Y-50183190D02*
X44568993Y-50183190D01*
X45394993Y-57232888D02*
X39912993Y-57232888D01*
X45437993Y-57192888D02*
X39869993Y-57192888D01*
X45479993Y-57152888D02*
X39827993Y-57152888D01*
X45520993Y-57112888D02*
X39786993Y-57112888D01*
X45559993Y-57072888D02*
X39747993Y-57072888D01*
X45598993Y-57032888D02*
X39708993Y-57032888D01*
X45635993Y-56992888D02*
X39671993Y-56992888D01*
X45672993Y-56952888D02*
X43693993Y-56952888D01*
X45708993Y-56912888D02*
X43693993Y-56912888D01*
X45742993Y-56872888D02*
X43693993Y-56872888D01*
X45776993Y-56832888D02*
X43693993Y-56832888D01*
X45809993Y-56792888D02*
X43693993Y-56792888D01*
X45841993Y-56752888D02*
X43693993Y-56752888D01*
X45872993Y-56712888D02*
X43693993Y-56712888D01*
X45903993Y-56672888D02*
X43693993Y-56672888D01*
X45933993Y-56632888D02*
X43693993Y-56632888D01*
X45962993Y-56592888D02*
X43693993Y-56592888D01*
X45990993Y-56552888D02*
X43693993Y-56552888D01*
X46018993Y-56512888D02*
X43693993Y-56512888D01*
X46045993Y-56472888D02*
X43693993Y-56472888D01*
X46071993Y-56432888D02*
X43693993Y-56432888D01*
X46096993Y-56392888D02*
X43693993Y-56392888D01*
X46121993Y-56352888D02*
X43693993Y-56352888D01*
X46146993Y-56312888D02*
X43693993Y-56312888D01*
X46169993Y-56272888D02*
X43693993Y-56272888D01*
X46192993Y-56232888D02*
X43693993Y-56232888D01*
X46215993Y-56192888D02*
X43693993Y-56192888D01*
X46237993Y-56152888D02*
X43693993Y-56152888D01*
X46258993Y-56112888D02*
X43693993Y-56112888D01*
X46279993Y-56072888D02*
X43693993Y-56072888D01*
X46299993Y-56032888D02*
X43693993Y-56032888D01*
X46319993Y-55992888D02*
X43693993Y-55992888D01*
X46338993Y-55952888D02*
X43693993Y-55952888D01*
X46357993Y-55912888D02*
X43693993Y-55912888D01*
X46375993Y-55872888D02*
X43693993Y-55872888D01*
X46393993Y-55832888D02*
X43693993Y-55832888D01*
X46410993Y-55792888D02*
X43693993Y-55792888D01*
X46426993Y-55752888D02*
X43693993Y-55752888D01*
X46442993Y-55712888D02*
X43693993Y-55712888D01*
X46458993Y-55672888D02*
X43693993Y-55672888D01*
X46473993Y-55632888D02*
X43693993Y-55632888D01*
X46488993Y-55592888D02*
X43693993Y-55592888D01*
X46502993Y-55552888D02*
X43693993Y-55552888D01*
X46516993Y-55512888D02*
X43693993Y-55512888D01*
X46529993Y-55472888D02*
X43693993Y-55472888D01*
X46542993Y-55432888D02*
X43693993Y-55432888D01*
X46554993Y-55392888D02*
X43693993Y-55392888D01*
X46566993Y-55352888D02*
X43693993Y-55352888D01*
X46578993Y-55312888D02*
X43693993Y-55312888D01*
X46589993Y-55272888D02*
X43693993Y-55272888D01*
X46600993Y-55232888D02*
X43693993Y-55232888D01*
X46610993Y-55192888D02*
X43693993Y-55192888D01*
X46620993Y-55152888D02*
X43693993Y-55152888D01*
X46629993Y-55112888D02*
X43693993Y-55112888D01*
X46638993Y-55072888D02*
X43693993Y-55072888D01*
X46646993Y-55032888D02*
X43693993Y-55032888D01*
X46655993Y-54992888D02*
X43693993Y-54992888D01*
X46662993Y-54952888D02*
X43693993Y-54952888D01*
X46670993Y-54912888D02*
X43693993Y-54912888D01*
X46676993Y-54872888D02*
X38630993Y-54872888D01*
X46683993Y-54832888D02*
X38623993Y-54832888D01*
X46689993Y-54792888D02*
X38617993Y-54792888D01*
X46695993Y-54752888D02*
X38611993Y-54752888D01*
X46700993Y-54712888D02*
X38606993Y-54712888D01*
X46705993Y-54672888D02*
X38601993Y-54672888D01*
X46709993Y-54632888D02*
X38597993Y-54632888D01*
X46714993Y-54592888D02*
X38592993Y-54592888D01*
X46717993Y-54552888D02*
X38589993Y-54552888D01*
X46721993Y-54512888D02*
X38585993Y-54512888D01*
X46723993Y-54472888D02*
X38583993Y-54472888D01*
X46726993Y-54432888D02*
X38580993Y-54432888D01*
X46728993Y-54392888D02*
X38578993Y-54392888D01*
X46730993Y-54352888D02*
X38576993Y-54352888D01*
X46731993Y-54312888D02*
X38575993Y-54312888D01*
X46732993Y-54272888D02*
X38574993Y-54272888D01*
X46733993Y-54192888D02*
X38573993Y-54192888D01*
X46733993Y-54232888D02*
X38573993Y-54232888D01*
X46773993Y-54192888D02*
G75*
G02*
X38533993Y-54192888I-4120000J0D01*
G01*
X38533993Y-54192888D02*
G75*
G02*
X46773993Y-54192888I4120000J0D01*
G01*
X62860000Y-26520000D02*
X64760000Y-26520000D01*
X62860000Y-28420000D02*
X62860000Y-26520000D01*
X64760000Y-26520000D02*
X64760000Y-28420000D01*
X64760000Y-28420000D02*
X62860000Y-28420000D01*
X14660000Y-33290000D02*
X22280000Y-33290000D01*
X14660000Y-49530000D02*
X14660000Y-33290000D01*
X22280000Y-49530000D02*
X14660000Y-49530000D01*
X38280000Y-33290000D02*
X38900000Y-33290000D01*
X38900000Y-33290000D02*
X38900000Y-35410000D01*
X38900000Y-47410000D02*
X38900000Y-49530000D01*
X38900000Y-49530000D02*
X38280000Y-49530000D01*
X22280000Y-49960000D02*
X21944000Y-50200000D01*
X21944000Y-49720000D01*
X22280000Y-49960000D01*
G36*
X22280000Y-49960000D02*
G01*
X21944000Y-50200000D01*
X21944000Y-49720000D01*
X22280000Y-49960000D01*
G37*
X74186079Y-53996529D02*
X74186079Y-54110158D01*
X75512450Y-52670158D02*
G75*
G02*
X72859708Y-52670158I-1326371J0D01*
G01*
X72859708Y-52670158D02*
G75*
G02*
X75512450Y-52670158I1326371J0D01*
G01*
X68168736Y-51788515D02*
X70068736Y-51788515D01*
X68168736Y-53688515D02*
X68168736Y-51788515D01*
X70068736Y-51788515D02*
X70068736Y-53688515D01*
X70068736Y-53688515D02*
X68168736Y-53688515D01*
X87934000Y-54040158D02*
X87934000Y-54110158D01*
X89304000Y-52670158D02*
G75*
G02*
X86564000Y-52670158I-1370000J0D01*
G01*
X86564000Y-52670158D02*
G75*
G02*
X89304000Y-52670158I1370000J0D01*
G01*
X52107075Y-35624390D02*
X52107075Y-34426390D01*
X52147075Y-35887390D02*
X52147075Y-34163390D01*
X52187075Y-36087390D02*
X52187075Y-33963390D01*
X52227075Y-36255390D02*
X52227075Y-33795390D01*
X52267075Y-36402390D02*
X52267075Y-33648390D01*
X52307075Y-36534390D02*
X52307075Y-33516390D01*
X52347075Y-36655390D02*
X52347075Y-33395390D01*
X52387075Y-36767390D02*
X52387075Y-33283390D01*
X52427075Y-36871390D02*
X52427075Y-33179390D01*
X52467075Y-36969390D02*
X52467075Y-33081390D01*
X52507075Y-37062390D02*
X52507075Y-32988390D01*
X52547075Y-37149390D02*
X52547075Y-32901390D01*
X52587075Y-37233390D02*
X52587075Y-32817390D01*
X52627075Y-37313390D02*
X52627075Y-32737390D01*
X52667075Y-37390390D02*
X52667075Y-32660390D01*
X52707075Y-37464390D02*
X52707075Y-32586390D01*
X52747075Y-37535390D02*
X52747075Y-32515390D01*
X52787075Y-37603390D02*
X52787075Y-32447390D01*
X52827075Y-37669390D02*
X52827075Y-32381390D01*
X52867075Y-37733390D02*
X52867075Y-32317390D01*
X52907075Y-37795390D02*
X52907075Y-32255390D01*
X52947075Y-37855390D02*
X52947075Y-32195390D01*
X52987075Y-37913390D02*
X52987075Y-32137390D01*
X53027075Y-37970390D02*
X53027075Y-32080390D01*
X53067075Y-38025390D02*
X53067075Y-32025390D01*
X53107075Y-38078390D02*
X53107075Y-31972390D01*
X53147075Y-38130390D02*
X53147075Y-31920390D01*
X53187075Y-38181390D02*
X53187075Y-31869390D01*
X53227075Y-38230390D02*
X53227075Y-31820390D01*
X53267075Y-38279390D02*
X53267075Y-31771390D01*
X53307075Y-38326390D02*
X53307075Y-31724390D01*
X53347075Y-38372390D02*
X53347075Y-31678390D01*
X53387075Y-38416390D02*
X53387075Y-31634390D01*
X53427075Y-38460390D02*
X53427075Y-31590390D01*
X53467075Y-33785390D02*
X53467075Y-31547390D01*
X53467075Y-38503390D02*
X53467075Y-36265390D01*
X53507075Y-33785390D02*
X53507075Y-31505390D01*
X53507075Y-38545390D02*
X53507075Y-36265390D01*
X53547075Y-33785390D02*
X53547075Y-31464390D01*
X53547075Y-38586390D02*
X53547075Y-36265390D01*
X53587075Y-33785390D02*
X53587075Y-31424390D01*
X53587075Y-38626390D02*
X53587075Y-36265390D01*
X53627075Y-33785390D02*
X53627075Y-31385390D01*
X53627075Y-38665390D02*
X53627075Y-36265390D01*
X53667075Y-33785390D02*
X53667075Y-31347390D01*
X53667075Y-38703390D02*
X53667075Y-36265390D01*
X53707075Y-33785390D02*
X53707075Y-31309390D01*
X53707075Y-38741390D02*
X53707075Y-36265390D01*
X53747075Y-33785390D02*
X53747075Y-31273390D01*
X53747075Y-38777390D02*
X53747075Y-36265390D01*
X53787075Y-33785390D02*
X53787075Y-31237390D01*
X53787075Y-38813390D02*
X53787075Y-36265390D01*
X53827075Y-33785390D02*
X53827075Y-31202390D01*
X53827075Y-38848390D02*
X53827075Y-36265390D01*
X53867075Y-33785390D02*
X53867075Y-31167390D01*
X53867075Y-38883390D02*
X53867075Y-36265390D01*
X53907075Y-33785390D02*
X53907075Y-31134390D01*
X53907075Y-38916390D02*
X53907075Y-36265390D01*
X53947075Y-33785390D02*
X53947075Y-31101390D01*
X53947075Y-38949390D02*
X53947075Y-36265390D01*
X53987075Y-33785390D02*
X53987075Y-31068390D01*
X53987075Y-38982390D02*
X53987075Y-36265390D01*
X54027075Y-33785390D02*
X54027075Y-31037390D01*
X54027075Y-39013390D02*
X54027075Y-36265390D01*
X54067075Y-33785390D02*
X54067075Y-31005390D01*
X54067075Y-39045390D02*
X54067075Y-36265390D01*
X54107075Y-33785390D02*
X54107075Y-30975390D01*
X54107075Y-39075390D02*
X54107075Y-36265390D01*
X54147075Y-33785390D02*
X54147075Y-30945390D01*
X54147075Y-39105390D02*
X54147075Y-36265390D01*
X54187075Y-33785390D02*
X54187075Y-30916390D01*
X54187075Y-39134390D02*
X54187075Y-36265390D01*
X54227075Y-33785390D02*
X54227075Y-30887390D01*
X54227075Y-39163390D02*
X54227075Y-36265390D01*
X54267075Y-33785390D02*
X54267075Y-30859390D01*
X54267075Y-39191390D02*
X54267075Y-36265390D01*
X54307075Y-33785390D02*
X54307075Y-30832390D01*
X54307075Y-39218390D02*
X54307075Y-36265390D01*
X54347075Y-33785390D02*
X54347075Y-30805390D01*
X54347075Y-39245390D02*
X54347075Y-36265390D01*
X54387075Y-33785390D02*
X54387075Y-30778390D01*
X54387075Y-39272390D02*
X54387075Y-36265390D01*
X54427075Y-33785390D02*
X54427075Y-30753390D01*
X54427075Y-39297390D02*
X54427075Y-36265390D01*
X54467075Y-33785390D02*
X54467075Y-30727390D01*
X54467075Y-39323390D02*
X54467075Y-36265390D01*
X54507075Y-33785390D02*
X54507075Y-30702390D01*
X54507075Y-39348390D02*
X54507075Y-36265390D01*
X54547075Y-33785390D02*
X54547075Y-30678390D01*
X54547075Y-39372390D02*
X54547075Y-36265390D01*
X54587075Y-33785390D02*
X54587075Y-30654390D01*
X54587075Y-39396390D02*
X54587075Y-36265390D01*
X54627075Y-33785390D02*
X54627075Y-30631390D01*
X54627075Y-39419390D02*
X54627075Y-36265390D01*
X54667075Y-33785390D02*
X54667075Y-30608390D01*
X54667075Y-39442390D02*
X54667075Y-36265390D01*
X54707075Y-33785390D02*
X54707075Y-30586390D01*
X54707075Y-39464390D02*
X54707075Y-36265390D01*
X54747075Y-33785390D02*
X54747075Y-30564390D01*
X54747075Y-39486390D02*
X54747075Y-36265390D01*
X54787075Y-33785390D02*
X54787075Y-30542390D01*
X54787075Y-39508390D02*
X54787075Y-36265390D01*
X54827075Y-33785390D02*
X54827075Y-30521390D01*
X54827075Y-39529390D02*
X54827075Y-36265390D01*
X54867075Y-33785390D02*
X54867075Y-30501390D01*
X54867075Y-39549390D02*
X54867075Y-36265390D01*
X54907075Y-33785390D02*
X54907075Y-30481390D01*
X54907075Y-39569390D02*
X54907075Y-36265390D01*
X54947075Y-33785390D02*
X54947075Y-30461390D01*
X54947075Y-39589390D02*
X54947075Y-36265390D01*
X54987075Y-33785390D02*
X54987075Y-30442390D01*
X54987075Y-39608390D02*
X54987075Y-36265390D01*
X55027075Y-33785390D02*
X55027075Y-30423390D01*
X55027075Y-39627390D02*
X55027075Y-36265390D01*
X55067075Y-33785390D02*
X55067075Y-30405390D01*
X55067075Y-39645390D02*
X55067075Y-36265390D01*
X55107075Y-33785390D02*
X55107075Y-30387390D01*
X55107075Y-39663390D02*
X55107075Y-36265390D01*
X55147075Y-33785390D02*
X55147075Y-30369390D01*
X55147075Y-39681390D02*
X55147075Y-36265390D01*
X55187075Y-33785390D02*
X55187075Y-30352390D01*
X55187075Y-39698390D02*
X55187075Y-36265390D01*
X55227075Y-33785390D02*
X55227075Y-30335390D01*
X55227075Y-39715390D02*
X55227075Y-36265390D01*
X55267075Y-33785390D02*
X55267075Y-30319390D01*
X55267075Y-39731390D02*
X55267075Y-36265390D01*
X55307075Y-33785390D02*
X55307075Y-30303390D01*
X55307075Y-39747390D02*
X55307075Y-36265390D01*
X55347075Y-33785390D02*
X55347075Y-30287390D01*
X55347075Y-39763390D02*
X55347075Y-36265390D01*
X55387075Y-33785390D02*
X55387075Y-30272390D01*
X55387075Y-39778390D02*
X55387075Y-36265390D01*
X55427075Y-33785390D02*
X55427075Y-30257390D01*
X55427075Y-39793390D02*
X55427075Y-36265390D01*
X55467075Y-33785390D02*
X55467075Y-30243390D01*
X55467075Y-39807390D02*
X55467075Y-36265390D01*
X55507075Y-33785390D02*
X55507075Y-30228390D01*
X55507075Y-39822390D02*
X55507075Y-36265390D01*
X55547075Y-33785390D02*
X55547075Y-30215390D01*
X55547075Y-39835390D02*
X55547075Y-36265390D01*
X55587075Y-33785390D02*
X55587075Y-30201390D01*
X55587075Y-39849390D02*
X55587075Y-36265390D01*
X55627075Y-33785390D02*
X55627075Y-30188390D01*
X55627075Y-39862390D02*
X55627075Y-36265390D01*
X55667075Y-33785390D02*
X55667075Y-30176390D01*
X55667075Y-39874390D02*
X55667075Y-36265390D01*
X55707075Y-33785390D02*
X55707075Y-30164390D01*
X55707075Y-39886390D02*
X55707075Y-36265390D01*
X55747075Y-33785390D02*
X55747075Y-30152390D01*
X55747075Y-39898390D02*
X55747075Y-36265390D01*
X55787075Y-33785390D02*
X55787075Y-30140390D01*
X55787075Y-39910390D02*
X55787075Y-36265390D01*
X55827075Y-33785390D02*
X55827075Y-30129390D01*
X55827075Y-39921390D02*
X55827075Y-36265390D01*
X55867075Y-33785390D02*
X55867075Y-30118390D01*
X55867075Y-39932390D02*
X55867075Y-36265390D01*
X55907075Y-33785390D02*
X55907075Y-30108390D01*
X55907075Y-39942390D02*
X55907075Y-36265390D01*
X55947075Y-39953390D02*
X55947075Y-30097390D01*
X55987075Y-39962390D02*
X55987075Y-30088390D01*
X56027075Y-39972390D02*
X56027075Y-30078390D01*
X56067075Y-39981390D02*
X56067075Y-30069390D01*
X56107075Y-39990390D02*
X56107075Y-30060390D01*
X56147075Y-39998390D02*
X56147075Y-30052390D01*
X56187075Y-40006390D02*
X56187075Y-30044390D01*
X56227075Y-40014390D02*
X56227075Y-30036390D01*
X56267075Y-40022390D02*
X56267075Y-30028390D01*
X56307075Y-40029390D02*
X56307075Y-30021390D01*
X56347075Y-40036390D02*
X56347075Y-30014390D01*
X56387075Y-40042390D02*
X56387075Y-30008390D01*
X56427075Y-40048390D02*
X56427075Y-30002390D01*
X56467075Y-40054390D02*
X56467075Y-29996390D01*
X56507075Y-40060390D02*
X56507075Y-29990390D01*
X56547075Y-40065390D02*
X56547075Y-29985390D01*
X56587075Y-40070390D02*
X56587075Y-29980390D01*
X56627075Y-40074390D02*
X56627075Y-29976390D01*
X56667075Y-40079390D02*
X56667075Y-29971390D01*
X56707075Y-40082390D02*
X56707075Y-29968390D01*
X56747075Y-40086390D02*
X56747075Y-29964390D01*
X56787075Y-40089390D02*
X56787075Y-29961390D01*
X56827075Y-40092390D02*
X56827075Y-29958390D01*
X56867075Y-40095390D02*
X56867075Y-29955390D01*
X56907075Y-40097390D02*
X56907075Y-29953390D01*
X56947075Y-40099390D02*
X56947075Y-29951390D01*
X56987075Y-40101390D02*
X56987075Y-29949390D01*
X57027075Y-40102390D02*
X57027075Y-29948390D01*
X57067075Y-40104390D02*
X57067075Y-29946390D01*
X57107075Y-40104390D02*
X57107075Y-29946390D01*
X57147075Y-40105390D02*
X57147075Y-29945390D01*
X57187075Y-40105390D02*
X57187075Y-29945390D01*
X62166721Y-38400390D02*
X62166721Y-37400390D01*
X62666721Y-37900390D02*
X61666721Y-37900390D01*
X62307075Y-35025390D02*
G75*
G02*
X52067075Y-35025390I-5120000J0D01*
G01*
X52067075Y-35025390D02*
G75*
G02*
X62307075Y-35025390I5120000J0D01*
G01*
X59050000Y-26520000D02*
X60950000Y-26520000D01*
X59050000Y-28420000D02*
X59050000Y-26520000D01*
X60950000Y-26520000D02*
X60950000Y-28420000D01*
X60950000Y-28420000D02*
X59050000Y-28420000D01*
X72576390Y-34896479D02*
X72576390Y-33516479D01*
X73956390Y-34896479D02*
X72576390Y-34896479D01*
X75226390Y-32136479D02*
X93116390Y-32136479D01*
X75226390Y-34896479D02*
X75226390Y-32136479D01*
X75226390Y-34896479D02*
X93116390Y-34896479D01*
X93116390Y-34896479D02*
X93116390Y-32136479D01*
X19131095Y-54010000D02*
X19901095Y-54010000D01*
X27211095Y-54010000D02*
X26441095Y-54010000D01*
X19901095Y-52640000D02*
X26441095Y-52640000D01*
X26441095Y-55380000D01*
X19901095Y-55380000D01*
X19901095Y-52640000D01*
X40666503Y-43104254D02*
X41003503Y-43104254D01*
X40666503Y-48344254D02*
X40666503Y-43104254D01*
X41003503Y-48344254D02*
X40666503Y-48344254D01*
X43069503Y-43104254D02*
X43406503Y-43104254D01*
X43406503Y-43104254D02*
X43406503Y-48344254D01*
X43406503Y-48344254D02*
X43069503Y-48344254D01*
X27337705Y-22839199D02*
X27337705Y-24339199D01*
X28587705Y-26839199D02*
X33087705Y-26839199D01*
X33087705Y-20339199D02*
X28587705Y-20339199D01*
X34337705Y-24339199D02*
X34337705Y-22839199D01*
%LPC*%
D14*
X35950378Y-54159428D03*
X35950378Y-60659428D03*
X31450378Y-54159428D03*
X31450378Y-60659428D03*
D15*
X68890000Y-40680000D03*
D16*
X68890000Y-33060000D03*
X91702657Y-65418335D03*
X91702657Y-60418335D03*
X78768719Y-52670158D03*
X78768719Y-55210158D03*
D17*
X37945627Y-65282434D03*
D18*
X38457705Y-22900000D03*
D19*
X38457705Y-25440000D03*
D17*
X41110267Y-65282434D03*
D15*
X44760000Y-24170000D03*
D16*
X47300000Y-24170000D03*
X49840000Y-24170000D03*
X52380000Y-24170000D03*
X54920000Y-24170000D03*
X57460000Y-24170000D03*
X60000000Y-24170000D03*
X62540000Y-24170000D03*
X62540000Y-16550000D03*
X60000000Y-16550000D03*
X57460000Y-16550000D03*
X54920000Y-16550000D03*
X52380000Y-16550000D03*
X49840000Y-16550000D03*
X47300000Y-16550000D03*
X44760000Y-16550000D03*
D18*
X27089465Y-65212397D03*
D19*
X29629465Y-65212397D03*
X32169465Y-65212397D03*
D18*
X68890000Y-48669829D03*
D19*
X68890000Y-46129829D03*
D20*
X83351360Y-52670158D03*
D16*
X83351360Y-55210158D03*
X63262746Y-65544031D03*
X63262746Y-60544031D03*
X44840000Y-27980000D03*
X49840000Y-27980000D03*
X28207755Y-57493466D03*
X18047755Y-57493466D03*
X26980000Y-29250000D03*
X16820000Y-29250000D03*
X18090000Y-61000000D03*
X28250000Y-61000000D03*
D18*
X59697876Y-42660416D03*
D19*
X57157876Y-42660416D03*
X52077876Y-42660416D03*
X49537876Y-42660416D03*
X52077876Y-65520416D03*
X49537876Y-65520416D03*
X59697876Y-65520416D03*
X57157876Y-65520416D03*
D16*
X23217705Y-21089199D03*
X23217705Y-26089199D03*
D18*
X73963158Y-39410000D03*
D19*
X76503158Y-39410000D03*
X79043158Y-39410000D03*
X81583158Y-39410000D03*
X84123158Y-39410000D03*
X86663158Y-39410000D03*
X89203158Y-39410000D03*
X91743158Y-39410000D03*
D21*
X91766390Y-22616479D03*
D17*
X69128907Y-55788515D03*
D15*
X66350000Y-40680000D03*
D16*
X66350000Y-33060000D03*
D21*
X91773158Y-50200000D03*
D20*
X87892657Y-57798335D03*
D16*
X85352657Y-57798335D03*
X82812657Y-57798335D03*
X80272657Y-57798335D03*
X77732657Y-57798335D03*
X75192657Y-57798335D03*
X72652657Y-57798335D03*
X72652657Y-65418335D03*
X75192657Y-65418335D03*
X77732657Y-65418335D03*
X80272657Y-65418335D03*
X82812657Y-65418335D03*
X85352657Y-65418335D03*
X87892657Y-65418335D03*
X71755000Y-29210000D03*
X71755000Y-19050000D03*
D18*
X23170000Y-16550000D03*
D19*
X25710000Y-16550000D03*
X28250000Y-16550000D03*
X30790000Y-16550000D03*
X33330000Y-16550000D03*
X35870000Y-16550000D03*
D20*
X42653993Y-52442888D03*
D16*
X42653993Y-55942888D03*
D17*
X63810000Y-27470000D03*
D22*
X23280000Y-49010000D03*
X25280000Y-49010000D03*
X27280000Y-49010000D03*
X29280000Y-49010000D03*
X31280000Y-49010000D03*
X33280000Y-49010000D03*
X35280000Y-49010000D03*
X37280000Y-49010000D03*
D23*
X38780000Y-46410000D03*
X38780000Y-44410000D03*
X38780000Y-42410000D03*
X38780000Y-40410000D03*
X38780000Y-38410000D03*
X38780000Y-36410000D03*
D22*
X37280000Y-33810000D03*
X35280000Y-33810000D03*
X33280000Y-33810000D03*
X31280000Y-33810000D03*
X29280000Y-33810000D03*
X27280000Y-33810000D03*
X25280000Y-33810000D03*
X23280000Y-33810000D03*
D20*
X74186079Y-52670158D03*
D16*
X74186079Y-55210158D03*
D24*
X67780000Y-16510000D03*
D17*
X69118736Y-52738515D03*
D24*
X17780000Y-66510000D03*
D16*
X87934000Y-52670158D03*
X87934000Y-55210158D03*
D25*
X59687075Y-35025390D03*
D14*
X54687075Y-35025390D03*
D17*
X60000000Y-27470000D03*
D18*
X73956390Y-33516479D03*
D19*
X76496390Y-33516479D03*
X79036390Y-33516479D03*
X81576390Y-33516479D03*
X84116390Y-33516479D03*
X86656390Y-33516479D03*
X89196390Y-33516479D03*
X91736390Y-33516479D03*
D24*
X67780000Y-66510000D03*
D21*
X91773158Y-43700000D03*
D16*
X28251095Y-54010000D03*
X18091095Y-54010000D03*
D24*
X17780000Y-16510000D03*
D16*
X42036503Y-48224254D03*
X42036503Y-43224254D03*
D14*
X27587705Y-21339199D03*
X34087705Y-21339199D03*
X27587705Y-25839199D03*
X34087705Y-25839199D03*
D21*
X91766390Y-29116479D03*
%LPD*%
M02*
