M48
; DRILL file KiCad 10.0.6 date 2026-09-11T20:12:55
; FORMAT={-:-/ absolute / metric / decimal}
; #@! TF.CreationDate,2026-09-11T20:12:55+02:00
; #@! TF.GenerationSoftware,Kicad,Pcbnew,10.0.6
; #@! TF.FileFunction,Plated,1,2,PTH
FMAT,2
METRIC
; #@! TA.AperFunction,Plated,PTH,ViaDrill
T1C0.300
; #@! TA.AperFunction,Plated,PTH,ViaDrill
T2C0.400
; #@! TA.AperFunction,Plated,PTH,ComponentDrill
T3C0.700
; #@! TA.AperFunction,Plated,PTH,ComponentDrill
T4C0.800
; #@! TA.AperFunction,Plated,PTH,ComponentDrill
T5C1.000
; #@! TA.AperFunction,Plated,PTH,ComponentDrill
T6C1.100
%
G90
G05
T1
X26.846Y-32.025
X35.074Y-32.027
X35.28Y-47.218
X46.001Y-26.789
T2
X37.24Y-36.337
X37.255Y-31.173
T3
X37.946Y-65.282
X41.11Y-65.282
X60.0Y-27.47
X63.81Y-27.47
X69.119Y-52.739
X69.129Y-55.789
T4
X16.82Y-29.25
X18.048Y-57.493
X18.09Y-61.0
X18.091Y-54.01
X23.218Y-21.089
X23.218Y-26.089
X26.98Y-29.25
X28.208Y-57.493
X28.25Y-61.0
X28.251Y-54.01
X42.037Y-43.224
X42.037Y-48.224
X42.654Y-52.443
X42.654Y-55.943
X44.76Y-16.55
X44.76Y-24.17
X44.84Y-27.98
X47.3Y-16.55
X47.3Y-24.17
X49.84Y-16.55
X49.84Y-24.17
X49.84Y-27.98
X52.38Y-16.55
X52.38Y-24.17
X54.92Y-16.55
X54.92Y-24.17
X57.46Y-16.55
X57.46Y-24.17
X60.0Y-16.55
X60.0Y-24.17
X62.54Y-16.55
X62.54Y-24.17
X63.263Y-60.544
X63.263Y-65.544
X66.35Y-33.06
X66.35Y-40.68
X68.89Y-33.06
X68.89Y-40.68
X72.653Y-57.798
X72.653Y-65.418
X75.193Y-57.798
X75.193Y-65.418
X77.733Y-57.798
X77.733Y-65.418
X78.269Y-54.65
X80.273Y-57.798
X80.273Y-65.418
X82.813Y-57.798
X82.813Y-65.418
X85.353Y-57.798
X85.353Y-65.418
X87.893Y-57.798
X87.893Y-65.418
X88.429Y-54.65
X91.703Y-60.418
X91.703Y-65.418
T5
X23.17Y-16.55
X25.71Y-16.55
X27.089Y-65.212
X28.25Y-16.55
X29.629Y-65.212
X30.79Y-16.55
X32.169Y-65.212
X33.33Y-16.55
X35.87Y-16.55
X38.458Y-22.9
X38.458Y-25.44
X49.538Y-42.66
X49.538Y-65.52
X52.078Y-42.66
X52.078Y-65.52
X54.687Y-35.025
X57.158Y-42.66
X57.158Y-65.52
X59.687Y-35.025
X59.698Y-42.66
X59.698Y-65.52
X68.89Y-46.13
X68.89Y-48.67
X73.956Y-33.516
X73.963Y-39.41
X76.496Y-33.516
X76.503Y-39.41
X79.036Y-33.516
X79.043Y-39.41
X81.576Y-33.516
X81.583Y-39.41
X84.116Y-33.516
X84.123Y-39.41
X86.656Y-33.516
X86.663Y-39.41
X89.196Y-33.516
X89.203Y-39.41
X91.736Y-33.516
X91.743Y-39.41
T6
X27.588Y-21.339
X27.588Y-25.839
X31.45Y-54.159
X31.45Y-60.659
X34.088Y-21.339
X34.088Y-25.839
X35.95Y-54.159
X35.95Y-60.659
M30
